<?xml version="1.0" encoding="UTF-8"?>
<!DOCTYPE svg PUBLIC "-//W3C//DTD SVG 1.1//EN" "http://www.w3.org/Graphics/SVG/1.1/DTD/svg11.dtd">
<!-- Creator: CorelDRAW X8 -->
<svg xmlns="http://www.w3.org/2000/svg" xml:space="preserve" width="5.292mm" height="5.348mm" version="1.1" style="shape-rendering:geometricPrecision; text-rendering:geometricPrecision; image-rendering:optimizeQuality; fill-rule:evenodd; clip-rule:evenodd"
viewBox="0 0 529 535"
 xmlns:xlink="http://www.w3.org/1999/xlink">
 <defs>
  <style type="text/css">
   <![CDATA[
    .fil1 {fill:#575757}
    .fil0 {fill:#575757;fill-rule:nonzero}
   ]]>
  </style>
 </defs>
 <g id="Layer_x0020_1">
  <metadata id="CorelCorpID_0Corel-Layer"/>
  <g id="_1842007857232">
   <path class="fil0" d="M327 0c56,0 106,23 143,59 37,37 59,88 59,143 0,56 -22,107 -59,143 -31,32 -73,53 -119,58 -1,-2 -4,-4 -6,-6 10,-7 15,-18 15,-30l0 -57c0,-1 0,-3 0,-4 2,-6 3,-12 4,-18l-7 0c-4,-15 -11,-29 -22,-40l35 0c2,-14 2,-30 2,-46 0,-15 0,-31 -2,-45l-87 0c-1,14 -2,30 -2,45 0,7 0,13 1,20 -4,0 -7,-1 -10,-1l-14 0c-4,-8 -10,-16 -16,-22 0,-15 0,-29 2,-42l-73 0c-3,7 -4,14 -5,22l-18 0c-8,0 -15,1 -23,3 5,-48 26,-91 59,-123 36,-36 87,-59 143,-59zm-139 117l61 0c3,-19 8,-36 13,-50 2,-6 4,-11 6,-17 -21,9 -40,21 -56,37 -9,9 -17,19 -24,30zm101 0l75 0c-2,-14 -6,-26 -10,-37 -9,-25 -19,-40 -27,-40 -9,0 -19,15 -28,40 -4,11 -7,23 -10,37zm116 0l60 0c-6,-11 -14,-21 -23,-30 -16,-16 -35,-28 -57,-37 2,6 5,11 7,17 5,14 9,31 13,50zm78 40l-73 0c1,14 2,30 2,45 0,16 -1,31 -2,46l73 0c4,-14 6,-30 6,-46 0,-15 -2,-31 -6,-45zm-78 131c-4,18 -8,35 -13,50 -2,6 -5,11 -7,16 22,-8 41,-21 57,-37 9,-8 17,-18 23,-29l-60 0z"/>
   <path class="fil1" d="M323 410c9,1 16,9 15,18l-3 42c-2,36 -33,65 -70,65l-191 0c-37,0 -68,-29 -70,-65l-4 -42c0,-9 7,-17 16,-18 9,0 17,7 18,16l3 41c1,19 17,34 37,34l191 0c19,0 36,-15 37,-34l3 -41c1,-9 9,-16 18,-16zm-80 -167l29 0c37,0 67,30 67,67l0 57c0,6 -3,11 -8,14 -43,25 -95,38 -145,40l0 26c0,9 -7,17 -17,17 -9,0 -16,-8 -16,-17l0 -26c-50,-2 -102,-15 -145,-40 -5,-3 -8,-8 -8,-14l0 -57c0,-37 30,-67 67,-67l29 0c5,-25 27,-43 52,-43l43 0c25,0 47,18 52,43zm-210 114c41,22 90,31 136,31l1 0 7 0c44,-1 90,-11 128,-31l0 -47c0,-19 -15,-34 -33,-34l-205 0c-18,0 -34,15 -34,34l0 47zm98 -114l76 0c-3,-6 -9,-10 -16,-10l-43 0c-7,0 -13,4 -17,10z"/>
  </g>
 </g>
</svg>
