<svg width="227" height="223" viewBox="0 0 227 223" fill="none" xmlns="http://www.w3.org/2000/svg">
<path d="M149.5 208C192.302 208 227 173.302 227 130.5C227 87.6979 192.302 53 149.5 53C106.698 53 72 87.6979 72 130.5C72 173.302 106.698 208 149.5 208Z" fill="#F2F2F2"/>
<path d="M63.5 71C83.1061 71 99 55.1061 99 35.5C99 15.8939 83.1061 0 63.5 0C43.8939 0 28 15.8939 28 35.5C28 55.1061 43.8939 71 63.5 71Z" fill="#F2F2F2"/>
<path d="M26.5 196C34.5081 196 41 189.508 41 181.5C41 173.492 34.5081 167 26.5 167C18.4919 167 12 173.492 12 181.5C12 189.508 18.4919 196 26.5 196Z" fill="#F2F2F2"/>
<path d="M0 45.633C0 67.8069 13.9108 85.7498 31.1018 85.7498Z" fill="#424150"/>
<path d="M31.1018 85.7498C31.1018 63.3267 46.6254 45.1823 65.8096 45.1823Z" fill="#FFC107"/>
<path d="M11.2688 47.6431C11.2688 68.706 20.1394 85.7498 31.1018 85.7498Z" fill="#FFC107"/>
<path d="M31.1018 85.7498C31.1018 57.0981 49.0446 33.9135 71.2186 33.9135Z" fill="#424150"/>
<path d="M24.5588 86.0326C24.5588 86.0326 28.9695 85.8968 30.2988 84.9502C31.6281 84.0037 37.0836 82.8734 37.4134 84.3915C37.7432 85.9096 44.0419 91.9418 39.0622 91.9819C34.0825 92.0221 27.4916 91.2063 26.1649 90.3981C24.8381 89.59 24.5588 86.0326 24.5588 86.0326Z" fill="#A8A8A8"/>
<path opacity="0.2" d="M39.1511 91.4535C34.1714 91.4936 27.5805 90.6778 26.2537 89.8696C25.2434 89.2542 24.8407 87.0458 24.706 86.0269C24.6127 86.0309 24.5588 86.0326 24.5588 86.0326C24.5588 86.0326 24.8381 89.5899 26.1649 90.3981C27.4916 91.2062 34.0825 92.0221 39.0622 91.9819C40.4997 91.9703 40.9962 91.4589 40.9689 90.7014C40.7692 91.1591 40.221 91.4448 39.1511 91.4535Z" fill="black"/>
<path d="M56.8266 159.738C86.3766 159.738 110.332 156.479 110.332 152.459C110.332 148.439 86.3766 145.18 56.8266 145.18C27.2766 145.18 3.32162 148.439 3.32162 152.459C3.32162 156.479 27.2766 159.738 56.8266 159.738Z" fill="#495057"/>
<path opacity="0.1" d="M56.8266 158.57C81.636 158.57 101.748 155.834 101.748 152.459C101.748 149.084 81.636 146.348 56.8266 146.348C32.0173 146.348 11.9053 149.084 11.9053 152.459C11.9053 155.834 32.0173 158.57 56.8266 158.57Z" fill="black"/>
<path d="M150.5 222C175.629 222 196 219.314 196 216C196 212.686 175.629 210 150.5 210C125.371 210 105 212.686 105 216C105 219.314 125.371 222 150.5 222Z" fill="#495057"/>
<path d="M68.8724 222.31C95.7361 222.31 117.513 219.347 117.513 215.692C117.513 212.038 95.7361 209.075 68.8724 209.075C42.0088 209.075 20.2315 212.038 20.2315 215.692C20.2315 219.347 42.0088 222.31 68.8724 222.31Z" fill="#495057"/>
<path d="M90 210.138C104.362 213.751 131.968 205.425 135 196" stroke="#424150" stroke-width="2" stroke-miterlimit="10"/>
<path d="M68.5863 105.106C68.5863 105.106 105.782 94.8054 108.071 127.996C110.36 161.186 77.4561 170.628 103.207 177.209" stroke="#424150" stroke-width="2" stroke-miterlimit="10"/>
<path d="M32.6499 184.729C32.6499 184.729 43.8294 181.633 44.5174 191.609C45.2053 201.584 35.3158 204.422 43.0554 206.4" stroke="#424150" stroke-width="2" stroke-miterlimit="10"/>
<path d="M140.706 200.486L139.433 208.554C139.433 208.554 133.162 211.86 137.571 211.957C141.98 212.054 162.75 211.957 162.75 211.957C162.75 211.957 166.767 211.957 160.399 208.457L159.125 200L140.706 200.486Z" fill="#424150"/>
<path opacity="0.1" d="M136.683 210.982C137.684 210.164 139.431 209.312 139.431 209.312L140.705 201.847L159.125 201.863L160.399 209.222C161.884 209.977 162.804 210.556 163.342 211C164.16 210.829 165.054 210.192 160.399 207.825L159.125 200L140.705 200.45L139.431 207.915C139.431 207.915 134.162 210.485 136.683 210.982Z" fill="black"/>
<path d="M188.117 144H111.883C110.291 144 109 145.288 109 146.877V198.123C109 199.712 110.291 201 111.883 201H188.117C189.709 201 191 199.712 191 198.123V146.877C191 145.288 189.709 144 188.117 144Z" fill="#424150"/>
<path d="M189 147H111V190H189V147Z" fill="white"/>
<path d="M150.5 146C150.776 146 151 145.776 151 145.5C151 145.224 150.776 145 150.5 145C150.224 145 150 145.224 150 145.5C150 145.776 150.224 146 150.5 146Z" fill="#F2F2F2"/>
<path d="M191 193V198.077C191 198.461 190.926 198.841 190.781 199.196C190.636 199.55 190.423 199.872 190.156 200.144C189.888 200.415 189.57 200.631 189.22 200.778C188.87 200.924 188.496 201 188.117 201H111.883C111.504 201 111.13 200.924 110.78 200.778C110.43 200.631 110.112 200.415 109.844 200.144C109.577 199.872 109.364 199.55 109.219 199.196C109.074 198.841 109 198.461 109 198.077V193H191Z" fill="#424150"/>
<path d="M171 217.13V218H120V217.304L120.07 217.13L121.327 214H169.957L171 217.13Z" fill="#424150"/>
<path d="M191.972 216.249C191.875 216.644 191.508 217.061 190.679 217.456C187.706 218.871 181.659 217.078 181.659 217.078C181.659 217.078 177 216.324 177 214.342C177.131 214.257 177.267 214.18 177.408 214.111C178.659 213.481 182.804 211.928 190.154 214.177C190.696 214.338 191.18 214.64 191.552 215.048C191.849 215.38 192.083 215.801 191.972 216.249Z" fill="#424150"/>
<path opacity="0.1" d="M191.971 216.096C188.229 217.362 184.894 217.456 181.471 215.358C179.745 214.301 178.177 214.039 177 214.059C178.285 213.459 182.547 211.978 190.103 214.121C190.659 214.276 191.157 214.563 191.539 214.952C191.845 215.268 192.085 215.669 191.971 216.096Z" fill="black"/>
<path d="M150 199C151.105 199 152 198.328 152 197.5C152 196.672 151.105 196 150 196C148.895 196 148 196.672 148 197.5C148 198.328 148.895 199 150 199Z" fill="#F2F2F2"/>
<path opacity="0.1" d="M171 217V218H120V217.2L120.07 217H171Z" fill="black"/>
<path d="M90.5892 76.4936H31.0756V145.735H90.5892V76.4936Z" fill="#424150"/>
<path d="M96.5977 69.6266H25.067V94.2332H96.5977V69.6266Z" fill="#495057"/>
<path d="M96.5977 98.8112H25.067V123.418H96.5977V98.8112Z" fill="#495057"/>
<path d="M96.5977 127.996H25.067V152.602H96.5977V127.996Z" fill="#495057"/>
<path opacity="0.4" d="M76.578 73.9185H72V78.4964H76.578V73.9185Z" fill="#FFC107"/>
<path opacity="0.8" d="M83.1588 73.9185H78.5808V78.4964H83.1588V73.9185Z" fill="#FFC107"/>
<path d="M89.7396 73.9185H85.1617V78.4964H89.7396V73.9185Z" fill="#FFC107"/>
<path opacity="0.4" d="M76.578 102.817H72V107.395H76.578V102.817Z" fill="#FFC107"/>
<path opacity="0.8" d="M83.1588 102.817H78.5808V107.395H83.1588V102.817Z" fill="#FFC107"/>
<path d="M89.7396 102.817H85.1617V107.395H89.7396V102.817Z" fill="#FFC107"/>
<path opacity="0.4" d="M76.578 131.715H72V136.293H76.578V131.715Z" fill="#FFC107"/>
<path opacity="0.8" d="M83.1588 131.715H78.5808V136.293H83.1588V131.715Z" fill="#FFC107"/>
<path d="M89.7396 131.715H85.1617V136.293H89.7396V131.715Z" fill="#FFC107"/>
<path d="M70.5892 207.538C83.0728 207.538 93.1929 197.418 93.1929 184.934C93.1929 172.451 83.0728 162.331 70.5892 162.331C58.1055 162.331 47.9854 172.451 47.9854 184.934C47.9854 197.418 58.1055 207.538 70.5892 207.538Z" fill="#424150"/>
<path d="M67.1557 202.674H60.2887V214.977H67.1557V202.674Z" fill="#424150"/>
<path d="M80.8896 202.674H74.0226V214.977H80.8896V202.674Z" fill="#424150"/>
<path d="M66.0112 217.266C69.1716 217.266 71.7337 216.305 71.7337 215.12C71.7337 213.935 69.1716 212.974 66.0112 212.974C62.8508 212.974 60.2887 213.935 60.2887 215.12C60.2887 216.305 62.8508 217.266 66.0112 217.266Z" fill="#424150"/>
<path d="M79.7451 216.98C82.9055 216.98 85.4675 216.019 85.4675 214.834C85.4675 213.649 82.9055 212.688 79.7451 212.688C76.5847 212.688 74.0226 213.649 74.0226 214.834C74.0226 216.019 76.5847 216.98 79.7451 216.98Z" fill="#424150"/>
<path d="M71.1614 186.937C75.428 186.937 78.8867 183.478 78.8867 179.212C78.8867 174.945 75.428 171.486 71.1614 171.486C66.8948 171.486 63.4361 174.945 63.4361 179.212C63.4361 183.478 66.8948 186.937 71.1614 186.937Z" fill="white"/>
<path d="M71.1614 181.787C72.5836 181.787 73.7365 180.634 73.7365 179.212C73.7365 177.79 72.5836 176.637 71.1614 176.637C69.7392 176.637 68.5863 177.79 68.5863 179.212C68.5863 180.634 69.7392 181.787 71.1614 181.787Z" fill="#495057"/>
<path d="M48.6628 163.913C46.8376 155.74 52.6719 147.48 61.694 145.466C70.716 143.451 79.5095 148.444 81.3346 156.618C83.1598 164.792 77.1805 167.807 68.1584 169.821C59.1363 171.836 50.4879 172.087 48.6628 163.913Z" fill="#FFC107"/>
<path d="M91.7892 180.426C97.5276 177.97 101.554 174.519 100.783 172.717C100.012 170.916 94.7354 171.446 88.9971 173.902C83.2588 176.358 79.232 179.81 80.003 181.611C80.774 183.413 86.0509 182.882 91.7892 180.426Z" fill="#424150"/>
<path d="M49.443 195.59C55.1814 193.134 59.2082 189.683 58.4371 187.882C57.6661 186.08 52.3892 186.611 46.6509 189.067C40.9126 191.523 36.8858 194.974 37.6568 196.776C38.4278 198.577 43.7047 198.046 49.443 195.59Z" fill="#424150"/>
<path d="M59.4304 191.515C59.4304 193.727 65.1267 198.096 71.4475 198.096C77.7684 198.096 83.7508 194.013 83.7508 191.801C83.7508 189.589 77.7684 190.084 71.4475 190.084C65.1267 190.084 59.4304 189.303 59.4304 191.515Z" fill="white"/>
<path d="M121.079 180.996C120.877 180.996 120.696 180.961 120.536 180.892C120.376 180.822 120.247 180.719 120.15 180.583C120.055 180.447 120.005 180.283 120 180.092H120.717C120.727 180.2 120.763 180.283 120.823 180.342C120.884 180.397 120.963 180.425 121.06 180.425C121.159 180.425 121.238 180.401 121.296 180.354C121.354 180.304 121.383 180.236 121.383 180.15C121.383 180.078 121.359 180.018 121.312 179.971C121.267 179.924 121.211 179.885 121.142 179.854C121.077 179.824 120.982 179.789 120.859 179.75C120.68 179.692 120.534 179.633 120.422 179.575C120.309 179.517 120.211 179.431 120.13 179.317C120.049 179.203 120.008 179.054 120.008 178.871C120.008 178.599 120.101 178.386 120.288 178.233C120.474 178.078 120.717 178 121.016 178C121.321 178 121.567 178.078 121.753 178.233C121.939 178.386 122.039 178.6 122.052 178.875H121.324C121.318 178.781 121.286 178.707 121.225 178.654C121.165 178.599 121.087 178.571 120.993 178.571C120.911 178.571 120.846 178.594 120.796 178.642C120.746 178.686 120.721 178.751 120.721 178.837C120.721 178.932 120.763 179.006 120.847 179.058C120.931 179.111 121.062 179.168 121.241 179.229C121.419 179.293 121.564 179.354 121.674 179.412C121.787 179.471 121.884 179.556 121.966 179.667C122.047 179.778 122.088 179.921 122.088 180.096C122.088 180.263 122.047 180.414 121.966 180.55C121.887 180.686 121.771 180.794 121.619 180.875C121.467 180.956 121.287 180.996 121.079 180.996Z" fill="#495057"/>
<path d="M124.224 180.45H123.192L123.026 180.967H122.321L123.322 178.042H124.102L125.102 180.967H124.389L124.224 180.45ZM124.051 179.9L123.708 178.829L123.369 179.9H124.051Z" fill="#495057"/>
<path d="M126.443 178.042C126.735 178.042 126.989 178.103 127.207 178.225C127.425 178.347 127.593 178.519 127.711 178.742C127.832 178.961 127.893 179.215 127.893 179.504C127.893 179.79 127.832 180.044 127.711 180.267C127.593 180.489 127.424 180.661 127.203 180.783C126.985 180.906 126.732 180.967 126.443 180.967H125.407V178.042H126.443ZM126.4 180.35C126.654 180.35 126.853 180.276 126.995 180.129C127.136 179.982 127.207 179.774 127.207 179.504C127.207 179.235 127.136 179.025 126.995 178.875C126.853 178.725 126.654 178.65 126.4 178.65H126.081V180.35H126.4Z" fill="#495057"/>
<path d="M129.991 180.45H128.959L128.793 180.967H128.088L129.089 178.042H129.869L130.869 180.967H130.156L129.991 180.45ZM129.817 179.9L129.475 178.829L129.136 179.9H129.817Z" fill="#495057"/>
<path d="M132.174 180.996C131.972 180.996 131.791 180.961 131.631 180.892C131.47 180.822 131.342 180.719 131.245 180.583C131.15 180.447 131.1 180.283 131.095 180.092H131.812C131.822 180.2 131.858 180.283 131.918 180.342C131.979 180.397 132.057 180.425 132.155 180.425C132.254 180.425 132.333 180.401 132.391 180.354C132.449 180.304 132.478 180.236 132.478 180.15C132.478 180.078 132.454 180.018 132.407 179.971C132.362 179.924 132.306 179.885 132.237 179.854C132.172 179.824 132.077 179.789 131.954 179.75C131.775 179.692 131.629 179.633 131.516 179.575C131.403 179.517 131.306 179.431 131.225 179.317C131.143 179.203 131.103 179.054 131.103 178.871C131.103 178.599 131.196 178.386 131.382 178.233C131.569 178.078 131.812 178 132.111 178C132.416 178 132.661 178.078 132.848 178.233C133.034 178.386 133.134 178.6 133.147 178.875H132.419C132.413 178.781 132.38 178.707 132.32 178.654C132.26 178.599 132.182 178.571 132.088 178.571C132.006 178.571 131.941 178.594 131.891 178.642C131.841 178.686 131.816 178.751 131.816 178.837C131.816 178.932 131.858 179.006 131.942 179.058C132.026 179.111 132.157 179.168 132.336 179.229C132.514 179.293 132.659 179.354 132.769 179.412C132.882 179.471 132.979 179.556 133.061 179.667C133.142 179.778 133.183 179.921 133.183 180.096C133.183 180.263 133.142 180.414 133.061 180.55C132.982 180.686 132.866 180.794 132.714 180.875C132.562 180.956 132.382 180.996 132.174 180.996Z" fill="#495057"/>
<path d="M135.272 179.467C135.432 179.503 135.56 179.587 135.658 179.721C135.755 179.851 135.803 180.001 135.803 180.171C135.803 180.415 135.722 180.61 135.559 180.754C135.399 180.896 135.174 180.967 134.885 180.967H133.597V178.042H134.842C135.123 178.042 135.342 178.11 135.5 178.246C135.66 178.382 135.74 178.567 135.74 178.8C135.74 178.972 135.697 179.115 135.61 179.229C135.526 179.343 135.413 179.422 135.272 179.467ZM134.271 179.225H134.712C134.822 179.225 134.906 179.2 134.964 179.15C135.025 179.097 135.055 179.021 135.055 178.921C135.055 178.821 135.025 178.744 134.964 178.692C134.906 178.639 134.822 178.613 134.712 178.613H134.271V179.225ZM134.767 180.392C134.88 180.392 134.967 180.365 135.027 180.312C135.09 180.257 135.122 180.178 135.122 180.075C135.122 179.972 135.089 179.892 135.023 179.833C134.96 179.775 134.872 179.746 134.759 179.746H134.271V180.392H134.767Z" fill="#495057"/>
<path d="M137.502 180.996C137.242 180.996 137.003 180.932 136.785 180.804C136.57 180.676 136.398 180.499 136.269 180.271C136.143 180.04 136.08 179.782 136.08 179.496C136.08 179.21 136.143 178.953 136.269 178.725C136.398 178.497 136.57 178.319 136.785 178.192C137.003 178.064 137.242 178 137.502 178C137.762 178 138 178.064 138.215 178.192C138.433 178.319 138.604 178.497 138.727 178.725C138.853 178.953 138.916 179.21 138.916 179.496C138.916 179.782 138.853 180.04 138.727 180.271C138.601 180.499 138.43 180.676 138.215 180.804C138 180.932 137.762 180.996 137.502 180.996ZM137.502 180.346C137.723 180.346 137.899 180.268 138.03 180.112C138.164 179.957 138.231 179.751 138.231 179.496C138.231 179.238 138.164 179.032 138.03 178.879C137.899 178.724 137.723 178.646 137.502 178.646C137.279 178.646 137.1 178.722 136.966 178.875C136.835 179.028 136.769 179.235 136.769 179.496C136.769 179.754 136.835 179.961 136.966 180.117C137.1 180.269 137.279 180.346 137.502 180.346Z" fill="#495057"/>
<path d="M140.701 180.967L140.126 179.862H139.965V180.967H139.291V178.042H140.422C140.64 178.042 140.825 178.082 140.977 178.162C141.132 178.243 141.247 178.354 141.324 178.496C141.4 178.635 141.438 178.79 141.438 178.962C141.438 179.157 141.385 179.331 141.28 179.483C141.178 179.636 141.026 179.744 140.823 179.808L141.462 180.967H140.701ZM139.965 179.358H140.382C140.506 179.358 140.597 179.326 140.658 179.263C140.721 179.199 140.752 179.108 140.752 178.992C140.752 178.881 140.721 178.793 140.658 178.729C140.597 178.665 140.506 178.633 140.382 178.633H139.965V179.358Z" fill="#495057"/>
<path d="M144.299 180.967L143.369 179.675V180.967H142.696V178.042H143.369V179.325L144.291 178.042H145.083L144.011 179.475L145.122 180.967H144.299Z" fill="#495057"/>
<path d="M147.164 180.45H146.132L145.966 180.967H145.261L146.262 178.042H147.042L148.042 180.967H147.329L147.164 180.45ZM146.991 179.9L146.648 178.829L146.309 179.9H146.991Z" fill="#495057"/>
<path d="M150.021 179.467C150.181 179.503 150.31 179.587 150.407 179.721C150.504 179.851 150.553 180.001 150.553 180.171C150.553 180.415 150.472 180.61 150.309 180.754C150.148 180.896 149.924 180.967 149.635 180.967H148.347V178.042H149.592C149.873 178.042 150.092 178.11 150.25 178.246C150.41 178.382 150.49 178.567 150.49 178.8C150.49 178.972 150.447 179.115 150.36 179.229C150.276 179.343 150.163 179.422 150.021 179.467ZM149.021 179.225H149.462C149.572 179.225 149.656 179.2 149.714 179.15C149.774 179.097 149.804 179.021 149.804 178.921C149.804 178.821 149.774 178.744 149.714 178.692C149.656 178.639 149.572 178.613 149.462 178.613H149.021V179.225ZM149.517 180.392C149.63 180.392 149.716 180.365 149.777 180.312C149.84 180.257 149.871 180.178 149.871 180.075C149.871 179.972 149.839 179.892 149.773 179.833C149.71 179.775 149.622 179.746 149.509 179.746H149.021V180.392H149.517Z" fill="#495057"/>
<path d="M151.259 181C151.141 181 151.043 180.964 150.967 180.892C150.894 180.817 150.857 180.725 150.857 180.617C150.857 180.506 150.894 180.413 150.967 180.338C151.043 180.263 151.141 180.225 151.259 180.225C151.374 180.225 151.469 180.263 151.542 180.338C151.619 180.413 151.657 180.506 151.657 180.617C151.657 180.725 151.619 180.817 151.542 180.892C151.469 180.964 151.374 181 151.259 181Z" fill="#495057"/>
<path d="M154.88 178.042V178.613H154.147V180.967H153.473V178.613H152.741V178.042H154.88Z" fill="#495057"/>
<path d="M156.939 180.45H155.907L155.742 180.967H155.036L156.037 178.042H156.817L157.818 180.967H157.105L156.939 180.45ZM156.766 179.9L156.423 178.829L156.084 179.9H156.766Z" fill="#495057"/>
<path d="M159.123 180.996C158.921 180.996 158.739 180.961 158.579 180.892C158.419 180.822 158.29 180.719 158.193 180.583C158.099 180.447 158.049 180.283 158.043 180.092H158.76C158.771 180.2 158.806 180.283 158.867 180.342C158.927 180.397 159.006 180.425 159.103 180.425C159.203 180.425 159.282 180.401 159.339 180.354C159.397 180.304 159.426 180.236 159.426 180.15C159.426 180.078 159.403 180.018 159.355 179.971C159.311 179.924 159.254 179.885 159.186 179.854C159.12 179.824 159.026 179.789 158.902 179.75C158.724 179.692 158.578 179.633 158.465 179.575C158.352 179.517 158.255 179.431 158.173 179.317C158.092 179.203 158.051 179.054 158.051 178.871C158.051 178.599 158.145 178.386 158.331 178.233C158.517 178.078 158.76 178 159.06 178C159.364 178 159.61 178.078 159.796 178.233C159.983 178.386 160.083 178.6 160.096 178.875H159.367C159.362 178.781 159.329 178.707 159.269 178.654C159.208 178.599 159.131 178.571 159.036 178.571C158.955 178.571 158.889 178.594 158.839 178.642C158.789 178.686 158.764 178.751 158.764 178.837C158.764 178.932 158.806 179.006 158.89 179.058C158.974 179.111 159.106 179.168 159.284 179.229C159.463 179.293 159.607 179.354 159.718 179.412C159.831 179.471 159.928 179.556 160.009 179.667C160.091 179.778 160.131 179.921 160.131 180.096C160.131 180.263 160.091 180.414 160.009 180.55C159.93 180.686 159.815 180.794 159.663 180.875C159.51 180.956 159.33 180.996 159.123 180.996Z" fill="#495057"/>
<path d="M161.22 178.042V180.967H160.546V178.042H161.22Z" fill="#495057"/>
<path d="M163.311 180.967L162.381 179.675V180.967H161.708V178.042H162.381V179.325L163.303 178.042H164.095L163.023 179.475L164.134 180.967H163.311Z" fill="#495057"/>
<path d="M167.586 178.042V180.967H166.913V179.212L166.294 180.967H165.751L165.128 179.208V180.967H164.454V178.042H165.25L166.026 180.067L166.794 178.042H167.586Z" fill="#495057"/>
<path d="M169.792 180.45H168.76L168.595 180.967H167.889L168.89 178.042H169.67L170.671 180.967H169.958L169.792 180.45ZM169.619 179.9L169.276 178.829L168.937 179.9H169.619Z" fill="#495057"/>
<path d="M171.649 180.417H172.531V180.967H170.975V178.042H171.649V180.417Z" fill="#495057"/>
<path d="M174.574 180.45H173.542L173.377 180.967H172.671L173.672 178.042H174.452L175.453 180.967H174.74L174.574 180.45ZM174.401 179.9L174.058 178.829L173.719 179.9H174.401Z" fill="#495057"/>
<path d="M178.129 178.042L177.171 180V180.967H176.498V180L175.54 178.042H176.305L176.84 179.267L177.372 178.042H178.129Z" fill="#495057"/>
<path d="M180.122 180.45H179.089L178.924 180.967H178.219L179.219 178.042H179.999L181 180.967H180.287L180.122 180.45ZM179.948 179.9L179.605 178.829L179.267 179.9H179.948Z" fill="#495057"/>
<path d="M128 169.751V167.234L135.457 156.526H139.174V166.96H141.181V169.751H139.174V173H135.981V169.751H128ZM136.187 159.958L131.512 166.96H136.187V159.958Z" fill="#FFC107"/>
<path d="M143.213 164.443C143.213 161.804 143.685 159.737 144.627 158.242C145.585 156.747 147.166 156 149.371 156C151.575 156 153.148 156.747 154.091 158.242C155.049 159.737 155.528 161.804 155.528 164.443C155.528 167.097 155.049 169.179 154.091 170.689C153.148 172.199 151.575 172.954 149.371 172.954C147.166 172.954 145.585 172.199 144.627 170.689C143.685 169.179 143.213 167.097 143.213 164.443ZM152.381 164.443C152.381 163.314 152.305 162.368 152.153 161.606C152.016 160.828 151.727 160.195 151.286 159.707C150.86 159.218 150.222 158.974 149.371 158.974C148.519 158.974 147.873 159.218 147.432 159.707C147.007 160.195 146.718 160.828 146.566 161.606C146.429 162.368 146.36 163.314 146.36 164.443C146.36 165.602 146.429 166.578 146.566 167.371C146.702 168.149 146.991 168.782 147.432 169.271C147.873 169.743 148.519 169.98 149.371 169.98C150.222 169.98 150.868 169.743 151.309 169.271C151.75 168.782 152.039 168.149 152.175 167.371C152.312 166.578 152.381 165.602 152.381 164.443Z" fill="#FFC107"/>
<path d="M157.819 169.751V167.234L165.276 156.526H168.993V166.96H171V169.751H168.993V173H165.801V169.751H157.819ZM166.006 159.958L161.331 166.96H166.006V159.958Z" fill="#FFC107"/>
<path fill-rule="evenodd" clip-rule="evenodd" d="M163.5 136.644C148.155 122.784 131.474 127.288 129.246 104.172C128.85 100.014 128.999 95.757 129.098 91.5495C129.395 80.3625 130.088 67.443 125.93 61.8495C131.573 56.7015 137.265 51.504 142.958 46.356C156.669 46.356 170.331 46.356 184.043 46.356C189.735 51.504 195.428 56.7015 201.071 61.8495C196.913 67.443 197.606 80.3625 197.903 91.5495C198.002 95.757 198.15 100.014 197.754 104.172C195.527 127.288 178.845 122.784 163.5 136.644Z" fill="#332C2B" stroke="#332C2B" stroke-width="2.35623"/>
<path fill-rule="evenodd" clip-rule="evenodd" d="M163.5 135.802C165.728 133.872 168.153 132.139 170.678 130.654C173.054 129.219 175.529 128.031 178.004 126.843C180.231 125.803 182.459 124.813 184.637 123.675C186.617 122.586 188.547 121.447 190.23 119.913C192.161 118.23 193.646 116.25 194.784 113.824C196.17 110.805 196.863 107.439 197.16 104.122C197.556 99.9645 197.408 95.757 197.309 91.599C197.259 89.421 197.16 87.243 197.111 85.065C197.061 82.7385 197.061 80.412 197.111 78.0855C197.16 75.9075 197.259 73.7295 197.457 71.5515C197.804 68.433 198.546 64.6215 200.279 61.9485C194.834 56.949 189.339 51.9495 183.845 46.9995C170.282 46.9995 156.719 46.9995 143.156 46.9995C137.661 51.9495 132.167 56.949 126.722 61.9485C128.454 64.6215 129.197 68.433 129.543 71.5515C129.741 73.7295 129.84 75.9075 129.89 78.0855C129.939 80.412 129.939 82.7385 129.89 85.065C129.84 87.243 129.741 89.421 129.692 91.599C129.593 95.757 129.444 99.9645 129.84 104.122C130.137 107.439 130.83 110.805 132.216 113.824C133.355 116.25 134.84 118.23 136.77 119.913C138.453 121.447 140.384 122.586 142.364 123.675C144.542 124.813 146.769 125.803 148.997 126.843C151.472 128.031 153.947 129.219 156.323 130.654C158.847 132.139 161.273 133.872 163.5 135.802Z" fill="#FEFEFE"/>
<path fill-rule="evenodd" clip-rule="evenodd" d="M163.5 133.427C165.48 131.793 167.609 130.308 169.836 129.021C172.262 127.586 174.737 126.348 177.311 125.16C179.489 124.121 181.716 123.131 183.894 121.992C185.726 121.002 187.557 119.913 189.141 118.478C190.874 116.943 192.21 115.161 193.2 113.033C194.487 110.211 195.131 107.043 195.428 103.925C195.824 99.816 195.675 95.7075 195.527 91.6485C195.477 89.4705 195.428 87.2925 195.378 85.1145C195.329 82.7385 195.279 80.412 195.329 78.0855C195.378 75.8085 195.477 73.581 195.725 71.3535C196.071 68.3835 196.665 65.067 198.051 62.3445C193.101 57.84 188.151 53.3355 183.201 48.831C170.084 48.831 156.917 48.831 143.799 48.831C138.849 53.3355 133.899 57.84 128.949 62.3445C130.335 65.067 130.929 68.3835 131.276 71.3535C131.523 73.581 131.622 75.8085 131.672 78.0855C131.721 80.412 131.672 82.7385 131.622 85.1145C131.573 87.2925 131.523 89.4705 131.474 91.6485C131.325 95.7075 131.177 99.816 131.573 103.925C131.87 107.043 132.513 110.211 133.8 113.033C134.79 115.161 136.127 116.943 137.859 118.478C139.443 119.913 141.275 121.002 143.106 121.992C145.284 123.131 147.512 124.121 149.69 125.16C152.264 126.348 154.739 127.586 157.164 129.021C159.392 130.308 161.52 131.793 163.5 133.427Z" fill="#332C2B" stroke="#332C2B" stroke-width="1.3468"/>
<path fill-rule="evenodd" clip-rule="evenodd" d="M163.5 132.684C165.431 131.1 167.46 129.714 169.539 128.477C171.965 127.041 174.489 125.754 177.063 124.566C179.241 123.576 181.469 122.586 183.597 121.448C185.429 120.458 187.211 119.418 188.745 118.032C190.428 116.547 191.715 114.815 192.656 112.736C193.943 110.013 194.537 106.895 194.834 103.826C195.23 99.816 195.081 95.7075 194.982 91.6485C194.933 89.4705 194.834 87.2925 194.784 85.1145C194.735 82.7385 194.735 80.412 194.784 78.036C194.784 75.8085 194.933 73.5315 195.18 71.2545C195.477 68.334 196.071 65.166 197.309 62.493C192.557 58.137 187.755 53.781 183.003 49.4745C169.985 49.4745 157.016 49.4745 143.997 49.4745C139.245 53.781 134.444 58.137 129.692 62.493C130.929 65.166 131.523 68.334 131.82 71.2545C132.068 73.5315 132.216 75.8085 132.216 78.036C132.266 80.412 132.266 82.7385 132.216 85.1145C132.167 87.2925 132.068 89.4705 132.018 91.6485C131.919 95.7075 131.771 99.816 132.167 103.826C132.464 106.895 133.058 110.013 134.345 112.736C135.285 114.815 136.572 116.547 138.255 118.032C139.79 119.418 141.572 120.458 143.403 121.448C145.532 122.586 147.759 123.576 149.937 124.566C152.511 125.754 155.036 127.041 157.461 128.477C159.54 129.714 161.57 131.1 163.5 132.684Z" fill="#FFF000"/>
<path fill-rule="evenodd" clip-rule="evenodd" d="M163.5 132.684C165.431 131.1 167.46 129.714 169.539 128.477C171.965 127.041 174.489 125.754 177.063 124.566C179.241 123.576 181.469 122.586 183.597 121.448C185.429 120.458 187.211 119.418 188.745 118.032C190.428 116.547 191.715 114.815 192.656 112.736C193.943 110.013 194.537 106.895 194.834 103.826C195.23 99.816 195.081 95.7075 194.982 91.6485C194.933 89.4705 194.834 87.2925 194.784 85.1145C194.735 82.7385 194.735 80.412 194.784 78.036C194.784 76.9965 194.834 75.957 194.883 74.9175H132.117C132.167 75.957 132.216 76.9965 132.216 78.036C132.266 80.412 132.266 82.7385 132.216 85.1145C132.167 87.2925 132.068 89.4705 132.018 91.6485C131.919 95.7075 131.771 99.816 132.167 103.826C132.464 106.895 133.058 110.013 134.345 112.736C135.285 114.815 136.572 116.547 138.255 118.032C139.79 119.418 141.572 120.458 143.403 121.448C145.532 122.586 147.759 123.576 149.937 124.566C152.511 125.754 155.036 127.041 157.461 128.477C159.54 129.714 161.57 131.1 163.5 132.684Z" fill="#589F36"/>
<path fill-rule="evenodd" clip-rule="evenodd" d="M189.785 116.993C190.181 116.597 190.527 116.201 190.824 115.805L182.36 100.757H191.171L194.487 106.598C194.537 106.202 194.636 105.756 194.685 105.36L192.062 100.757H195.032C195.032 100.509 195.032 100.212 195.081 99.9645H191.616L187.557 92.8365H194.982V91.995H187.112L181.469 82.095L180.825 82.491L186.221 91.995H177.41L174.588 87.0945L173.945 87.4905L176.469 91.995H150.828L153.402 87.4905L152.709 87.0945L149.937 91.995H141.126L146.522 82.491L145.878 82.095L140.235 91.995H132.018V92.8365H139.79L135.731 99.9645H131.919C131.969 100.212 131.969 100.509 131.969 100.757H135.285L132.414 105.806C132.464 106.251 132.513 106.647 132.612 107.043L136.176 100.757H144.987L136.374 116.052C136.622 116.349 136.919 116.696 137.216 116.993H189.785ZM181.419 100.757H145.878L137.216 116.151H190.131L181.419 100.757ZM181.865 99.9645L177.855 92.8365H186.666L190.676 99.9645H181.865ZM176.964 92.8365L180.974 99.9645H146.373L150.383 92.8365H176.964ZM149.492 92.8365H140.681L136.622 99.9645H145.482L149.492 92.8365Z" fill="#FEFEFE"/>
<path fill-rule="evenodd" clip-rule="evenodd" d="M194.982 92.094C192.358 90.5595 189.834 89.124 186.616 89.322C183.993 89.52 182.161 91.203 178.647 91.203C174.539 91.104 170.777 89.3715 166.668 90.411C165.48 90.708 164.391 91.104 163.352 91.302C162.461 90.807 160.877 90.6585 159.986 90.411C155.877 89.3715 152.115 91.104 148.007 91.203C144.492 91.203 142.71 89.52 140.037 89.322C136.968 89.124 134.543 90.4605 132.018 91.896V91.6485C132.068 89.4705 132.167 87.2925 132.216 85.1145C132.266 82.7385 132.266 80.412 132.216 78.036C132.216 77.3925 132.216 76.6995 132.167 76.056L194.833 75.264C194.784 76.2045 194.784 77.145 194.784 78.036C194.734 80.412 194.734 82.7385 194.784 85.1145C194.833 87.2925 194.932 89.4705 194.982 91.6485V92.094Z" fill="#00A2E9"/>
<path fill-rule="evenodd" clip-rule="evenodd" d="M194.784 77.244C194.784 76.2045 194.834 75.165 194.933 74.1255L150.581 59.4735L147.809 61.8495L145.433 60.414L131.919 72.195C132.068 73.779 132.167 75.4125 132.216 76.9965L194.784 77.244Z" fill="#047CB0"/>
<path fill-rule="evenodd" clip-rule="evenodd" d="M132.167 76.3035H140.087V73.8285H143.552V76.3035H151.917V75.66C151.917 74.6205 152.709 73.8285 153.65 73.8285C154.59 73.8285 155.382 74.6205 155.382 75.66V76.3035H171.47V75.66C171.47 74.6205 172.262 73.8285 173.202 73.8285C174.143 73.8285 174.935 74.6205 174.935 75.66V76.3035H183.35V73.8285H186.765V76.3035H194.834C194.784 76.6995 194.784 77.0955 194.784 77.4915H186.765H183.35H143.552H140.087H132.216C132.216 77.0955 132.216 76.6995 132.167 76.3035Z" fill="#FEFEFE"/>
<path d="M132.266 81.5505C134.691 80.1645 137.067 78.9765 140.087 79.224C141.324 79.2735 142.314 79.6695 143.403 80.0655C144.74 80.5605 146.126 81.0555 148.007 81.0555C149.492 81.0555 150.977 80.7585 152.462 80.511C154.937 80.0655 157.461 79.62 160.085 80.313C160.332 80.3625 160.629 80.412 160.976 80.4615C161.768 80.6595 162.708 80.808 163.401 81.1545C163.946 81.0555 164.589 80.8575 165.233 80.6595C165.678 80.5605 166.124 80.412 166.569 80.313C169.242 79.62 171.717 80.0655 174.242 80.511C175.677 80.7585 177.162 81.0555 178.647 81.0555C180.528 81.0555 181.964 80.5605 183.251 80.0655C184.34 79.6695 185.379 79.2735 186.567 79.224C189.735 78.9765 192.21 80.313 194.735 81.7485C194.735 82.095 194.735 82.491 194.735 82.8375C192.161 81.303 189.686 79.917 186.617 80.115C185.528 80.214 184.538 80.5605 183.548 80.9565C182.162 81.4515 180.677 81.996 178.647 81.996C177.063 81.9465 175.578 81.699 174.093 81.402C171.668 81.006 169.242 80.5605 166.767 81.204C166.322 81.303 165.876 81.4515 165.48 81.5505C164.738 81.7485 164.094 81.996 163.401 82.095L163.154 82.0455C162.56 81.7485 161.619 81.5505 160.827 81.402C160.481 81.303 160.134 81.2535 159.887 81.204C157.412 80.5605 155.036 81.006 152.61 81.402C151.076 81.699 149.591 81.9465 148.007 81.996C145.977 81.996 144.492 81.4515 143.156 80.9565C142.116 80.5605 141.126 80.214 140.037 80.115C137.067 79.917 134.691 81.204 132.266 82.6395C132.266 82.293 132.266 81.9465 132.266 81.5505ZM194.933 90.1635L194.883 89.124C192.309 87.5895 189.785 86.253 186.567 86.451C185.379 86.55 184.34 86.8965 183.251 87.2925C181.964 87.7875 180.528 88.2825 178.647 88.332C177.162 88.2825 175.677 88.035 174.242 87.738C171.717 87.2925 169.242 86.847 166.569 87.54C166.124 87.639 165.678 87.7875 165.233 87.936C164.589 88.0845 163.946 88.2825 163.401 88.431C162.708 88.0845 161.768 87.8865 160.976 87.738C160.629 87.6885 160.332 87.5895 160.085 87.54C157.461 86.847 154.937 87.2925 152.462 87.738C150.977 88.035 149.492 88.2825 148.007 88.332C146.126 88.2825 144.74 87.7875 143.403 87.2925C142.314 86.8965 141.324 86.55 140.087 86.451C137.018 86.253 134.592 87.4905 132.117 88.926L132.068 89.9655C134.592 88.53 137.018 87.1935 140.037 87.3915C141.126 87.441 142.116 87.837 143.156 88.1835C144.492 88.6785 145.977 89.223 148.007 89.223C149.591 89.223 151.076 88.926 152.61 88.6785C155.036 88.233 157.412 87.7875 159.887 88.431C160.134 88.53 160.481 88.5795 160.827 88.629C161.619 88.7775 162.56 88.9755 163.154 89.322L163.401 89.3715C164.094 89.223 164.738 89.025 165.48 88.827C165.876 88.6785 166.322 88.5795 166.767 88.431C169.242 87.7875 171.668 88.233 174.093 88.6785C175.578 88.926 177.063 89.223 178.647 89.223C180.677 89.223 182.162 88.6785 183.548 88.1835C184.538 87.837 185.528 87.441 186.617 87.3915C189.785 87.144 192.309 88.629 194.933 90.1635ZM194.834 86.2035C194.834 85.857 194.784 85.461 194.784 85.1145C192.26 83.6295 189.735 82.3425 186.567 82.5405C185.379 82.6395 184.34 82.986 183.251 83.382C181.964 83.877 180.528 84.372 178.647 84.4215C177.162 84.372 175.677 84.1245 174.242 83.8275C171.717 83.382 169.242 82.9365 166.569 83.6295C166.124 83.7285 165.678 83.877 165.233 84.0255C164.589 84.174 163.946 84.372 163.401 84.471C162.708 84.174 161.768 83.976 160.976 83.8275C160.629 83.7285 160.332 83.679 160.085 83.6295C157.461 82.9365 154.937 83.382 152.462 83.8275C150.977 84.1245 149.492 84.372 148.007 84.4215C146.126 84.372 144.74 83.877 143.403 83.382C142.314 82.986 141.324 82.6395 140.087 82.5405C137.067 82.3425 134.642 83.5305 132.216 84.9165V85.1145C132.216 85.4115 132.167 85.7085 132.167 86.0055C134.642 84.57 137.067 83.283 140.037 83.481C141.126 83.5305 142.116 83.877 143.156 84.273C144.492 84.768 145.977 85.3125 148.007 85.3125C149.591 85.3125 151.076 85.0155 152.61 84.768C155.036 84.3225 157.412 83.877 159.887 84.5205C160.134 84.57 160.481 84.669 160.827 84.7185C161.619 84.867 162.56 85.065 163.154 85.4115H163.401C164.094 85.3125 164.738 85.1145 165.48 84.9165C165.876 84.768 166.322 84.6195 166.767 84.5205C169.242 83.877 171.668 84.3225 174.093 84.768C175.578 85.0155 177.063 85.3125 178.647 85.3125C180.677 85.3125 182.162 84.768 183.548 84.273C184.538 83.877 185.528 83.5305 186.617 83.481C189.735 83.2335 192.21 84.669 194.834 86.2035Z" fill="#FEFEFE"/>
<path d="M142.067 56.8995V53.5335H142.71V55.0185L144.047 53.5335H144.888L143.7 54.87L144.938 56.8995H144.096L143.255 55.3155L142.71 55.9095V56.8995H142.067ZM148.155 56.8995H147.462L147.215 56.157H145.928L145.631 56.8995H144.987L146.225 53.5335H146.868L148.155 56.8995ZM146.967 55.563L146.522 54.3255L146.126 55.563H146.967ZM148.502 53.5335H149.789C150.036 53.5335 150.234 53.5335 150.383 53.5335C150.482 53.583 150.581 53.6325 150.68 53.682C150.779 53.781 150.878 53.88 150.927 53.979C151.026 54.078 151.026 54.2265 151.026 54.375C151.026 54.5235 151.026 54.672 150.927 54.8205C150.828 54.969 150.729 55.068 150.581 55.1175C150.779 55.167 150.927 55.266 151.026 55.4145C151.125 55.563 151.224 55.761 151.224 55.9095C151.224 56.1075 151.175 56.256 151.076 56.4045C151.026 56.553 150.927 56.652 150.828 56.751C150.68 56.8005 150.581 56.8995 150.383 56.8995C150.284 56.8995 150.036 56.8995 149.591 56.8995H148.502V53.5335ZM149.145 54.078V54.87H149.591C149.838 54.87 149.987 54.87 150.036 54.87C150.185 54.87 150.234 54.8205 150.333 54.7215C150.383 54.672 150.432 54.573 150.432 54.474C150.432 54.375 150.383 54.276 150.333 54.2265C150.284 54.177 150.185 54.1275 150.086 54.078C150.036 54.078 149.838 54.078 149.541 54.078H149.145ZM149.145 55.4145V56.355H149.789C149.987 56.355 150.135 56.355 150.185 56.3055C150.284 56.3055 150.383 56.256 150.432 56.2065C150.482 56.1075 150.531 56.0085 150.531 55.9095C150.531 55.8105 150.531 55.7115 150.482 55.662C150.432 55.563 150.333 55.5135 150.284 55.464C150.185 55.464 149.987 55.4145 149.69 55.4145H149.145ZM151.719 56.8995V56.256H152.363V56.8995H151.719ZM154.937 56.8995V54.078H153.996V53.5335H156.521V54.078H155.58V56.8995H154.937ZM159.491 56.8995H158.798L158.55 56.157H157.263L156.966 56.8995H156.323L157.56 53.5335H158.253L159.491 56.8995ZM158.352 55.563L157.907 54.3255L157.461 55.563H158.352ZM159.689 55.8105L160.332 55.761C160.332 55.959 160.431 56.157 160.53 56.256C160.679 56.355 160.827 56.4045 161.025 56.4045C161.223 56.4045 161.372 56.355 161.471 56.256C161.57 56.157 161.619 56.058 161.619 55.959C161.619 55.86 161.619 55.8105 161.57 55.7115C161.52 55.662 161.471 55.6125 161.322 55.563C161.273 55.563 161.075 55.5135 160.827 55.4145C160.481 55.365 160.233 55.2165 160.085 55.1175C159.887 54.9195 159.788 54.672 159.788 54.4245C159.788 54.2265 159.837 54.078 159.936 53.9295C160.035 53.781 160.184 53.682 160.332 53.583C160.53 53.484 160.728 53.484 160.976 53.484C161.372 53.484 161.669 53.5335 161.867 53.7315C162.065 53.9295 162.164 54.177 162.213 54.5235H161.57C161.52 54.3255 161.471 54.2265 161.372 54.1275C161.273 54.078 161.124 54.0285 160.976 54.0285C160.778 54.0285 160.629 54.078 160.53 54.177C160.481 54.2265 160.431 54.276 160.431 54.375C160.431 54.4245 160.481 54.5235 160.53 54.573C160.58 54.6225 160.778 54.7215 161.124 54.8205C161.421 54.87 161.669 54.969 161.817 55.068C161.966 55.1175 162.065 55.266 162.164 55.4145C162.263 55.5135 162.312 55.7115 162.312 55.9095C162.312 56.1075 162.263 56.3055 162.114 56.5035C162.015 56.652 161.867 56.8005 161.718 56.85C161.52 56.949 161.273 56.9985 161.025 56.9985C160.58 56.9985 160.283 56.8995 160.085 56.7015C159.837 56.5035 159.738 56.2065 159.689 55.8105ZM162.807 56.8995V53.5335H163.451V56.8995H162.807ZM164.094 56.8995V53.5335H164.738V55.0185L166.025 53.5335H166.916L165.728 54.87L166.965 56.8995H166.124L165.282 55.3155L164.738 55.9095V56.8995H164.094ZM167.312 56.8995V53.5335H168.252L168.846 55.86L169.391 53.5335H170.381V56.8995H169.787V54.2265L169.143 56.8995H168.549L167.906 54.2265V56.8995H167.312ZM173.895 56.8995H173.202L172.955 56.157H171.668L171.371 56.8995H170.727L171.965 53.5335H172.658L173.895 56.8995ZM172.707 55.563L172.262 54.3255L171.866 55.563H172.707ZM174.291 56.8995V53.5335H174.935V56.355H176.519V56.8995H174.291ZM179.885 56.8995H179.192L178.895 56.157H177.608L177.36 56.8995H176.667L177.905 53.5335H178.598L179.885 56.8995ZM178.697 55.563L178.251 54.3255L177.806 55.563H178.697ZM180.627 56.8995V55.5135L179.489 53.5335H180.231L180.974 54.87L181.716 53.5335H182.459L181.32 55.5135V56.8995H180.627ZM185.28 56.8995H184.587L184.29 56.157H183.003L182.756 56.8995H182.063L183.3 53.5335H183.993L185.28 56.8995ZM184.092 55.563L183.647 54.3255L183.201 55.563H184.092Z" fill="#332C2B"/>
<path fill-rule="evenodd" clip-rule="evenodd" d="M163.154 111.498C161.075 114.023 159.392 114.617 157.709 114.518C154.689 114.419 154.145 113.132 152.561 112.142C153.006 111.944 153.155 111.845 153.65 111.647C151.62 111.597 150.977 110.756 150.432 110.162C150.878 109.964 151.323 109.815 151.719 109.617C150.284 108.776 148.947 108.033 148.304 106.449C149.145 106.449 149.343 106.548 149.987 106.449C149.244 105.41 148.254 104.271 147.957 102.836C148.502 103.034 149.244 103.034 149.739 102.935C148.848 100.311 148.898 98.529 149.591 97.341C150.086 96.4995 150.977 95.856 151.868 95.6085C152.858 95.361 153.749 95.6085 154.145 96.2025C154.64 97.044 154.293 98.628 153.402 98.9745C152.907 99.1725 152.363 99.024 151.719 98.727C151.472 100.46 151.719 101.945 152.462 102.44C152.66 102.588 154.541 104.123 154.887 103.925C158.451 106.202 160.085 106.994 163.649 109.221C163.5 110.211 163.253 110.459 163.154 111.498Z" fill="#332C2B"/>
<path fill-rule="evenodd" clip-rule="evenodd" d="M153.749 112.191C154.937 113.577 157.61 114.963 160.134 113.676C161.174 113.132 162.065 112.241 162.807 111.3C162.857 110.954 162.956 110.607 163.055 110.261C163.154 109.964 163.203 109.716 163.253 109.419C160.481 107.687 157.61 106.053 154.788 104.321C154.343 104.321 153.699 103.826 153.402 103.628C153.155 103.43 152.907 103.281 152.66 103.083C152.561 102.984 152.412 102.885 152.313 102.786C150.68 101.648 150.878 97.143 151.818 97.44C151.917 98.232 152.412 98.4795 152.907 98.43C154.046 98.2815 154.392 96.5985 153.105 96.252C152.412 96.054 151.472 96.2025 150.927 96.747C149.195 98.5785 149.789 101.697 150.828 103.826C150.234 103.925 149.492 103.677 148.898 103.578C149.343 104.816 150.185 105.855 151.125 106.746C150.482 106.895 150.234 106.845 149.492 106.796C150.482 108.528 151.769 108.974 153.254 109.518C152.759 109.865 152.561 109.964 151.769 110.261C152.759 111.35 155.184 111.251 155.432 111.251C155.234 111.944 154.689 112.043 153.749 112.191Z" fill="#FFF000"/>
<path fill-rule="evenodd" clip-rule="evenodd" d="M162.659 106.152C159.441 100.41 155.679 103.776 151.62 101.252C151.422 102.39 151.67 103.727 152.313 104.667C151.967 105.509 152.61 107.043 153.848 107.736C153.551 109.32 155.135 110.063 155.828 110.211C157.511 114.171 160.629 110.459 162.956 109.914C162.807 108.825 162.758 107.241 162.659 106.152Z" fill="#332C2B"/>
<path fill-rule="evenodd" clip-rule="evenodd" d="M162.56 109.667C162.51 108.924 162.461 108.231 162.411 107.489C161.916 108.033 161.372 108.231 160.926 108.231C160.184 108.231 159.392 107.538 159.54 106.647C159.689 105.905 160.679 105.459 160.926 106.053C160.629 105.954 160.382 106.053 160.233 106.251C159.738 106.845 160.184 107.786 160.926 107.786C162.065 107.786 162.411 106.4 161.867 105.558C161.57 105.113 161.421 104.915 161.124 104.618C158.451 101.697 155.382 103.677 151.917 101.846C151.967 103.776 152.61 104.568 154.343 104.915C155.184 105.063 156.026 105.063 156.768 104.915C156.917 105.558 154.887 105.509 154.244 105.36C153.699 105.261 153.155 105.063 152.66 104.766C152.412 105.954 153.65 107.489 154.986 107.637C155.877 107.786 156.719 107.736 157.412 107.637C157.56 108.33 155.58 108.182 154.887 108.083C154.689 108.033 154.442 107.934 154.194 107.885C153.996 109.221 155.234 109.667 156.224 109.667C157.115 109.716 157.956 109.518 158.649 109.271C158.946 109.815 156.867 110.162 156.224 110.162C156.521 110.805 156.966 111.449 157.659 111.597C158.55 111.795 159.689 111.102 160.431 110.706C161.075 110.31 161.817 109.865 162.56 109.667Z" fill="#FFF000"/>
<path fill-rule="evenodd" clip-rule="evenodd" d="M163.698 111.498C165.777 114.023 167.46 114.617 169.143 114.518C172.113 114.419 172.707 113.132 174.291 112.142C173.846 111.944 173.697 111.845 173.202 111.647C175.232 111.597 175.875 110.756 176.42 110.162C175.974 109.964 175.529 109.815 175.133 109.617C176.568 108.776 177.905 108.033 178.548 106.449C177.707 106.449 177.509 106.548 176.865 106.449C177.608 105.41 178.598 104.271 178.895 102.836C178.35 103.034 177.608 103.034 177.113 102.935C178.004 100.311 177.954 98.529 177.261 97.341C176.766 96.4995 175.875 95.856 174.984 95.6085C173.994 95.361 173.103 95.6085 172.707 96.2025C172.212 97.044 172.559 98.628 173.45 98.9745C173.945 99.1725 174.489 99.024 175.133 98.727C175.38 100.46 175.133 101.945 174.39 102.44C174.192 102.588 172.311 104.123 171.965 103.925C168.401 106.202 166.767 106.994 163.203 109.221C163.352 110.211 163.599 110.459 163.698 111.498Z" fill="#332C2B"/>
<path fill-rule="evenodd" clip-rule="evenodd" d="M173.103 112.191C171.915 113.577 169.242 114.963 166.718 113.676C165.678 113.132 164.787 112.241 164.045 111.3C163.995 110.954 163.896 110.607 163.797 110.261C163.698 109.964 163.649 109.716 163.599 109.419C166.371 107.687 169.242 106.053 172.064 104.321C172.509 104.321 173.153 103.826 173.45 103.628C173.697 103.43 173.945 103.281 174.192 103.083C174.291 102.984 174.44 102.885 174.539 102.786C176.172 101.648 175.974 97.143 175.034 97.44C174.935 98.232 174.44 98.4795 173.945 98.43C172.806 98.2815 172.46 96.5985 173.747 96.252C174.44 96.054 175.38 96.2025 175.925 96.747C177.657 98.5785 177.063 101.697 176.024 103.826C176.618 103.925 177.36 103.677 177.954 103.578C177.509 104.816 176.667 105.855 175.727 106.746C176.37 106.895 176.618 106.845 177.36 106.796C176.37 108.528 175.083 108.974 173.598 109.518C174.093 109.865 174.291 109.964 175.083 110.261C174.093 111.35 171.668 111.251 171.42 111.251C171.618 111.944 172.163 112.043 173.103 112.191Z" fill="#FFF000"/>
<path fill-rule="evenodd" clip-rule="evenodd" d="M164.193 106.152C167.411 100.41 171.173 103.776 175.232 101.252C175.43 102.39 175.133 103.727 174.539 104.667C174.885 105.509 174.242 107.043 173.004 107.736C173.301 109.32 171.717 110.063 171.024 110.211C169.341 114.171 166.223 110.459 163.896 109.914C164.045 108.825 164.094 107.241 164.193 106.152Z" fill="#332C2B"/>
<path fill-rule="evenodd" clip-rule="evenodd" d="M164.292 109.667C164.342 108.924 164.391 108.231 164.441 107.489C164.936 108.033 165.48 108.231 165.926 108.231C166.668 108.231 167.46 107.538 167.312 106.647C167.163 105.905 166.173 105.459 165.926 106.053C166.223 105.954 166.47 106.053 166.619 106.251C167.114 106.845 166.668 107.786 165.926 107.786C164.787 107.786 164.441 106.4 164.985 105.558C165.233 105.113 165.431 104.915 165.728 104.618C168.401 101.697 171.47 103.677 174.935 101.846C174.885 103.776 174.242 104.568 172.509 104.915C171.668 105.063 170.826 105.063 170.084 104.915C169.935 105.558 171.965 105.509 172.608 105.36C173.153 105.261 173.697 105.063 174.192 104.766C174.44 105.954 173.153 107.489 171.866 107.637C170.975 107.786 170.133 107.736 169.44 107.637C169.292 108.33 171.272 108.182 171.965 108.083C172.163 108.033 172.41 107.934 172.658 107.885C172.856 109.221 171.618 109.667 170.628 109.667C169.737 109.716 168.896 109.518 168.203 109.271C167.906 109.815 169.935 110.162 170.628 110.162C170.331 110.805 169.886 111.449 169.193 111.597C168.302 111.795 167.163 111.102 166.421 110.706C165.777 110.31 165.035 109.865 164.292 109.667Z" fill="#FFF000"/>
<path fill-rule="evenodd" clip-rule="evenodd" d="M164.688 60.1665C163.5 60.5625 162.51 61.305 162.164 62.6415V121.299H164.688C164.688 100.905 164.688 80.511 164.688 60.1665Z" fill="#332C2B"/>
<path fill-rule="evenodd" clip-rule="evenodd" d="M164.292 61.1565C163.847 61.899 163.302 62.5425 162.56 62.8395V67.74H164.292V61.1565ZM162.56 68.1855V75.363H164.292V68.1855H162.56ZM162.56 75.8085V82.986H164.292V75.8085H162.56ZM162.56 83.4315V90.609H164.292V83.4315H162.56ZM162.56 91.0545V98.232H164.292V91.0545H162.56ZM162.56 98.6775V105.855H164.292V98.6775H162.56ZM162.56 106.301V113.429H164.292V106.301H162.56ZM162.56 113.924V120.854H164.292V113.924H162.56Z" fill="#FFF000"/>
<path fill-rule="evenodd" clip-rule="evenodd" d="M138.75 106.499C141.522 107.439 143.106 109.419 144.74 111.399C144.542 113.379 144.294 115.359 144.096 117.29C138.453 119.369 140.532 111.944 135.087 110.508C136.523 109.469 138.107 109.32 139.74 109.766C139.74 108.231 139.295 107.291 138.75 106.499Z" fill="#332C2B"/>
<path fill-rule="evenodd" clip-rule="evenodd" d="M135.929 110.409C137.364 111.003 138.305 112.043 139.097 113.528C139.443 114.171 139.691 114.864 140.037 115.508C140.334 116.003 140.631 116.547 141.077 116.894C141.869 117.488 142.908 117.339 143.75 117.042C143.948 115.211 144.195 113.33 144.393 111.498C142.908 109.716 141.572 108.182 139.592 107.241C139.938 108.033 140.087 108.825 140.087 109.766V110.261L139.641 110.162C138.354 109.766 137.117 109.815 135.929 110.409Z" fill="#FFF000"/>
<path fill-rule="evenodd" clip-rule="evenodd" d="M188.102 106.499C185.33 107.439 183.746 109.419 182.112 111.399C182.31 113.379 182.558 115.359 182.756 117.29C188.399 119.369 186.32 111.944 191.765 110.508C190.329 109.469 188.745 109.32 187.112 109.766C187.112 108.231 187.557 107.291 188.102 106.499Z" fill="#332C2B"/>
<path fill-rule="evenodd" clip-rule="evenodd" d="M187.26 107.241C185.28 108.182 183.944 109.716 182.459 111.498C182.657 113.33 182.904 115.211 183.102 117.042C183.944 117.339 184.983 117.488 185.775 116.894C186.221 116.547 186.518 116.003 186.815 115.508C187.161 114.864 187.458 114.171 187.755 113.528C188.547 112.043 189.488 111.003 190.923 110.409C189.735 109.815 188.498 109.766 187.211 110.162L186.765 110.261V109.766C186.765 108.825 186.914 108.033 187.26 107.241Z" fill="#FFF000"/>
<path fill-rule="evenodd" clip-rule="evenodd" d="M186.815 111.894C181.716 120.26 173.499 125.903 163.946 126.002C154.194 126.051 145.235 120.557 140.037 111.894L139.839 111.548L140.136 111.35C141.522 110.459 142.958 109.667 144.344 108.825L144.641 108.627L144.789 108.924C148.551 114.369 153.848 118.676 160.283 119.715C162.906 120.161 165.678 120.062 168.252 119.369C173.945 117.933 178.647 113.874 182.063 108.924L182.211 108.627L182.508 108.825C183.894 109.667 185.33 110.459 186.716 111.35L187.013 111.548L186.815 111.894Z" fill="#332C2B"/>
<path fill-rule="evenodd" clip-rule="evenodd" d="M144.542 109.122C143.156 110.013 141.72 110.805 140.334 111.696C145.482 120.309 154.343 125.655 163.946 125.606C173.301 125.556 181.419 120.012 186.518 111.696C185.132 110.805 183.696 110.013 182.31 109.122C178.845 114.171 174.143 118.23 168.351 119.765C165.728 120.408 162.906 120.557 160.233 120.111C153.699 119.072 148.353 114.666 144.542 109.122Z" fill="#FFF000"/>
<path d="M143.75 113.082L144.096 113.379C143.948 113.528 143.898 113.627 143.898 113.726C143.898 113.874 143.948 113.973 143.997 114.072C144.096 114.171 144.195 114.27 144.294 114.27C144.393 114.27 144.492 114.27 144.591 114.171C144.641 114.171 144.641 114.122 144.641 114.072C144.69 114.023 144.641 113.924 144.641 113.874C144.641 113.825 144.591 113.676 144.492 113.528C144.393 113.28 144.344 113.082 144.344 112.934C144.393 112.736 144.443 112.587 144.591 112.439C144.69 112.389 144.839 112.34 144.938 112.29C145.086 112.29 145.185 112.29 145.334 112.34C145.433 112.389 145.581 112.488 145.68 112.637C145.878 112.835 145.928 113.082 145.928 113.28C145.928 113.478 145.829 113.627 145.631 113.775L145.334 113.478C145.433 113.379 145.482 113.28 145.482 113.181C145.482 113.082 145.433 112.983 145.334 112.884C145.284 112.785 145.185 112.736 145.086 112.736C145.037 112.686 144.987 112.736 144.938 112.785C144.888 112.785 144.839 112.835 144.839 112.934C144.839 112.983 144.888 113.132 144.987 113.33C145.086 113.577 145.136 113.726 145.136 113.874C145.185 113.973 145.185 114.072 145.136 114.221C145.086 114.32 144.987 114.419 144.888 114.567C144.74 114.617 144.641 114.716 144.492 114.716C144.344 114.765 144.195 114.716 144.047 114.666C143.948 114.617 143.799 114.518 143.7 114.369C143.502 114.122 143.403 113.924 143.453 113.726C143.453 113.478 143.552 113.28 143.75 113.082ZM146.373 113.528L146.67 113.825L145.68 114.815C145.532 114.963 145.433 115.062 145.383 115.112C145.334 115.211 145.334 115.31 145.334 115.409C145.334 115.508 145.383 115.607 145.482 115.706C145.532 115.755 145.631 115.805 145.73 115.854C145.829 115.854 145.878 115.805 145.977 115.755C146.027 115.706 146.126 115.607 146.274 115.458L147.314 114.468L147.611 114.815L146.67 115.755C146.423 115.953 146.274 116.102 146.175 116.201C146.076 116.25 145.977 116.3 145.829 116.3C145.73 116.3 145.631 116.3 145.532 116.25C145.383 116.201 145.284 116.151 145.136 116.003C144.987 115.854 144.938 115.706 144.888 115.607C144.839 115.458 144.839 115.359 144.839 115.26C144.888 115.112 144.888 115.013 144.987 114.963C145.037 114.815 145.185 114.666 145.383 114.468L146.373 113.528ZM146.126 116.943L147.858 115.013L148.155 115.359L147.413 116.201L148.848 115.953L149.294 116.399L148.007 116.547L147.66 118.329L147.215 117.933L147.561 116.597L147.017 116.696L146.472 117.24L146.126 116.943ZM149.442 119.715L149.046 119.369L149.244 118.824L148.551 118.23L148.056 118.577L147.66 118.28L149.937 116.795L150.284 117.092L149.442 119.715ZM149.393 118.379L149.739 117.438L148.947 117.983L149.393 118.379ZM149.64 119.814L151.026 117.636L151.67 118.082C151.868 118.23 152.016 118.329 152.066 118.379C152.165 118.478 152.214 118.626 152.214 118.775C152.214 118.923 152.165 119.121 152.066 119.27C151.967 119.418 151.868 119.517 151.769 119.567C151.67 119.616 151.571 119.666 151.472 119.666C151.373 119.666 151.323 119.666 151.224 119.666C151.125 119.616 150.977 119.517 150.828 119.418L150.581 119.27L150.036 120.062L149.64 119.814ZM151.175 118.28L150.779 118.874L151.026 119.022C151.175 119.121 151.274 119.171 151.323 119.171C151.373 119.22 151.472 119.171 151.521 119.171C151.571 119.121 151.62 119.072 151.67 119.022C151.719 118.923 151.719 118.874 151.719 118.775C151.719 118.725 151.67 118.626 151.62 118.577C151.62 118.527 151.521 118.478 151.373 118.379L151.175 118.28ZM152.66 118.676L153.056 118.923L152.412 120.161C152.313 120.309 152.264 120.458 152.214 120.507C152.165 120.606 152.165 120.705 152.214 120.804C152.264 120.903 152.313 121.002 152.412 121.052C152.561 121.101 152.66 121.151 152.759 121.101C152.808 121.101 152.907 121.052 152.957 120.953C153.006 120.903 153.056 120.755 153.155 120.606L153.848 119.369L154.244 119.567L153.6 120.755C153.452 121.052 153.353 121.2 153.254 121.299C153.155 121.398 153.105 121.497 153.006 121.547C152.907 121.547 152.759 121.596 152.66 121.596C152.511 121.596 152.412 121.547 152.214 121.448C152.066 121.349 151.917 121.25 151.868 121.101C151.769 121.002 151.719 120.903 151.719 120.804C151.719 120.705 151.719 120.606 151.769 120.507C151.818 120.359 151.868 120.161 152.016 119.913L152.66 118.676ZM153.452 121.992L154.442 119.616L155.333 120.012C155.531 120.111 155.679 120.21 155.778 120.309C155.877 120.359 155.927 120.507 155.927 120.606C155.927 120.755 155.927 120.903 155.877 121.052C155.778 121.2 155.679 121.349 155.531 121.398C155.382 121.497 155.234 121.497 155.036 121.448C155.085 121.547 155.135 121.646 155.184 121.745C155.184 121.844 155.234 121.992 155.234 122.24L155.333 122.784L154.788 122.586L154.739 121.943C154.689 121.695 154.689 121.547 154.64 121.497C154.64 121.448 154.59 121.398 154.59 121.349C154.541 121.299 154.442 121.25 154.343 121.25L154.293 121.2L153.848 122.19L153.452 121.992ZM154.442 120.804L154.739 120.953C154.937 121.052 155.085 121.101 155.135 121.101C155.184 121.101 155.234 121.052 155.283 121.052C155.333 121.002 155.382 120.953 155.432 120.854C155.432 120.804 155.432 120.705 155.432 120.656C155.432 120.606 155.382 120.557 155.333 120.507C155.283 120.458 155.184 120.408 155.036 120.359L154.689 120.21L154.442 120.804ZM157.461 123.477L157.016 123.329L156.966 122.735L156.125 122.438L155.778 122.933L155.333 122.784L156.917 120.606L157.362 120.755L157.461 123.477ZM156.966 122.24V121.25L156.372 122.091L156.966 122.24ZM158.501 123.725L158.897 121.2L159.342 121.25L159.986 123.131L160.283 121.398L160.679 121.497L160.233 124.022L159.788 123.923L159.194 122.141L158.897 123.774L158.501 123.725ZM161.817 123.18L161.867 122.784L162.857 122.834L162.758 123.873C162.659 123.972 162.51 124.071 162.312 124.121C162.164 124.17 161.966 124.22 161.768 124.17C161.52 124.17 161.322 124.071 161.174 123.972C161.025 123.824 160.877 123.675 160.827 123.428C160.728 123.23 160.728 122.982 160.728 122.735C160.778 122.487 160.827 122.24 160.976 122.042C161.075 121.844 161.223 121.695 161.421 121.596C161.57 121.547 161.768 121.497 161.966 121.547C162.263 121.547 162.461 121.646 162.609 121.794C162.758 121.943 162.857 122.141 162.857 122.388L162.411 122.438C162.362 122.289 162.312 122.19 162.263 122.091C162.164 122.042 162.065 121.992 161.916 121.992C161.718 121.943 161.57 122.042 161.471 122.141C161.322 122.289 161.223 122.487 161.223 122.784C161.174 123.081 161.223 123.329 161.322 123.477C161.421 123.626 161.57 123.725 161.768 123.725C161.867 123.725 161.966 123.725 162.065 123.725C162.164 123.675 162.263 123.626 162.312 123.576L162.362 123.23L161.817 123.18ZM165.183 124.121H164.688L164.49 123.576H163.599L163.401 124.17L162.956 124.22L163.698 121.596H164.193L165.183 124.121ZM164.342 123.131L163.995 122.19L163.698 123.18L164.342 123.131ZM165.084 121.547L165.876 121.448C166.074 121.398 166.223 121.398 166.322 121.448C166.47 121.448 166.569 121.497 166.718 121.596C166.817 121.695 166.916 121.844 166.965 121.992C167.015 122.141 167.064 122.339 167.114 122.586C167.163 122.784 167.163 122.982 167.114 123.131C167.114 123.329 167.015 123.477 166.965 123.626C166.866 123.725 166.767 123.824 166.668 123.873C166.569 123.923 166.421 123.972 166.272 123.972L165.431 124.121L165.084 121.547ZM165.579 121.943L165.827 123.626L166.173 123.576C166.272 123.527 166.371 123.527 166.421 123.477C166.47 123.477 166.569 123.428 166.569 123.378C166.619 123.329 166.668 123.23 166.668 123.081C166.668 122.982 166.668 122.834 166.668 122.636C166.619 122.438 166.569 122.289 166.52 122.19C166.52 122.091 166.421 121.992 166.371 121.943C166.322 121.893 166.223 121.893 166.173 121.893C166.074 121.844 165.975 121.893 165.777 121.893L165.579 121.943ZM169.638 123.279L169.143 123.428L168.797 122.883L167.955 123.131L167.906 123.725L167.46 123.824L167.658 121.151L168.153 121.002L169.638 123.279ZM168.599 122.537L168.054 121.646L167.955 122.685L168.599 122.537ZM169.044 120.804L169.44 120.656L169.886 121.992C169.985 122.19 170.034 122.339 170.084 122.388C170.133 122.487 170.183 122.537 170.282 122.586C170.381 122.586 170.48 122.586 170.579 122.537C170.727 122.537 170.777 122.438 170.826 122.388C170.876 122.289 170.876 122.19 170.876 122.141C170.876 122.042 170.826 121.893 170.777 121.695L170.282 120.359L170.727 120.21L171.173 121.497C171.272 121.794 171.321 121.992 171.321 122.141C171.371 122.24 171.371 122.388 171.321 122.487C171.272 122.586 171.222 122.685 171.123 122.735C171.024 122.834 170.925 122.933 170.727 122.982C170.529 123.032 170.381 123.081 170.282 123.032C170.133 123.032 170.034 122.982 169.935 122.933C169.836 122.883 169.787 122.784 169.737 122.685C169.638 122.586 169.589 122.388 169.49 122.091L169.044 120.804ZM172.014 122.438L170.975 120.111L171.371 119.913L172.905 121.101L172.212 119.567L172.608 119.369L173.648 121.745L173.202 121.893L171.717 120.755L172.41 122.289L172.014 122.438ZM174.836 121.101L173.499 118.923L173.895 118.676L175.578 119.666L174.638 118.181L175.034 117.983L176.37 120.161L175.974 120.408L174.341 119.468L175.182 120.854L174.836 121.101ZM177.063 118.478L176.816 118.131L177.608 117.537L178.202 118.379C178.202 118.478 178.103 118.676 178.053 118.824C177.954 119.022 177.806 119.121 177.657 119.27C177.459 119.418 177.261 119.468 177.063 119.517C176.865 119.517 176.667 119.468 176.469 119.369C176.271 119.22 176.123 119.072 175.974 118.874C175.776 118.676 175.677 118.478 175.628 118.23C175.628 117.983 175.628 117.785 175.727 117.587C175.776 117.438 175.875 117.29 176.073 117.141C176.271 116.993 176.519 116.894 176.717 116.894C176.915 116.943 177.113 116.993 177.261 117.191L176.964 117.537C176.865 117.438 176.766 117.389 176.667 117.389C176.519 117.389 176.42 117.438 176.321 117.488C176.172 117.636 176.073 117.785 176.073 117.983C176.073 118.131 176.172 118.379 176.321 118.577C176.519 118.824 176.667 118.973 176.865 119.022C177.063 119.072 177.212 119.022 177.36 118.923C177.459 118.874 177.509 118.775 177.558 118.676C177.608 118.626 177.657 118.527 177.657 118.428L177.459 118.181L177.063 118.478ZM177.806 117.488C177.657 117.29 177.558 117.092 177.459 116.943C177.41 116.795 177.41 116.646 177.41 116.547C177.41 116.399 177.41 116.25 177.459 116.151C177.558 116.003 177.657 115.854 177.756 115.755C178.004 115.557 178.301 115.458 178.598 115.508C178.895 115.557 179.192 115.706 179.489 116.052C179.736 116.349 179.885 116.646 179.885 116.943C179.885 117.29 179.736 117.537 179.489 117.735C179.241 117.983 178.994 118.082 178.697 118.032C178.35 117.983 178.103 117.785 177.806 117.488ZM178.152 117.191C178.35 117.389 178.548 117.537 178.746 117.537C178.895 117.587 179.093 117.537 179.192 117.438C179.34 117.29 179.439 117.141 179.39 116.943C179.39 116.745 179.291 116.547 179.093 116.349C178.895 116.102 178.746 116.003 178.548 115.953C178.35 115.904 178.202 115.953 178.053 116.102C177.905 116.201 177.855 116.349 177.855 116.547C177.855 116.745 177.954 116.943 178.152 117.191ZM180.528 116.745L178.746 114.963L179.39 114.221C179.538 114.072 179.687 113.973 179.786 113.924C179.934 113.874 180.033 113.874 180.182 113.874C180.281 113.924 180.429 113.973 180.528 114.122C180.677 114.221 180.726 114.369 180.776 114.518C180.776 114.716 180.726 114.864 180.627 115.013C180.726 115.013 180.825 115.013 180.924 115.013C181.023 115.013 181.172 115.062 181.419 115.112L181.964 115.26L181.568 115.656L180.974 115.508C180.726 115.458 180.578 115.409 180.528 115.409C180.429 115.409 180.38 115.409 180.33 115.458C180.281 115.458 180.231 115.508 180.182 115.557L180.083 115.656L180.875 116.399L180.528 116.745ZM179.835 115.359L180.033 115.112C180.182 114.963 180.281 114.864 180.33 114.815C180.33 114.765 180.33 114.666 180.33 114.617C180.281 114.567 180.281 114.518 180.231 114.468C180.132 114.419 180.083 114.369 180.033 114.369C179.984 114.369 179.885 114.369 179.835 114.419C179.786 114.419 179.736 114.518 179.588 114.666L179.34 114.914L179.835 115.359ZM183.399 113.528L183.102 113.924L182.558 113.676L181.964 114.369L182.261 114.914L181.964 115.26L180.578 112.934L180.875 112.587L183.399 113.528ZM182.112 113.528L181.172 113.132L181.716 114.023L182.112 113.528Z" fill="#332C2B"/>
<path fill-rule="evenodd" clip-rule="evenodd" d="M34 88C31.5494 85.8509 28.8854 86.5493 28.5296 82.9649C28.4664 82.3202 28.4901 81.6601 28.5059 81.0077C28.5534 79.273 28.664 77.2697 28 76.4024C28.9012 75.6042 29.8103 74.7982 30.7194 74C32.9091 74 35.0909 74 37.2806 74C38.1897 74.7982 39.0988 75.6042 40 76.4024C39.336 77.2697 39.4466 79.273 39.4941 81.0077C39.5099 81.6601 39.5336 82.3202 39.4704 82.9649C39.1146 86.5493 36.4506 85.8509 34 88Z" fill="#332C2B"/>
<path fill-rule="evenodd" clip-rule="evenodd" d="M34 87.8695C34.3557 87.5702 34.7431 87.3015 35.1462 87.0713C35.5257 86.8487 35.9209 86.6645 36.3162 86.4803C36.6719 86.3191 37.0277 86.1656 37.3755 85.989C37.6917 85.8202 38 85.6436 38.2688 85.4057C38.5771 85.1447 38.8142 84.8377 38.996 84.4616C39.2174 83.9934 39.3281 83.4715 39.3755 82.9572C39.4387 82.3125 39.415 81.6601 39.3992 81.0154C39.3913 80.6776 39.3755 80.3399 39.3676 80.0022C39.3597 79.6414 39.3597 79.2807 39.3676 78.92C39.3755 78.5822 39.3913 78.2445 39.4229 77.9068C39.4783 77.4232 39.5968 76.8322 39.8735 76.4178C39.004 75.6425 38.1265 74.8673 37.249 74.0998C35.083 74.0998 32.917 74.0998 30.751 74.0998C29.8735 74.8673 28.996 75.6425 28.1265 76.4178C28.4032 76.8322 28.5217 77.4232 28.5771 77.9068C28.6087 78.2445 28.6245 78.5822 28.6324 78.92C28.6403 79.2807 28.6403 79.6414 28.6324 80.0022C28.6245 80.3399 28.6087 80.6776 28.6008 81.0154C28.585 81.6601 28.5613 82.3125 28.6245 82.9572C28.6719 83.4715 28.7826 83.9934 29.004 84.4616C29.1858 84.8377 29.4229 85.1447 29.7312 85.4057C30 85.6436 30.3083 85.8202 30.6245 85.989C30.9723 86.1656 31.3281 86.3191 31.6838 86.4803C32.0791 86.6645 32.4743 86.8487 32.8538 87.0713C33.2569 87.3015 33.6443 87.5702 34 87.8695Z" fill="#FEFEFE"/>
<path fill-rule="evenodd" clip-rule="evenodd" d="M34 87.5011C34.3162 87.2478 34.6561 87.0175 35.0119 86.818C35.3992 86.5954 35.7945 86.4035 36.2055 86.2193C36.5534 86.0581 36.9091 85.9046 37.2569 85.7281C37.5494 85.5746 37.8419 85.4057 38.0949 85.1831C38.3715 84.9452 38.585 84.6689 38.7431 84.3388C38.9486 83.9013 39.0514 83.4101 39.0988 82.9265C39.1621 82.2895 39.1383 81.6524 39.1146 81.023C39.1067 80.6853 39.0988 80.3476 39.0909 80.0099C39.083 79.6414 39.0751 79.2807 39.083 78.92C39.0909 78.5669 39.1067 78.2215 39.1462 77.8761C39.2016 77.4156 39.2964 76.9013 39.5178 76.4792C38.7273 75.7807 37.9368 75.0822 37.1462 74.3838C35.0514 74.3838 32.9486 74.3838 30.8538 74.3838C30.0632 75.0822 29.2727 75.7807 28.4822 76.4792C28.7036 76.9013 28.7984 77.4156 28.8538 77.8761C28.8933 78.2215 28.9091 78.5669 28.917 78.92C28.9249 79.2807 28.917 79.6414 28.9091 80.0099C28.9012 80.3476 28.8933 80.6853 28.8854 81.023C28.8617 81.6524 28.8379 82.2895 28.9012 82.9265C28.9486 83.4101 29.0514 83.9013 29.2569 84.3388C29.415 84.6689 29.6285 84.9452 29.9051 85.1831C30.1581 85.4057 30.4506 85.5746 30.7431 85.7281C31.0909 85.9046 31.4466 86.0581 31.7945 86.2193C32.2055 86.4035 32.6008 86.5954 32.9881 86.818C33.3439 87.0175 33.6838 87.2478 34 87.5011Z" fill="#332C2B"/>
<path fill-rule="evenodd" clip-rule="evenodd" d="M34 87.386C34.3083 87.1404 34.6324 86.9254 34.9644 86.7336C35.3518 86.511 35.7549 86.3114 36.166 86.1272C36.5138 85.9737 36.8696 85.8202 37.2095 85.6436C37.502 85.4901 37.7866 85.3289 38.0316 85.114C38.3004 84.8838 38.5059 84.6151 38.6561 84.2928C38.8617 83.8706 38.9565 83.3871 39.004 82.9112C39.0672 82.2895 39.0435 81.6524 39.0277 81.023C39.0198 80.6853 39.004 80.3476 38.996 80.0099C38.9881 79.6414 38.9881 79.2807 38.996 78.9123C38.996 78.5669 39.0198 78.2138 39.0593 77.8607C39.1067 77.4079 39.2016 76.9167 39.3992 76.5022C38.6403 75.8268 37.8735 75.1513 37.1146 74.4836C35.0356 74.4836 32.9644 74.4836 30.8854 74.4836C30.1265 75.1513 29.3597 75.8268 28.6008 76.5022C28.7984 76.9167 28.8933 77.4079 28.9407 77.8607C28.9802 78.2138 29.004 78.5669 29.004 78.9123C29.0119 79.2807 29.0119 79.6414 29.004 80.0099C28.996 80.3476 28.9802 80.6853 28.9723 81.023C28.9565 81.6524 28.9328 82.2895 28.996 82.9112C29.0435 83.3871 29.1383 83.8706 29.3439 84.2928C29.4941 84.6151 29.6996 84.8838 29.9684 85.114C30.2134 85.3289 30.498 85.4901 30.7905 85.6436C31.1304 85.8202 31.4862 85.9737 31.834 86.1272C32.2451 86.3114 32.6482 86.511 33.0356 86.7336C33.3676 86.9254 33.6917 87.1404 34 87.386Z" fill="#FFF000"/>
<path fill-rule="evenodd" clip-rule="evenodd" d="M34 87.386C34.3083 87.1404 34.6324 86.9254 34.9644 86.7336C35.3518 86.511 35.7549 86.3114 36.166 86.1272C36.5138 85.9737 36.8696 85.8202 37.2095 85.6436C37.502 85.4901 37.7866 85.3289 38.0316 85.114C38.3004 84.8838 38.5059 84.6151 38.6561 84.2928C38.8617 83.8706 38.9565 83.3871 39.004 82.9112C39.0672 82.2895 39.0435 81.6524 39.0277 81.023C39.0198 80.6853 39.004 80.3476 38.996 80.0099C38.9881 79.6414 38.9881 79.2807 38.996 78.9123C38.996 78.7511 39.004 78.5899 39.0119 78.4287H28.9881C28.996 78.5899 29.004 78.7511 29.004 78.9123C29.0119 79.2807 29.0119 79.6414 29.004 80.0099C28.996 80.3476 28.9802 80.6853 28.9723 81.023C28.9565 81.6524 28.9328 82.2895 28.996 82.9112C29.0435 83.3871 29.1383 83.8706 29.3439 84.2928C29.4941 84.6151 29.6996 84.8838 29.9684 85.114C30.2134 85.3289 30.498 85.4901 30.7905 85.6436C31.1304 85.8202 31.4862 85.9737 31.834 86.1272C32.2451 86.3114 32.6482 86.511 33.0356 86.7336C33.3676 86.9254 33.6917 87.1404 34 87.386Z" fill="#589F36"/>
<path fill-rule="evenodd" clip-rule="evenodd" d="M38.1976 84.9529C38.2609 84.8914 38.3162 84.83 38.3636 84.7686L37.0119 82.4353H38.419L38.9486 83.341C38.9565 83.2796 38.9723 83.2105 38.9802 83.1491L38.5613 82.4353H39.0356C39.0356 82.3969 39.0356 82.3509 39.0435 82.3125H38.4901L37.8419 81.2072H39.0277V81.0768H37.7708L36.8696 79.5417L36.7668 79.6031L37.6285 81.0768H36.2213L35.7708 80.3169L35.668 80.3783L36.0711 81.0768H31.9763L32.3874 80.3783L32.2767 80.3169L31.834 81.0768H30.4269L31.2885 79.6031L31.1858 79.5417L30.2846 81.0768H28.9723V81.2072H30.2134L29.5652 82.3125H28.9565C28.9644 82.3509 28.9644 82.3969 28.9644 82.4353H29.4941L29.0356 83.2182C29.0435 83.2873 29.0514 83.3487 29.0672 83.4101L29.6364 82.4353H31.0435L29.668 84.807C29.7075 84.8531 29.7549 84.9068 29.8024 84.9529H38.1976ZM36.8617 82.4353H31.1858L29.8024 84.8224H38.253L36.8617 82.4353ZM36.9328 82.3125L36.2925 81.2072H37.6996L38.3399 82.3125H36.9328ZM36.1502 81.2072L36.7905 82.3125H31.2648L31.9051 81.2072H36.1502ZM31.7628 81.2072H30.3557L29.7075 82.3125H31.1225L31.7628 81.2072Z" fill="#FEFEFE"/>
<path fill-rule="evenodd" clip-rule="evenodd" d="M39.0277 81.0921C38.6087 80.8542 38.2055 80.6316 37.6917 80.6623C37.2727 80.693 36.9802 80.9539 36.419 80.9539C35.7628 80.9386 35.1621 80.67 34.5059 80.8311C34.3162 80.8772 34.1423 80.9386 33.9763 80.9693C33.834 80.8925 33.581 80.8695 33.4387 80.8311C32.7826 80.67 32.1818 80.9386 31.5257 80.9539C30.9644 80.9539 30.6798 80.693 30.253 80.6623C29.7628 80.6316 29.3755 80.8388 28.9723 81.0614L28.9723 81.023C28.9802 80.6853 28.996 80.3476 29.004 80.0099C29.0119 79.6414 29.0119 79.2807 29.004 78.9123C29.004 78.8125 29.004 78.705 28.996 78.6053L39.004 78.4825C38.996 78.6283 38.996 78.7741 38.996 78.9123C38.9881 79.2807 38.9881 79.6414 38.996 80.0099C39.004 80.3476 39.0198 80.6853 39.0277 81.023L39.0277 81.0921Z" fill="#00A2E9"/>
<path fill-rule="evenodd" clip-rule="evenodd" d="M38.996 78.7895C38.996 78.6283 39.004 78.4671 39.0198 78.3059L31.9368 76.034L31.4941 76.4024L31.1146 76.1798L28.9565 78.0066C28.9802 78.2522 28.996 78.5055 29.004 78.7511L38.996 78.7895Z" fill="#047CB0"/>
<path fill-rule="evenodd" clip-rule="evenodd" d="M28.996 78.6436H30.2609V78.2599H30.8142V78.6436H32.1502V78.5439C32.1502 78.3827 32.2767 78.2599 32.4269 78.2599C32.5771 78.2599 32.7036 78.3827 32.7036 78.5439V78.6436H35.2727V78.5439C35.2727 78.3827 35.3992 78.2599 35.5494 78.2599C35.6996 78.2599 35.8261 78.3827 35.8261 78.5439V78.6436H37.17V78.2599H37.7154V78.6436H39.004C38.996 78.705 38.996 78.7664 38.996 78.8279H29.004C29.004 78.7664 29.004 78.705 28.996 78.6436Z" fill="#FEFEFE"/>
<path d="M29.0119 79.4572C29.3992 79.2423 29.7787 79.0581 30.2609 79.0965C30.4585 79.1042 30.6166 79.1656 30.7905 79.227C31.004 79.3037 31.2253 79.3805 31.5257 79.3805C31.7628 79.3805 32 79.3344 32.2372 79.2961C32.6324 79.227 33.0356 79.1579 33.4545 79.2654C33.4941 79.273 33.5415 79.2807 33.5968 79.2884C33.7233 79.3191 33.8735 79.3421 33.9842 79.3958C34.0711 79.3805 34.1739 79.3498 34.2767 79.3191C34.3478 79.3037 34.419 79.2807 34.4901 79.2654C34.917 79.1579 35.3123 79.227 35.7154 79.2961C35.9447 79.3344 36.1818 79.3805 36.419 79.3805C36.7194 79.3805 36.9486 79.3037 37.1542 79.227C37.3281 79.1656 37.4941 79.1042 37.6838 79.0965C38.1897 79.0581 38.585 79.2654 38.9881 79.4879C38.9881 79.5417 38.9881 79.6031 38.9881 79.6568C38.5771 79.4189 38.1818 79.2039 37.6917 79.2346C37.5178 79.25 37.3597 79.3037 37.2016 79.3651C36.9802 79.4419 36.7431 79.5263 36.419 79.5263C36.166 79.5186 35.9289 79.4803 35.6917 79.4342C35.3043 79.3728 34.917 79.3037 34.5217 79.4035C34.4506 79.4189 34.3794 79.4419 34.3162 79.4572C34.1976 79.4879 34.0949 79.5263 33.9842 79.5417L33.9447 79.534C33.8498 79.4879 33.6996 79.4572 33.5731 79.4342C33.5178 79.4189 33.4625 79.4112 33.4229 79.4035C33.0277 79.3037 32.6482 79.3728 32.2609 79.4342C32.0158 79.4803 31.7787 79.5186 31.5257 79.5263C31.2016 79.5263 30.9644 79.4419 30.751 79.3651C30.585 79.3037 30.4269 79.25 30.253 79.2346C29.7787 79.2039 29.3992 79.4035 29.0119 79.6261C29.0119 79.5724 29.0119 79.5186 29.0119 79.4572ZM39.0198 80.7928L39.0119 80.6316C38.6008 80.3936 38.1976 80.1864 37.6838 80.2171C37.4941 80.2325 37.3281 80.2862 37.1542 80.3476C36.9486 80.4243 36.7194 80.5011 36.419 80.5088C36.1818 80.5011 35.9447 80.4627 35.7154 80.4167C35.3123 80.3476 34.917 80.2785 34.4901 80.386C34.419 80.4013 34.3478 80.4243 34.2767 80.4474C34.1739 80.4704 34.0711 80.5011 33.9842 80.5241C33.8735 80.4704 33.7233 80.4397 33.5968 80.4167C33.5415 80.409 33.4941 80.3936 33.4545 80.386C33.0356 80.2785 32.6324 80.3476 32.2372 80.4167C32 80.4627 31.7628 80.5011 31.5257 80.5088C31.2253 80.5011 31.004 80.4243 30.7905 80.3476C30.6166 80.2862 30.4585 80.2325 30.2609 80.2171C29.7708 80.1864 29.3834 80.3783 28.9881 80.6009L28.9802 80.7621C29.3834 80.5395 29.7708 80.3322 30.253 80.3629C30.4269 80.3706 30.585 80.432 30.751 80.4857C30.9644 80.5625 31.2016 80.6469 31.5257 80.6469C31.7787 80.6469 32.0158 80.6009 32.2609 80.5625C32.6482 80.4934 33.0277 80.4243 33.4229 80.5241C33.4625 80.5395 33.5178 80.5471 33.5731 80.5548C33.6996 80.5779 33.8498 80.6086 33.9447 80.6623L33.9842 80.67C34.0949 80.6469 34.1976 80.6162 34.3162 80.5855C34.3794 80.5625 34.4506 80.5471 34.5217 80.5241C34.917 80.4243 35.3043 80.4934 35.6917 80.5625C35.9289 80.6009 36.166 80.6469 36.419 80.6469C36.7431 80.6469 36.9802 80.5625 37.2016 80.4857C37.3597 80.432 37.5178 80.3706 37.6917 80.3629C38.1976 80.3246 38.6008 80.5548 39.0198 80.7928ZM39.004 80.1787C39.004 80.125 38.996 80.0636 38.996 80.0099C38.5929 79.7796 38.1897 79.58 37.6838 79.6107C37.4941 79.6261 37.3281 79.6798 37.1542 79.7412C36.9486 79.818 36.7194 79.8947 36.419 79.9024C36.1818 79.8947 35.9447 79.8564 35.7154 79.8103C35.3123 79.7412 34.917 79.6722 34.4901 79.7796C34.419 79.795 34.3478 79.818 34.2767 79.841C34.1739 79.864 34.0711 79.8947 33.9842 79.9101C33.8735 79.864 33.7233 79.8333 33.5968 79.8103C33.5415 79.795 33.4941 79.7873 33.4545 79.7796C33.0356 79.6722 32.6324 79.7412 32.2372 79.8103C32 79.8564 31.7628 79.8947 31.5257 79.9024C31.2253 79.8947 31.004 79.818 30.7905 79.7412C30.6166 79.6798 30.4585 79.6261 30.2609 79.6107C29.7787 79.58 29.3913 79.7643 29.004 79.9792V80.0099C29.004 80.0559 28.996 80.102 28.996 80.148C29.3913 79.9254 29.7787 79.7259 30.253 79.7566C30.4269 79.7643 30.585 79.818 30.751 79.8794C30.9644 79.9561 31.2016 80.0406 31.5257 80.0406C31.7787 80.0406 32.0158 79.9945 32.2609 79.9561C32.6482 79.8871 33.0277 79.818 33.4229 79.9178C33.4625 79.9254 33.5178 79.9408 33.5731 79.9485C33.6996 79.9715 33.8498 80.0022 33.9447 80.0559H33.9842C34.0949 80.0406 34.1976 80.0099 34.3162 79.9792C34.3794 79.9561 34.4506 79.9331 34.5217 79.9178C34.917 79.818 35.3043 79.8871 35.6917 79.9561C35.9289 79.9945 36.166 80.0406 36.419 80.0406C36.7431 80.0406 36.9802 79.9561 37.2016 79.8794C37.3597 79.818 37.5178 79.7643 37.6917 79.7566C38.1897 79.7182 38.585 79.9408 39.004 80.1787Z" fill="#FEFEFE"/>
<path d="M30.5771 75.6349V75.1129H30.6798V75.3432L30.8933 75.1129H31.0277L30.8379 75.3202L31.0356 75.6349H30.9012L30.7668 75.3893L30.6798 75.4814V75.6349H30.5771ZM31.5494 75.6349H31.4387L31.3992 75.5197H31.1937L31.1462 75.6349H31.0435L31.2411 75.1129H31.3439L31.5494 75.6349ZM31.3597 75.4276L31.2885 75.2357L31.2253 75.4276H31.3597ZM31.6047 75.1129H31.8103C31.8498 75.1129 31.8814 75.1129 31.9051 75.1129C31.9209 75.1206 31.9368 75.1283 31.9526 75.136C31.9684 75.1513 31.9842 75.1667 31.9921 75.182C32.0079 75.1974 32.0079 75.2204 32.0079 75.2434C32.0079 75.2664 32.0079 75.2895 31.9921 75.3125C31.9763 75.3355 31.9605 75.3509 31.9368 75.3586C31.9684 75.3662 31.9921 75.3816 32.0079 75.4046C32.0237 75.4276 32.0395 75.4583 32.0395 75.4814C32.0395 75.5121 32.0316 75.5351 32.0158 75.5581C32.0079 75.5811 31.9921 75.5965 31.9763 75.6118C31.9526 75.6195 31.9368 75.6349 31.9051 75.6349C31.8893 75.6349 31.8498 75.6349 31.7787 75.6349H31.6047V75.1129ZM31.7075 75.1974V75.3202H31.7787C31.8182 75.3202 31.8419 75.3202 31.8498 75.3202C31.8735 75.3202 31.8814 75.3125 31.8972 75.2971C31.9051 75.2895 31.913 75.2741 31.913 75.2588C31.913 75.2434 31.9051 75.2281 31.8972 75.2204C31.8893 75.2127 31.8735 75.205 31.8577 75.1974C31.8498 75.1974 31.8182 75.1974 31.7708 75.1974H31.7075ZM31.7075 75.4046V75.5504H31.8103C31.8419 75.5504 31.8656 75.5504 31.8735 75.5428C31.8893 75.5428 31.9051 75.5351 31.913 75.5274C31.9209 75.5121 31.9289 75.4967 31.9289 75.4814C31.9289 75.466 31.9289 75.4507 31.9209 75.443C31.913 75.4276 31.8972 75.42 31.8893 75.4123C31.8735 75.4123 31.8419 75.4046 31.7945 75.4046H31.7075ZM32.1186 75.6349V75.5351H32.2213V75.6349H32.1186ZM32.6324 75.6349V75.1974H32.4822V75.1129H32.8854V75.1974H32.7352V75.6349H32.6324ZM33.3597 75.6349H33.249L33.2095 75.5197H33.004L32.9565 75.6349H32.8538L33.0514 75.1129H33.1621L33.3597 75.6349ZM33.1779 75.4276L33.1067 75.2357L33.0356 75.4276H33.1779ZM33.3913 75.466L33.4941 75.4583C33.4941 75.489 33.5099 75.5197 33.5257 75.5351C33.5494 75.5504 33.5731 75.5581 33.6047 75.5581C33.6364 75.5581 33.6601 75.5504 33.6759 75.5351C33.6917 75.5197 33.6996 75.5044 33.6996 75.489C33.6996 75.4737 33.6996 75.466 33.6917 75.4507C33.6838 75.443 33.6759 75.4353 33.6522 75.4276C33.6443 75.4276 33.6126 75.42 33.5731 75.4046C33.5178 75.3969 33.4783 75.3739 33.4545 75.3586C33.4229 75.3279 33.4071 75.2895 33.4071 75.2511C33.4071 75.2204 33.415 75.1974 33.4308 75.1743C33.4466 75.1513 33.4704 75.136 33.4941 75.1206C33.5257 75.1053 33.5573 75.1053 33.5968 75.1053C33.6601 75.1053 33.7075 75.1129 33.7391 75.1436C33.7708 75.1743 33.7866 75.2127 33.7945 75.2664H33.6917C33.6838 75.2357 33.6759 75.2204 33.6601 75.205C33.6443 75.1974 33.6206 75.1897 33.5968 75.1897C33.5652 75.1897 33.5415 75.1974 33.5257 75.2127C33.5178 75.2204 33.5099 75.2281 33.5099 75.2434C33.5099 75.2511 33.5178 75.2664 33.5257 75.2741C33.5336 75.2818 33.5652 75.2971 33.6206 75.3125C33.668 75.3202 33.7075 75.3355 33.7312 75.3509C33.7549 75.3586 33.7708 75.3816 33.7866 75.4046C33.8024 75.42 33.8103 75.4507 33.8103 75.4814C33.8103 75.5121 33.8024 75.5428 33.7787 75.5735C33.7628 75.5965 33.7391 75.6195 33.7154 75.6272C33.6838 75.6425 33.6443 75.6502 33.6047 75.6502C33.5336 75.6502 33.4862 75.6349 33.4545 75.6042C33.415 75.5735 33.3992 75.5274 33.3913 75.466ZM33.8893 75.6349V75.1129H33.9921V75.6349H33.8893ZM34.0949 75.6349V75.1129H34.1976V75.3432L34.4032 75.1129H34.5455L34.3557 75.3202L34.5534 75.6349H34.419L34.2846 75.3893L34.1976 75.4814V75.6349H34.0949ZM34.6087 75.6349V75.1129H34.7589L34.8538 75.4737L34.9407 75.1129H35.0988V75.6349H35.004V75.2204L34.9012 75.6349H34.8063L34.7036 75.2204V75.6349H34.6087ZM35.6601 75.6349H35.5494L35.5099 75.5197H35.3043L35.2569 75.6349H35.1542L35.3518 75.1129H35.4625L35.6601 75.6349ZM35.4704 75.4276L35.3992 75.2357L35.336 75.4276H35.4704ZM35.7233 75.6349V75.1129H35.8261V75.5504H36.0791V75.6349H35.7233ZM36.6166 75.6349H36.5059L36.4585 75.5197H36.253L36.2134 75.6349H36.1028L36.3004 75.1129H36.4111L36.6166 75.6349ZM36.4269 75.4276L36.3557 75.2357L36.2846 75.4276H36.4269ZM36.7352 75.6349V75.42L36.5534 75.1129H36.6719L36.7905 75.3202L36.9091 75.1129H37.0277L36.8458 75.42V75.6349H36.7352ZM37.4783 75.6349H37.3676L37.3202 75.5197H37.1146L37.0751 75.6349H36.9644L37.1621 75.1129H37.2727L37.4783 75.6349ZM37.2885 75.4276L37.2174 75.2357L37.1462 75.4276H37.2885Z" fill="#332C2B"/>
<path fill-rule="evenodd" clip-rule="evenodd" d="M33.9447 84.1009C33.6126 84.4923 33.3439 84.5844 33.0751 84.5691C32.5929 84.5537 32.5059 84.3542 32.253 84.2007C32.3241 84.17 32.3478 84.1546 32.4269 84.1239C32.1028 84.1162 32 83.9857 31.913 83.8936C31.9842 83.8629 32.0553 83.8399 32.1186 83.8092C31.8893 83.6787 31.6759 83.5636 31.5731 83.318C31.7075 83.318 31.7391 83.3333 31.8419 83.318C31.7233 83.1568 31.5652 82.9803 31.5178 82.7577C31.6047 82.7884 31.7233 82.7884 31.8024 82.773C31.6601 82.3662 31.668 82.0899 31.7787 81.9057C31.8577 81.7752 32 81.6754 32.1423 81.6371C32.3004 81.5987 32.4427 81.6371 32.5059 81.7292C32.585 81.8597 32.5296 82.1053 32.3874 82.159C32.3083 82.1897 32.2213 82.1667 32.1186 82.1206C32.0791 82.3893 32.1186 82.6195 32.2372 82.6963C32.2688 82.7193 32.5692 82.9572 32.6245 82.9265C33.1937 83.2796 33.4545 83.4024 34.0237 83.7478C34 83.9013 33.9605 83.9397 33.9447 84.1009Z" fill="#332C2B"/>
<path fill-rule="evenodd" clip-rule="evenodd" d="M32.4427 84.2083C32.6324 84.4232 33.0593 84.6382 33.4625 84.4386C33.6285 84.3542 33.7708 84.216 33.8893 84.0702C33.8972 84.0164 33.913 83.9627 33.9289 83.909C33.9447 83.8629 33.9526 83.8246 33.9605 83.7785C33.5178 83.5099 33.0593 83.2566 32.6087 82.9879C32.5375 82.9879 32.4348 82.9112 32.3874 82.8805C32.3478 82.8498 32.3083 82.8268 32.2688 82.7961C32.253 82.7807 32.2292 82.7654 32.2134 82.75C31.9526 82.5735 31.9842 81.875 32.1344 81.9211C32.1502 82.0439 32.2292 82.0822 32.3083 82.0746C32.4901 82.0515 32.5455 81.7906 32.3399 81.7368C32.2292 81.7061 32.0791 81.7292 31.9921 81.8136C31.7154 82.0976 31.8103 82.5811 31.9763 82.9112C31.8814 82.9265 31.7628 82.8882 31.668 82.8728C31.7391 83.0647 31.8735 83.2259 32.0237 83.364C31.9209 83.3871 31.8814 83.3794 31.7628 83.3717C31.9209 83.6404 32.1265 83.7094 32.3636 83.7939C32.2846 83.8476 32.253 83.8629 32.1265 83.909C32.2846 84.0779 32.6719 84.0625 32.7115 84.0625C32.6798 84.17 32.5929 84.1853 32.4427 84.2083Z" fill="#FFF000"/>
<path fill-rule="evenodd" clip-rule="evenodd" d="M33.8656 83.2719C33.3518 82.3816 32.751 82.9035 32.1028 82.5121C32.0711 82.6886 32.1107 82.8958 32.2134 83.0417C32.1581 83.1722 32.2609 83.4101 32.4585 83.5175C32.4111 83.7632 32.664 83.8783 32.7747 83.9013C33.0435 84.5154 33.5415 83.9397 33.913 83.8553C33.8893 83.6864 33.8814 83.4408 33.8656 83.2719Z" fill="#332C2B"/>
<path fill-rule="evenodd" clip-rule="evenodd" d="M33.8498 83.8169C33.8419 83.7018 33.834 83.5943 33.8261 83.4792C33.747 83.5636 33.6601 83.5943 33.5889 83.5943C33.4704 83.5943 33.3439 83.4868 33.3676 83.3487C33.3913 83.2336 33.5494 83.1645 33.5889 83.2566C33.5415 83.2412 33.502 83.2566 33.4783 83.2873C33.3992 83.3794 33.4704 83.5252 33.5889 83.5252C33.7708 83.5252 33.8261 83.3103 33.7391 83.1798C33.6917 83.1107 33.668 83.08 33.6206 83.034C33.1937 82.5811 32.7036 82.8882 32.1502 82.6042C32.1581 82.9035 32.2609 83.0263 32.5375 83.08C32.6719 83.1031 32.8063 83.1031 32.9249 83.08C32.9486 83.1798 32.6245 83.1722 32.5217 83.1491C32.4348 83.1338 32.3478 83.1031 32.2688 83.057C32.2292 83.2412 32.4269 83.4792 32.6403 83.5022C32.7826 83.5252 32.917 83.5175 33.0277 83.5022C33.0514 83.6096 32.7352 83.5866 32.6245 83.5713C32.5929 83.5636 32.5534 83.5482 32.5138 83.5406C32.4822 83.7478 32.6798 83.8169 32.8379 83.8169C32.9802 83.8246 33.1146 83.7939 33.2253 83.7555C33.2727 83.8399 32.9407 83.8936 32.8379 83.8936C32.8854 83.9934 32.9565 84.0932 33.0672 84.1162C33.2095 84.1469 33.3913 84.0395 33.5099 83.9781C33.6126 83.9167 33.7312 83.8476 33.8498 83.8169Z" fill="#FFF000"/>
<path fill-rule="evenodd" clip-rule="evenodd" d="M34.0316 84.1009C34.3636 84.4923 34.6324 84.5844 34.9012 84.5691C35.3755 84.5537 35.4704 84.3542 35.7233 84.2007C35.6522 84.17 35.6285 84.1546 35.5494 84.1239C35.8735 84.1162 35.9763 83.9857 36.0632 83.8936C35.9921 83.8629 35.9209 83.8399 35.8577 83.8092C36.087 83.6787 36.3004 83.5636 36.4032 83.318C36.2688 83.318 36.2372 83.3333 36.1344 83.318C36.253 83.1568 36.4111 82.9803 36.4585 82.7577C36.3715 82.7884 36.253 82.7884 36.1739 82.773C36.3162 82.3662 36.3083 82.0899 36.1976 81.9057C36.1186 81.7752 35.9763 81.6754 35.834 81.6371C35.6759 81.5987 35.5336 81.6371 35.4704 81.7292C35.3913 81.8597 35.4466 82.1053 35.5889 82.159C35.668 82.1897 35.7549 82.1667 35.8577 82.1206C35.8972 82.3893 35.8577 82.6195 35.7391 82.6963C35.7075 82.7193 35.4071 82.9572 35.3518 82.9265C34.7826 83.2796 34.5217 83.4024 33.9526 83.7478C33.9763 83.9013 34.0158 83.9397 34.0316 84.1009Z" fill="#332C2B"/>
<path fill-rule="evenodd" clip-rule="evenodd" d="M35.5336 84.2083C35.3439 84.4232 34.917 84.6382 34.5138 84.4386C34.3478 84.3542 34.2055 84.216 34.087 84.0702C34.0791 84.0164 34.0632 83.9627 34.0474 83.909C34.0316 83.8629 34.0237 83.8246 34.0158 83.7785C34.4585 83.5099 34.917 83.2566 35.3676 82.9879C35.4387 82.9879 35.5415 82.9112 35.5889 82.8805C35.6285 82.8498 35.668 82.8268 35.7075 82.7961C35.7233 82.7807 35.747 82.7654 35.7628 82.75C36.0237 82.5735 35.9921 81.875 35.8419 81.9211C35.8261 82.0439 35.747 82.0822 35.668 82.0746C35.4862 82.0515 35.4308 81.7906 35.6364 81.7368C35.747 81.7061 35.8972 81.7292 35.9842 81.8136C36.2609 82.0976 36.166 82.5811 36 82.9112C36.0949 82.9265 36.2134 82.8882 36.3083 82.8728C36.2372 83.0647 36.1028 83.2259 35.9526 83.364C36.0553 83.3871 36.0949 83.3794 36.2134 83.3717C36.0553 83.6404 35.8498 83.7094 35.6126 83.7939C35.6917 83.8476 35.7233 83.8629 35.8498 83.909C35.6917 84.0779 35.3043 84.0625 35.2648 84.0625C35.2964 84.17 35.3834 84.1853 35.5336 84.2083Z" fill="#FFF000"/>
<path fill-rule="evenodd" clip-rule="evenodd" d="M34.1107 83.2719C34.6245 82.3816 35.2253 82.9035 35.8735 82.5121C35.9051 82.6886 35.8577 82.8958 35.7628 83.0417C35.8182 83.1722 35.7154 83.4101 35.5178 83.5175C35.5652 83.7632 35.3123 83.8783 35.2016 83.9013C34.9328 84.5154 34.4348 83.9397 34.0632 83.8553C34.087 83.6864 34.0949 83.4408 34.1107 83.2719Z" fill="#332C2B"/>
<path fill-rule="evenodd" clip-rule="evenodd" d="M34.1265 83.8169C34.1344 83.7018 34.1423 83.5943 34.1502 83.4792C34.2292 83.5636 34.3162 83.5943 34.3874 83.5943C34.5059 83.5943 34.6324 83.4868 34.6087 83.3487C34.585 83.2336 34.4269 83.1645 34.3874 83.2566C34.4348 83.2412 34.4743 83.2566 34.498 83.2873C34.5771 83.3794 34.5059 83.5252 34.3874 83.5252C34.2055 83.5252 34.1502 83.3103 34.2372 83.1798C34.2767 83.1107 34.3083 83.08 34.3557 83.034C34.7826 82.5811 35.2727 82.8882 35.8261 82.6042C35.8182 82.9035 35.7154 83.0263 35.4387 83.08C35.3043 83.1031 35.17 83.1031 35.0514 83.08C35.0277 83.1798 35.3518 83.1722 35.4545 83.1491C35.5415 83.1338 35.6285 83.1031 35.7075 83.057C35.747 83.2412 35.5415 83.4792 35.336 83.5022C35.1937 83.5252 35.0593 83.5175 34.9486 83.5022C34.9249 83.6096 35.2411 83.5866 35.3518 83.5713C35.3834 83.5636 35.4229 83.5482 35.4625 83.5406C35.4941 83.7478 35.2964 83.8169 35.1383 83.8169C34.996 83.8246 34.8617 83.7939 34.751 83.7555C34.7036 83.8399 35.0277 83.8936 35.1383 83.8936C35.0909 83.9934 35.0198 84.0932 34.9091 84.1162C34.7668 84.1469 34.585 84.0395 34.4664 83.9781C34.3636 83.9167 34.2451 83.8476 34.1265 83.8169Z" fill="#FFF000"/>
<path fill-rule="evenodd" clip-rule="evenodd" d="M34.1897 76.1414C34 76.2029 33.8419 76.318 33.7866 76.5252V85.6206H34.1897C34.1897 82.4583 34.1897 79.2961 34.1897 76.1414Z" fill="#332C2B"/>
<path fill-rule="evenodd" clip-rule="evenodd" d="M34.1265 76.295C34.0553 76.4101 33.9684 76.5099 33.8498 76.5559V77.3158H34.1265V76.295ZM33.8498 77.3849V78.4978H34.1265V77.3849H33.8498ZM33.8498 78.5669V79.6798H34.1265V78.5669H33.8498ZM33.8498 79.7489V80.8618H34.1265V79.7489H33.8498ZM33.8498 80.9309V82.0439H34.1265V80.9309H33.8498ZM33.8498 82.1129V83.2259H34.1265V82.1129H33.8498ZM33.8498 83.295V84.4002H34.1265V83.295H33.8498ZM33.8498 84.477V85.5515H34.1265V84.477H33.8498Z" fill="#FFF000"/>
<path fill-rule="evenodd" clip-rule="evenodd" d="M30.0474 83.3257C30.4901 83.4715 30.7431 83.7785 31.004 84.0855C30.9723 84.3925 30.9328 84.6996 30.9012 84.9989C30 85.3213 30.332 84.17 29.4625 83.9474C29.6917 83.7862 29.9447 83.7632 30.2055 83.8322C30.2055 83.5943 30.1344 83.4485 30.0474 83.3257Z" fill="#332C2B"/>
<path fill-rule="evenodd" clip-rule="evenodd" d="M29.5968 83.932C29.8261 84.0241 29.9763 84.1853 30.1028 84.4156C30.1581 84.5154 30.1976 84.6228 30.253 84.7226C30.3004 84.7993 30.3478 84.8838 30.419 84.9375C30.5455 85.0296 30.7115 85.0066 30.8458 84.9605C30.8775 84.6765 30.917 84.3849 30.9486 84.1009C30.7115 83.8246 30.498 83.5866 30.1818 83.4408C30.2372 83.5636 30.2609 83.6864 30.2609 83.8322V83.909L30.1897 83.8936C29.9842 83.8322 29.7866 83.8399 29.5968 83.932Z" fill="#FFF000"/>
<path fill-rule="evenodd" clip-rule="evenodd" d="M37.9289 83.3257C37.4862 83.4715 37.2332 83.7785 36.9723 84.0855C37.004 84.3925 37.0435 84.6996 37.0751 84.9989C37.9763 85.3213 37.6443 84.17 38.5138 83.9474C38.2846 83.7862 38.0316 83.7632 37.7708 83.8322C37.7708 83.5943 37.8419 83.4485 37.9289 83.3257Z" fill="#332C2B"/>
<path fill-rule="evenodd" clip-rule="evenodd" d="M37.7945 83.4408C37.4783 83.5866 37.2648 83.8246 37.0277 84.1009C37.0593 84.3849 37.0988 84.6765 37.1304 84.9605C37.2648 85.0066 37.4308 85.0296 37.5573 84.9375C37.6285 84.8838 37.6759 84.7993 37.7233 84.7226C37.7787 84.6228 37.8261 84.5154 37.8735 84.4156C38 84.1853 38.1502 84.0241 38.3794 83.932C38.1897 83.8399 37.9921 83.8322 37.7866 83.8936L37.7154 83.909V83.8322C37.7154 83.6864 37.7391 83.5636 37.7945 83.4408Z" fill="#FFF000"/>
<path fill-rule="evenodd" clip-rule="evenodd" d="M37.7233 84.1623C36.9091 85.4594 35.5968 86.3344 34.0711 86.3498C32.5138 86.3575 31.083 85.5055 30.253 84.1623L30.2213 84.1086L30.2688 84.0779C30.4901 83.9397 30.7194 83.8169 30.9407 83.6864L30.9881 83.6557L31.0119 83.7018C31.6126 84.5461 32.4585 85.2138 33.4862 85.375C33.9051 85.4441 34.3478 85.4287 34.7589 85.3213C35.668 85.0987 36.419 84.4693 36.9644 83.7018L36.9881 83.6557L37.0356 83.6864C37.2569 83.8169 37.4862 83.9397 37.7075 84.0779L37.7549 84.1086L37.7233 84.1623Z" fill="#332C2B"/>
<path fill-rule="evenodd" clip-rule="evenodd" d="M30.9723 83.7325C30.751 83.8706 30.5217 83.9934 30.3004 84.1316C31.1225 85.4671 32.5375 86.2961 34.0711 86.2884C35.5652 86.2807 36.8617 85.4211 37.6759 84.1316C37.4545 83.9934 37.2253 83.8706 37.004 83.7325C36.4506 84.5154 35.6996 85.1447 34.7747 85.3827C34.3557 85.4825 33.9051 85.5055 33.4783 85.4364C32.4348 85.2752 31.581 84.5921 30.9723 83.7325Z" fill="#FFF000"/>
<path d="M30.8459 84.3465L30.9012 84.3925C30.8775 84.4156 30.8696 84.4309 30.8696 84.4463C30.8696 84.4693 30.8775 84.4846 30.8854 84.5C30.9012 84.5154 30.917 84.5307 30.9328 84.5307C30.9486 84.5307 30.9644 84.5307 30.9802 84.5154C30.9881 84.5154 30.9881 84.5077 30.9881 84.5C30.996 84.4923 30.9881 84.477 30.9881 84.4693C30.9881 84.4616 30.9802 84.4386 30.9644 84.4156C30.9486 84.3772 30.9407 84.3465 30.9407 84.3235C30.9486 84.2928 30.9565 84.2697 30.9802 84.2467C30.996 84.239 31.0198 84.2314 31.0356 84.2237C31.0593 84.2237 31.0751 84.2237 31.0988 84.2314C31.1146 84.239 31.1383 84.2544 31.1542 84.2774C31.1858 84.3081 31.1937 84.3465 31.1937 84.3772C31.1937 84.4079 31.1779 84.4309 31.1462 84.4539L31.0988 84.4079C31.1146 84.3925 31.1225 84.3772 31.1225 84.3618C31.1225 84.3465 31.1146 84.3311 31.0988 84.3158C31.0909 84.3004 31.0751 84.2928 31.0593 84.2928C31.0514 84.2851 31.0435 84.2928 31.0356 84.3004C31.0277 84.3004 31.0198 84.3081 31.0198 84.3235C31.0198 84.3311 31.0277 84.3542 31.0435 84.3849C31.0593 84.4232 31.0672 84.4463 31.0672 84.4693C31.0751 84.4846 31.0751 84.5 31.0672 84.523C31.0593 84.5384 31.0435 84.5537 31.0277 84.5768C31.004 84.5844 30.9881 84.5998 30.9644 84.5998C30.9407 84.6075 30.917 84.5998 30.8933 84.5921C30.8775 84.5844 30.8538 84.5691 30.8379 84.5461C30.8063 84.5077 30.7905 84.477 30.7984 84.4463C30.7984 84.4079 30.8142 84.3772 30.8459 84.3465ZM31.2648 84.4156L31.3123 84.4616L31.1542 84.6151C31.1304 84.6382 31.1146 84.6535 31.1067 84.6612C31.0988 84.6765 31.0988 84.6919 31.0988 84.7072C31.0988 84.7226 31.1067 84.7379 31.1225 84.7533C31.1304 84.761 31.1462 84.7686 31.1621 84.7763C31.1779 84.7763 31.1858 84.7686 31.2016 84.761C31.2095 84.7533 31.2253 84.7379 31.249 84.7149L31.415 84.5614L31.4625 84.6151L31.3123 84.761C31.2727 84.7917 31.249 84.8147 31.2332 84.83C31.2174 84.8377 31.2016 84.8454 31.1779 84.8454C31.1621 84.8454 31.1462 84.8454 31.1304 84.8377C31.1067 84.83 31.0909 84.8224 31.0672 84.7993C31.0435 84.7763 31.0356 84.7533 31.0277 84.7379C31.0198 84.7149 31.0198 84.6996 31.0198 84.6842C31.0277 84.6612 31.0277 84.6458 31.0435 84.6382C31.0514 84.6151 31.0751 84.5921 31.1067 84.5614L31.2648 84.4156ZM31.2253 84.9452L31.502 84.6458L31.5494 84.6996L31.4308 84.83L31.6601 84.7917L31.7312 84.8607L31.5257 84.8838L31.4704 85.1601L31.3992 85.0987L31.4545 84.8914L31.3676 84.9068L31.2806 84.9912L31.2253 84.9452ZM31.7549 85.375L31.6917 85.3213L31.7233 85.2368L31.6126 85.1447L31.5336 85.1985L31.4704 85.1524L31.834 84.9222L31.8893 84.9682L31.7549 85.375ZM31.747 85.1678L31.8024 85.0219L31.6759 85.1064L31.747 85.1678ZM31.7866 85.3904L32.0079 85.0526L32.1107 85.1217C32.1423 85.1447 32.166 85.1601 32.1739 85.1678C32.1897 85.1831 32.1976 85.2061 32.1976 85.2292C32.1976 85.2522 32.1897 85.2829 32.1739 85.3059C32.1581 85.3289 32.1423 85.3443 32.1265 85.352C32.1107 85.3596 32.0949 85.3673 32.0791 85.3673C32.0632 85.3673 32.0553 85.3673 32.0395 85.3673C32.0237 85.3597 32 85.3443 31.9763 85.3289L31.9368 85.3059L31.8498 85.4287L31.7866 85.3904ZM32.0316 85.1524L31.9684 85.2445L32.0079 85.2675C32.0316 85.2829 32.0474 85.2906 32.0553 85.2906C32.0632 85.2982 32.0791 85.2906 32.087 85.2906C32.0949 85.2829 32.1028 85.2752 32.1107 85.2675C32.1186 85.2522 32.1186 85.2445 32.1186 85.2292C32.1186 85.2215 32.1107 85.2061 32.1028 85.1985C32.1028 85.1908 32.087 85.1831 32.0632 85.1678L32.0316 85.1524ZM32.2688 85.2138L32.332 85.2522L32.2292 85.4441C32.2134 85.4671 32.2055 85.4901 32.1976 85.4978C32.1897 85.5132 32.1897 85.5285 32.1976 85.5439C32.2055 85.5592 32.2134 85.5746 32.2292 85.5822C32.253 85.5899 32.2688 85.5976 32.2846 85.5899C32.2925 85.5899 32.3083 85.5822 32.3162 85.5669C32.3241 85.5592 32.332 85.5362 32.3478 85.5132L32.4585 85.3213L32.5217 85.352L32.419 85.5362C32.3953 85.5822 32.3794 85.6053 32.3636 85.6206C32.3478 85.636 32.3399 85.6513 32.3241 85.659C32.3083 85.659 32.2846 85.6667 32.2688 85.6667C32.2451 85.6667 32.2292 85.659 32.1976 85.6436C32.1739 85.6283 32.1502 85.6129 32.1423 85.5899C32.1265 85.5746 32.1186 85.5592 32.1186 85.5439C32.1186 85.5285 32.1186 85.5132 32.1265 85.4978C32.1344 85.4748 32.1423 85.4441 32.166 85.4057L32.2688 85.2138ZM32.3953 85.7281L32.5534 85.3597L32.6957 85.4211C32.7273 85.4364 32.751 85.4518 32.7668 85.4671C32.7826 85.4748 32.7905 85.4978 32.7905 85.5132C32.7905 85.5362 32.7905 85.5592 32.7826 85.5822C32.7668 85.6053 32.751 85.6283 32.7273 85.636C32.7036 85.6513 32.6798 85.6513 32.6482 85.6436C32.6561 85.659 32.664 85.6743 32.6719 85.6897C32.6719 85.705 32.6798 85.7281 32.6798 85.7664L32.6957 85.8509L32.6087 85.8202L32.6008 85.7204C32.5929 85.682 32.5929 85.659 32.585 85.6513C32.585 85.6436 32.5771 85.636 32.5771 85.6283C32.5692 85.6206 32.5534 85.6129 32.5375 85.6129L32.5296 85.6053L32.4585 85.7588L32.3953 85.7281ZM32.5534 85.5439L32.6008 85.5669C32.6324 85.5822 32.6561 85.5899 32.664 85.5899C32.6719 85.5899 32.6798 85.5822 32.6877 85.5822C32.6957 85.5746 32.7036 85.5669 32.7115 85.5515C32.7115 85.5439 32.7115 85.5285 32.7115 85.5208C32.7115 85.5132 32.7036 85.5055 32.6957 85.4978C32.6877 85.4901 32.6719 85.4825 32.6482 85.4748L32.5929 85.4518L32.5534 85.5439ZM33.0356 85.9583L32.9644 85.9353L32.9565 85.8432L32.8221 85.7971L32.7668 85.8739L32.6957 85.8509L32.9486 85.5132L33.0198 85.5362L33.0356 85.9583ZM32.9565 85.7664V85.6129L32.8617 85.7434L32.9565 85.7664ZM33.2016 85.9967L33.2648 85.6053L33.336 85.6129L33.4387 85.9046L33.4862 85.636L33.5494 85.6513L33.4783 86.0428L33.4071 86.0274L33.3123 85.7511L33.2648 86.0044L33.2016 85.9967ZM33.7312 85.9123L33.7391 85.8509L33.8972 85.8586L33.8814 86.0197C33.8656 86.0351 33.8419 86.0504 33.8103 86.0581C33.7866 86.0658 33.7549 86.0735 33.7233 86.0658C33.6838 86.0658 33.6522 86.0504 33.6285 86.0351C33.6047 86.0121 33.581 85.989 33.5731 85.9507C33.5573 85.92 33.5573 85.8816 33.5573 85.8432C33.5652 85.8048 33.5731 85.7664 33.5968 85.7357C33.6126 85.705 33.6364 85.682 33.668 85.6667C33.6917 85.659 33.7233 85.6513 33.7549 85.659C33.8024 85.659 33.834 85.6743 33.8577 85.6974C33.8814 85.7204 33.8972 85.7511 33.8972 85.7895L33.8261 85.7971C33.8182 85.7741 33.8103 85.7588 33.8024 85.7434C33.7866 85.7357 33.7708 85.7281 33.747 85.7281C33.7154 85.7204 33.6917 85.7357 33.6759 85.7511C33.6522 85.7741 33.6364 85.8048 33.6364 85.8509C33.6285 85.8969 33.6364 85.9353 33.6522 85.9583C33.668 85.9814 33.6917 85.9967 33.7233 85.9967C33.7391 85.9967 33.7549 85.9967 33.7708 85.9967C33.7866 85.989 33.8024 85.9814 33.8103 85.9737L33.8182 85.92L33.7312 85.9123ZM34.2688 86.0581H34.1897L34.1581 85.9737H34.0158L33.9842 86.0658L33.913 86.0735L34.0316 85.6667H34.1107L34.2688 86.0581ZM34.1344 85.9046L34.0791 85.7588L34.0316 85.9123L34.1344 85.9046ZM34.253 85.659L34.3794 85.6436C34.4111 85.636 34.4348 85.636 34.4506 85.6436C34.4743 85.6436 34.4901 85.6513 34.5138 85.6667C34.5296 85.682 34.5455 85.705 34.5534 85.7281C34.5613 85.7511 34.5692 85.7818 34.5771 85.8202C34.585 85.8509 34.585 85.8816 34.5771 85.9046C34.5771 85.9353 34.5613 85.9583 34.5534 85.9814C34.5375 85.9967 34.5217 86.0121 34.5059 86.0197C34.4901 86.0274 34.4664 86.0351 34.4427 86.0351L34.3083 86.0581L34.253 85.659ZM34.332 85.7204L34.3715 85.9814L34.4269 85.9737C34.4427 85.966 34.4585 85.966 34.4664 85.9583C34.4743 85.9583 34.4901 85.9507 34.4901 85.943C34.498 85.9353 34.5059 85.92 34.5059 85.8969C34.5059 85.8816 34.5059 85.8586 34.5059 85.8279C34.498 85.7971 34.4901 85.7741 34.4822 85.7588C34.4822 85.7434 34.4664 85.7281 34.4585 85.7204C34.4506 85.7127 34.4348 85.7127 34.4269 85.7127C34.4111 85.705 34.3953 85.7127 34.3636 85.7127L34.332 85.7204ZM34.9802 85.9276L34.9012 85.9507L34.8459 85.8662L34.7115 85.9046L34.7036 85.9967L34.6324 86.0121L34.664 85.5976L34.7431 85.5746L34.9802 85.9276ZM34.8142 85.8125L34.7273 85.6743L34.7115 85.8355L34.8142 85.8125ZM34.8854 85.5439L34.9486 85.5208L35.0198 85.7281C35.0356 85.7588 35.0435 85.7818 35.0514 85.7895C35.0593 85.8048 35.0672 85.8125 35.083 85.8202C35.0988 85.8202 35.1146 85.8202 35.1304 85.8125C35.1542 85.8125 35.1621 85.7972 35.17 85.7895C35.1779 85.7741 35.1779 85.7588 35.1779 85.7511C35.1779 85.7357 35.17 85.7127 35.1621 85.682L35.083 85.4748L35.1542 85.4518L35.2253 85.6513C35.2411 85.6974 35.249 85.7281 35.249 85.7511C35.2569 85.7664 35.2569 85.7895 35.249 85.8048C35.2411 85.8202 35.2332 85.8355 35.2174 85.8432C35.2016 85.8586 35.1858 85.8739 35.1542 85.8816C35.1225 85.8893 35.0988 85.8969 35.083 85.8893C35.0593 85.8893 35.0435 85.8816 35.0277 85.8739C35.0119 85.8662 35.004 85.8509 34.996 85.8355C34.9802 85.8202 34.9723 85.7895 34.9565 85.7434L34.8854 85.5439ZM35.3597 85.7971L35.1937 85.4364L35.2569 85.4057L35.502 85.5899L35.3913 85.352L35.4545 85.3213L35.6206 85.6897L35.5494 85.7127L35.3123 85.5362L35.4229 85.7741L35.3597 85.7971ZM35.8103 85.5899L35.5968 85.2522L35.6601 85.2138L35.9289 85.3673L35.7787 85.1371L35.8419 85.1064L36.0553 85.4441L35.9921 85.4825L35.7312 85.3366L35.8656 85.5515L35.8103 85.5899ZM36.166 85.1831L36.1265 85.1294L36.253 85.0373L36.3478 85.1678C36.3478 85.1831 36.332 85.2138 36.3241 85.2368C36.3083 85.2675 36.2846 85.2829 36.2609 85.3059C36.2292 85.3289 36.1976 85.3366 36.166 85.3443C36.1344 85.3443 36.1028 85.3366 36.0711 85.3213C36.0395 85.2982 36.0158 85.2752 35.9921 85.2445C35.9605 85.2138 35.9447 85.1831 35.9368 85.1447C35.9368 85.1064 35.9368 85.0757 35.9526 85.045C35.9605 85.0219 35.9763 84.9989 36.0079 84.9759C36.0395 84.9529 36.0791 84.9375 36.1107 84.9375C36.1423 84.9452 36.1739 84.9529 36.1976 84.9836L36.1502 85.0373C36.1344 85.0219 36.1186 85.0143 36.1028 85.0143C36.0791 85.0143 36.0632 85.0219 36.0474 85.0296C36.0237 85.0526 36.0079 85.0757 36.0079 85.1064C36.0079 85.1294 36.0237 85.1678 36.0474 85.1985C36.0791 85.2368 36.1028 85.2599 36.1344 85.2675C36.166 85.2752 36.1897 85.2675 36.2134 85.2522C36.2292 85.2445 36.2372 85.2292 36.2451 85.2138C36.253 85.2061 36.2609 85.1908 36.2609 85.1754L36.2292 85.1371L36.166 85.1831ZM36.2846 85.0296C36.2609 84.9989 36.2451 84.9682 36.2292 84.9452C36.2213 84.9221 36.2213 84.8991 36.2213 84.8838C36.2213 84.8607 36.2213 84.8377 36.2292 84.8224C36.2451 84.7993 36.2609 84.7763 36.2767 84.761C36.3162 84.7303 36.3636 84.7149 36.4111 84.7226C36.4585 84.7303 36.5059 84.7533 36.5534 84.807C36.5929 84.8531 36.6166 84.8991 36.6166 84.9452C36.6166 84.9989 36.5929 85.0373 36.5534 85.068C36.5138 85.1064 36.4743 85.1217 36.4269 85.114C36.3715 85.1064 36.332 85.0757 36.2846 85.0296ZM36.3399 84.9836C36.3715 85.0143 36.4032 85.0373 36.4348 85.0373C36.4585 85.045 36.4901 85.0373 36.5059 85.0219C36.5296 84.9989 36.5455 84.9759 36.5375 84.9452C36.5375 84.9145 36.5217 84.8838 36.4901 84.8531C36.4585 84.8147 36.4348 84.7993 36.4032 84.7917C36.3715 84.784 36.3478 84.7917 36.3241 84.8147C36.3004 84.83 36.2925 84.8531 36.2925 84.8838C36.2925 84.9145 36.3083 84.9452 36.3399 84.9836ZM36.7194 84.9145L36.4348 84.6382L36.5375 84.523C36.5613 84.5 36.585 84.4846 36.6008 84.477C36.6245 84.4693 36.6403 84.4693 36.664 84.4693C36.6798 84.477 36.7036 84.4846 36.7194 84.5077C36.7431 84.523 36.751 84.5461 36.7589 84.5691C36.7589 84.5998 36.751 84.6228 36.7352 84.6458C36.751 84.6458 36.7668 84.6458 36.7826 84.6458C36.7984 84.6458 36.8221 84.6535 36.8617 84.6612L36.9486 84.6842L36.8854 84.7456L36.7905 84.7226C36.751 84.7149 36.7273 84.7072 36.7194 84.7072C36.7036 84.7072 36.6957 84.7072 36.6877 84.7149C36.6798 84.7149 36.6719 84.7226 36.664 84.7303L36.6482 84.7456L36.7747 84.8607L36.7194 84.9145ZM36.6087 84.6996L36.6403 84.6612C36.664 84.6382 36.6798 84.6228 36.6877 84.6151C36.6877 84.6075 36.6877 84.5921 36.6877 84.5844C36.6798 84.5768 36.6798 84.5691 36.6719 84.5614C36.6561 84.5537 36.6482 84.5461 36.6403 84.5461C36.6324 84.5461 36.6166 84.5461 36.6087 84.5537C36.6008 84.5537 36.5929 84.5691 36.5692 84.5921L36.5296 84.6305L36.6087 84.6996ZM37.1779 84.4156L37.1304 84.477L37.0435 84.4386L36.9486 84.5461L36.996 84.6305L36.9486 84.6842L36.7273 84.3235L36.7747 84.2697L37.1779 84.4156ZM36.9723 84.4156L36.8221 84.3542L36.9091 84.4923L36.9723 84.4156Z" fill="#332C2B"/>
</svg>
