<svg width="20" height="20" viewBox="0 0 20 20" fill="none" xmlns="http://www.w3.org/2000/svg">
<path d="M7.63102 17.3095V14.7539C7.63101 14.1039 8.16094 13.5757 8.81752 13.5713H11.2226C11.8823 13.5713 12.4171 14.1008 12.4171 14.7539V14.7539V17.3174C12.4169 17.8693 12.8619 18.3204 13.4192 18.3333H15.0226C16.6209 18.3333 17.9167 17.0506 17.9167 15.4682V15.4682V8.19819C17.9081 7.57568 17.6129 6.99111 17.115 6.61085L11.6314 2.23774C10.6708 1.4763 9.30518 1.4763 8.34452 2.23774L2.88503 6.61879C2.38523 6.99751 2.0895 7.58304 2.08334 8.20612V15.4682C2.08334 17.0506 3.37907 18.3333 4.97744 18.3333H6.58081C7.15197 18.3333 7.61499 17.8749 7.61499 17.3095V17.3095" stroke="#575757" stroke-width="1.5" stroke-linecap="round" stroke-linejoin="round"/>
</svg>
