<svg width="256" height="306" viewBox="0 0 256 306" fill="none" xmlns="http://www.w3.org/2000/svg">
<path fill-rule="evenodd" clip-rule="evenodd" d="M219.831 250.028C213.972 255.437 207.324 259.38 200.451 263.099L200.338 263.211C193.014 267.042 185.577 270.31 178.141 273.803C169.915 277.634 161.915 281.69 154.141 286.31C145.915 291.155 138.141 296.676 130.93 302.986L128 305.465L125.07 302.986C117.859 296.676 110.085 291.155 101.859 286.31C94.0845 281.69 86.0845 277.634 77.8592 273.803C70.4225 270.31 62.9859 267.042 55.662 263.211L55.5493 263.099C48.6761 259.38 42.0282 255.437 36.169 250.028C29.1831 243.944 23.8873 236.845 19.9437 228.394C15.0986 217.803 12.7324 206.197 11.7183 194.704C10.3662 180.62 10.8169 166.535 11.1549 152.563C11.3803 145.352 11.7183 138.028 11.831 130.817C12.0563 123.155 12.0563 115.493 11.831 107.831C11.7183 100.62 11.3803 93.5211 10.7042 86.5352C9.69014 76.8451 7.32394 64.6761 2.02817 56.4507L0 53.2958L2.70423 50.8169C20.8451 34.1408 39.0986 17.5775 57.3521 1.12676L58.7042 0H60.3944C105.465 0 150.535 0 195.606 0H197.296L198.648 1.12676C216.901 17.5775 235.155 34.1408 253.296 50.8169L256 53.2958L253.972 56.4507C248.676 64.6761 246.31 76.8451 245.296 86.4225C244.62 93.5211 244.282 100.62 244.169 107.831C243.944 115.493 243.944 123.155 244.169 130.817C244.282 138.028 244.62 145.352 244.845 152.563C245.183 166.535 245.634 180.62 244.282 194.704C243.268 206.197 240.901 217.803 236.056 228.394C232.113 236.845 226.817 243.944 219.831 250.028ZM128 299.606C135.437 293.183 143.437 287.437 151.887 282.479C159.775 277.746 168 273.803 176.225 269.859C183.662 266.366 190.986 263.099 198.31 259.268C204.845 255.662 211.268 251.831 216.901 246.761C223.324 241.127 228.169 234.592 232 226.479C236.62 216.451 238.873 205.296 239.887 194.254C241.239 180.507 240.676 166.423 240.338 152.676C240.225 145.352 239.887 138.141 239.775 130.93C239.549 123.155 239.549 115.493 239.775 107.718C239.887 100.507 240.225 93.1831 240.901 85.9718C242.028 75.6056 244.507 62.9859 250.254 54.0845C232.113 37.4085 213.859 20.8451 195.606 4.39437C150.535 4.39437 105.465 4.39437 60.3944 4.39437C42.1408 20.8451 23.8873 37.4085 5.74648 54.0845C11.493 62.9859 13.9718 75.6056 15.0986 85.9718C15.7746 93.1831 16.1127 100.507 16.2254 107.718C16.4507 115.493 16.4507 123.155 16.2254 130.93C16.1127 138.141 15.7746 145.352 15.662 152.676C15.3239 166.423 14.7606 180.507 16.1127 194.254C17.1268 205.296 19.3803 216.451 24 226.479C27.831 234.592 32.6761 241.127 39.0986 246.761C44.7324 251.831 51.1549 255.662 57.6901 259.268C65.0141 263.099 72.338 266.366 79.7746 269.859C88 273.803 96.2254 277.746 104.113 282.479C112.563 287.437 120.563 293.183 128 299.606Z" fill="#F6B900"/>
<path fill-rule="evenodd" clip-rule="evenodd" d="M128 291.718C134.535 286.31 141.634 281.352 149.07 277.07C157.07 272.225 165.408 268.169 173.859 264.225C181.183 260.732 188.507 257.465 195.831 253.634C201.915 250.366 208 246.761 213.183 242.028C219.042 236.845 223.437 230.986 226.704 223.887C230.986 214.535 233.127 203.944 234.141 193.577C235.493 179.944 234.93 166.31 234.479 152.789C234.254 145.577 234.141 138.366 234.028 131.042C233.803 123.155 233.69 115.493 233.803 107.718C234.028 100.169 234.254 92.7324 235.155 85.2958C236.282 75.493 238.197 64.4507 242.817 55.4366C226.366 40.4507 209.915 25.4648 193.465 10.4789C149.859 10.4789 106.141 10.4789 62.5352 10.4789C46.0845 25.4648 29.6338 40.4507 13.1831 55.4366C17.8028 64.4507 19.7183 75.493 20.8451 85.2958C21.7465 92.7324 21.9718 100.169 22.1972 107.718C22.3099 115.493 22.1972 123.155 21.9718 131.042C21.8592 138.366 21.7465 145.577 21.5211 152.789C21.0704 166.31 20.507 179.944 21.8592 193.577C22.8732 203.944 25.0141 214.535 29.2958 223.887C32.5634 230.986 36.9578 236.845 42.8169 242.028C48 246.761 54.0845 250.366 60.169 253.634C67.493 257.465 74.8169 260.732 82.1409 264.225C90.5916 268.169 98.9296 272.225 106.93 277.07C114.366 281.352 121.465 286.31 128 291.718ZM128 287.437C134.085 282.479 140.62 278.085 147.38 274.141C155.493 269.408 163.944 265.127 172.507 261.183C179.718 257.803 187.155 254.535 194.254 250.704C200.225 247.549 205.972 244.056 211.042 239.549C216.451 234.704 220.62 229.07 223.662 222.535C227.831 213.408 229.859 203.155 230.761 193.352C232.113 179.831 231.549 166.31 231.099 152.901C230.873 145.69 230.761 138.366 230.648 131.155C230.423 123.268 230.31 115.493 230.423 107.606C230.648 100.056 230.986 92.507 231.775 84.9577C232.901 75.3803 234.704 65.1268 238.761 56.2253C223.211 42.0282 207.775 27.9437 192.225 13.8591C149.408 13.8591 106.592 13.8591 63.7747 13.8591C48.2254 27.9437 32.7887 42.0282 17.2394 56.2253C21.2958 65.1268 23.0986 75.3803 24.2254 84.9577C25.0141 92.507 25.3521 100.056 25.5775 107.606C25.6901 115.493 25.5775 123.268 25.3521 131.155C25.2394 138.366 25.1268 145.69 24.9014 152.901C24.4507 166.31 23.8873 179.831 25.2394 193.352C26.1409 203.155 28.169 213.408 32.338 222.535C35.3803 229.07 39.5493 234.704 44.9578 239.549C50.0282 244.056 55.7747 247.549 61.7465 250.704C68.8451 254.535 76.2817 257.803 83.493 261.183C92.0563 265.127 100.507 269.408 108.62 274.141C115.38 278.085 121.915 282.479 128 287.437Z" fill="#F6B900"/>
<path fill-rule="evenodd" clip-rule="evenodd" d="M128 289.239C134.423 284.169 141.183 279.887 148.056 275.944C156.169 271.437 164.507 267.38 173.07 263.549C180.282 260.507 187.718 257.352 194.817 253.746C200.901 250.592 206.873 247.324 211.944 242.93C212.62 242.366 213.408 241.69 214.084 241.127H202.028C199.099 242.366 195.831 242.028 192.789 241.127H192.676C176.225 258.254 154.366 269.408 129.465 269.634C103.887 269.859 80.338 258.817 62.8732 241.127H62.7606C59.6056 242.028 56.4507 242.366 53.5211 241.127H41.9155C42.5915 241.69 43.3803 242.366 44.0563 242.93C49.1267 247.324 55.0986 250.592 61.1831 253.746C68.2817 257.352 75.7183 260.507 82.9296 263.549C91.4929 267.38 99.831 271.437 107.944 275.944C114.817 279.887 121.577 284.169 128 289.239ZM147.493 241.127H134.31V243.944C137.352 243.718 140.282 243.155 143.099 242.366C144.676 242.028 146.141 241.577 147.493 241.127ZM121.127 243.944V241.127H108.056C111.211 242.141 114.366 242.93 117.746 243.493C118.873 243.718 120 243.831 121.127 243.944ZM218.479 236.394C220.958 233.352 223.099 229.972 224.901 226.254C228.394 219.268 230.31 211.493 231.549 203.606L231.437 203.718V203.831V203.944V204.056V204.169L231.324 204.282V204.394V204.507V204.62V204.732V204.845L231.211 204.958V205.07V205.183V205.296V205.408V205.521L231.099 205.634V205.746V205.859V205.972V206.085V206.197V206.31H230.986V206.423V206.535L219.944 187.155H190.648L200.225 204.169C202.817 202.254 205.746 200.789 208.901 199.662C210.028 199.324 211.155 199.662 211.944 200.563C212.62 201.465 212.62 202.704 211.944 203.718C210.592 205.746 209.803 207.662 209.352 209.803C214.423 209.127 219.155 210.254 223.549 213.408C224.338 213.972 224.789 214.986 224.563 216C224.338 217.014 223.662 217.803 222.648 218.028C217.803 219.38 214.986 222.197 212.732 226.254L218.479 236.394ZM231.662 202.366C231.887 201.014 232 199.549 232.113 198.085C232.676 193.69 232.901 189.07 233.014 184.563L232.901 184.676V184.789V184.901V185.014V185.127V185.239V185.352V185.465V185.577V185.69L232.789 185.803V185.915V186.028V186.141V186.254V186.366V186.479V186.592V186.704V186.817V186.93V187.042V187.155H222.986L231.662 202.366ZM233.014 184.451C233.127 176.451 232.901 168.225 232.676 160.225V160.789H208L221.521 184.451H233.014ZM228.394 157.972C220.958 154.254 213.746 150.986 205.183 151.549C204.394 151.549 203.718 151.662 202.93 151.775L206.535 157.972H228.394ZM200.338 152.338L200 152.451C196.958 153.239 193.915 154.366 190.873 155.155C186.704 156.394 182.648 156.958 178.366 156.958H178.254C176.676 156.958 175.099 156.845 173.521 156.732L174.197 157.972H203.493L200.338 152.338ZM170.141 156.282C164.394 155.606 158.761 154.479 152.901 154.028C148.507 153.577 144 153.577 139.606 154.592C138.254 154.817 137.014 155.155 135.662 155.493L134.31 155.831V157.972H171.155L170.141 156.282ZM134.31 160.789V184.451H156.958C158.986 184.225 161.127 183.662 163.268 182.648C163.268 182.197 163.38 181.634 163.38 181.07C162.141 181.183 160.901 180.958 159.775 180.507C154.592 178.479 152.789 170.704 155.493 166.085C155.493 166.085 155.493 165.972 155.606 165.972C158.084 162.141 162.93 161.465 167.099 162.479C171.042 163.606 174.761 166.31 176.901 169.915C179.38 174.197 179.493 179.493 178.592 184.451H186.141L172.732 160.789H134.31ZM134.31 187.155V190.197C135.887 188.958 137.577 187.944 139.493 187.155H134.31ZM134.31 229.07V238.31H154.366C167.887 231.887 178.93 221.07 187.38 208.901L187.831 208.113C188.169 207.324 188.732 206.873 189.521 206.648C190.31 206.535 190.986 206.648 191.662 207.099L192.563 207.662C193.352 208.113 194.028 208.563 194.704 208.901C195.831 207.775 196.958 206.761 198.084 205.746L187.606 187.155H181.408C181.408 187.155 181.521 187.155 181.521 187.268C182.535 188.169 182.986 189.408 182.761 190.761C182.084 193.803 180.845 196.282 179.268 198.648C179.944 198.873 180.62 199.324 181.07 200C181.746 201.014 181.859 202.254 181.408 203.38C179.718 207.437 177.127 210.028 173.972 212.282C174.197 212.62 174.423 213.07 174.535 213.634C174.761 214.761 174.423 215.887 173.634 216.789C172.282 218.254 171.155 219.493 169.352 220.62C168.676 220.958 168.113 221.296 167.437 221.521C167.324 222.535 166.761 223.437 165.746 224C164.282 225.014 162.93 226.141 161.465 227.268C156.845 230.986 152.789 232.225 146.93 232.451C142.197 232.789 138.141 231.549 134.31 229.07ZM205.859 238.31H216.563L211.268 228.958C209.69 232.113 208.225 235.718 205.859 238.31ZM121.127 238.31V229.07C117.408 231.549 113.352 232.789 108.62 232.451C102.761 232.225 98.7042 230.986 94.0845 227.268C92.6197 226.141 91.2676 225.014 89.6901 224C88.7887 223.437 88.2253 222.535 88 221.521C87.4366 221.296 86.7606 220.958 86.1972 220.62C84.3944 219.493 83.2676 218.254 81.9155 216.789C81.0141 215.887 80.7887 214.761 81.0141 213.634C81.1267 213.07 81.3521 212.62 81.5775 212.282C78.4225 210.028 75.7183 207.437 74.1408 203.38C73.6901 202.254 73.8028 201.014 74.4789 200C74.9296 199.324 75.4929 198.873 76.169 198.648C74.7042 196.282 73.3521 193.803 72.7887 190.761C72.4507 189.408 72.9014 188.169 73.9155 187.268C74.0282 187.155 74.0282 187.155 74.1408 187.155H69.4084L58.3662 206.648C59.2676 207.437 60.0563 208.113 60.8451 208.901C61.5211 208.563 62.1972 208.113 62.8732 207.662L63.8873 207.099C64.4507 206.648 65.2394 206.535 66.0282 206.648C66.7042 206.873 67.2676 207.324 67.7183 208.113L68.0563 208.901C76.6197 221.183 87.7746 232 101.183 238.31H121.127ZM44.9577 230.535L40.676 238.31H49.6901C47.662 236.169 46.3098 233.239 44.9577 230.535ZM98.5915 184.451H121.127V160.789H84.3944L81.0141 166.873C83.0422 164.845 85.6338 163.268 88.338 162.479H88.4507C92.507 161.465 97.4648 162.141 99.9436 165.972C99.9436 165.972 99.9436 166.085 100.056 166.085C102.761 170.704 100.958 178.479 95.7746 180.507C94.5352 180.958 93.2958 181.183 92.169 181.07C92.169 181.634 92.169 182.197 92.2817 182.648C94.4225 183.662 96.4507 184.225 98.5915 184.451ZM76.9577 173.972L71.0986 184.451H76.9577C76.2817 180.958 76.169 177.352 76.9577 173.972ZM121.127 190.197V187.155H116.056C117.859 187.944 119.549 188.958 121.127 190.197ZM121.127 157.972V155.606L120.225 155.493C118.535 155.155 116.845 154.93 115.155 154.592C110.761 153.577 106.366 153.577 101.972 154.028C96.9014 154.479 91.9436 155.38 86.9859 156.056L85.8591 157.972H121.127ZM83.831 156.394C81.4648 156.732 78.9859 156.958 76.6197 156.958H76.507C72.338 156.958 68.3944 156.394 64.338 155.38C61.7465 154.592 59.1549 153.69 56.5634 152.901L53.6338 157.972H82.9296L83.831 156.394ZM53.9718 152.225C52.507 151.887 51.1549 151.662 49.6901 151.549C41.1267 150.986 34.0282 154.366 26.5915 157.972H50.7042L53.9718 152.225ZM23.3239 159.662C23.0986 167.887 22.8732 176.225 22.9859 184.451H35.7183L49.1267 160.789H23.3239V159.662ZM22.9859 184.563C23.0986 189.07 23.3239 193.69 23.8873 198.085C24.7887 207.775 26.8169 217.69 31.0986 226.254C33.0141 230.31 35.3803 233.916 38.1972 237.296L43.6056 227.606C41.1267 222.873 38.1972 219.493 32.9014 218.028C31.8873 217.803 31.0986 217.014 30.9859 216C30.7606 214.986 31.0986 213.972 32 213.408C36.2817 210.254 41.1267 209.127 46.0845 209.803C45.7465 207.662 44.9577 205.746 43.4929 203.718C42.9296 202.704 42.9296 201.465 43.6056 200.563C44.2817 199.662 45.5211 199.324 46.5352 199.662C50.2535 200.901 53.5211 202.704 56.338 204.958L66.4789 187.155H37.1831L25.3521 208L25.2394 207.887V207.775V207.662V207.549V207.437H25.1267V207.324V207.211V207.099V206.986V206.873H25.0141V206.761V206.648V206.535V206.423V206.31L24.9014 206.197V206.085V205.972V205.859V205.746V205.634V205.521L24.7887 205.408V205.296V205.183V205.07V204.958V204.845V204.732V204.62L24.676 204.507V204.394V204.282V204.169V204.056V203.944L34.2535 187.155H23.2113V187.042V186.93V186.817V186.704V186.592V186.479V186.366V186.254V186.141V186.028V185.915V185.803L23.0986 185.69V185.577V185.465V185.352V185.239V185.127V185.014V184.901V184.789V184.676L22.9859 184.563ZM189.07 184.451L175.775 160.789H204.958L218.366 184.451H189.07ZM38.6479 184.451H68.0563L81.4648 160.789H52.169L38.6479 184.451Z" fill="#F6B900"/>
<path fill-rule="evenodd" clip-rule="evenodd" d="M232.676 154.254C223.887 149.859 215.549 145.69 204.845 146.254C196.169 146.817 190.085 151.662 178.366 151.662C164.732 151.437 152.225 146.479 138.479 149.408C137.127 149.746 135.662 150.085 134.31 150.423V143.549L134.535 143.437C135.887 142.986 137.352 142.648 138.817 142.085C147.042 139.944 155.155 141.408 163.268 142.986C168.113 143.775 173.07 144.789 178.366 144.789C185.127 144.789 190.085 142.986 194.592 141.296C197.972 140.169 201.239 138.817 204.845 138.704C215.324 137.803 223.775 142.761 232.451 147.831L232.338 144.451C223.775 139.268 215.324 134.873 204.732 135.549C200.789 135.887 197.296 137.014 193.69 138.366C189.408 139.944 184.563 141.634 178.366 141.746C173.408 141.634 168.451 140.845 163.718 139.831C155.268 138.366 147.042 136.789 138.254 139.155C136.901 139.38 135.662 139.831 134.31 140.282V130.479H134.535C135.887 129.915 137.352 129.465 138.817 129.127C147.042 126.986 155.155 128.451 163.268 129.915C168.113 130.704 173.07 131.718 178.366 131.718C185.127 131.718 190.085 129.915 194.592 128.338C197.972 126.986 201.239 125.859 204.845 125.634C215.099 124.845 223.324 129.577 232 134.648C232.225 140.732 232.451 146.817 232.676 153.014V154.254ZM134.31 127.324V119.324L134.535 119.211C135.887 118.873 137.352 118.423 138.817 118.085C147.042 115.944 155.155 117.408 163.268 118.761C168.113 119.775 173.07 120.563 178.366 120.676C185.127 120.676 190.085 118.873 194.592 117.296C197.972 115.944 201.239 114.817 204.845 114.479C215.099 113.803 223.324 118.423 231.887 123.493C231.887 122.366 231.887 121.014 231.887 119.887C223.437 115.155 215.211 110.648 204.732 111.549C200.789 111.662 197.296 113.014 193.69 114.254C189.408 115.944 184.563 117.634 178.366 117.634C173.408 117.634 168.451 116.62 163.718 115.831C155.268 114.254 147.042 112.789 138.254 115.155C136.901 115.38 135.662 115.831 134.31 116.169V106.817L232.113 105.69C232 108.507 232 111.211 232 113.69C231.887 119.549 231.887 125.296 231.887 131.042C223.549 126.085 215.211 121.915 204.732 122.479C200.789 122.817 197.296 124.056 193.69 125.296C189.408 126.986 184.563 128.563 178.366 128.789C173.408 128.563 168.451 127.775 163.718 126.761C155.268 125.296 147.042 123.831 138.254 126.197C136.901 126.423 135.662 126.873 134.31 127.324ZM121.127 150.31C119.324 149.972 117.634 149.746 116.282 149.408C102.648 146.479 90.1409 151.437 76.5071 151.662C64.7888 151.662 58.9296 146.817 50.0282 146.254C39.7747 145.69 31.7747 149.521 23.324 153.69V153.014C23.4367 151.099 23.4367 149.183 23.5493 147.155C31.8874 142.423 40 138.028 50.0282 138.704C53.6338 138.817 56.9014 140.169 60.3944 141.296C64.7888 142.986 69.7465 144.789 76.5071 144.789C81.8028 144.789 86.6479 143.775 91.831 142.986C99.831 141.408 107.718 139.944 115.944 142.085C116.845 142.423 117.972 142.648 119.099 142.761C119.775 142.873 120.451 142.986 121.127 143.211V150.31ZM23.662 144.563C23.7747 141.07 23.8874 137.577 24 134.197V133.972C32.2254 129.239 40.2254 124.958 50.0282 125.634C53.6338 125.859 56.9014 126.986 60.3944 128.338C64.7888 129.915 69.7465 131.718 76.5071 131.718C81.8028 131.718 86.6479 130.704 91.831 129.915C99.831 128.451 107.718 126.986 115.944 129.127C116.845 129.239 117.972 129.577 119.099 129.803C119.775 129.915 120.451 130.028 121.127 130.141V140.056C120.676 140.056 120.113 139.944 119.662 139.831C118.423 139.606 117.521 139.268 116.62 139.155C107.944 136.789 99.493 138.366 91.2676 139.831C86.4226 140.845 81.4648 141.634 76.5071 141.746C70.1972 141.634 65.6902 139.944 61.1831 138.366C57.5775 137.014 54.3099 135.887 50.1409 135.549C40 134.873 31.8874 138.93 23.662 143.775V144.563ZM24.1127 130.366C24.1127 124.845 24.1127 119.324 24 113.69C24 111.887 24 109.859 23.8874 108.056L121.127 106.93V115.944C120.676 115.831 120.113 115.718 119.662 115.606C118.423 115.493 117.521 115.268 116.62 115.155C107.944 112.789 99.493 114.254 91.2676 115.831C86.4226 116.62 81.4648 117.634 76.5071 117.634C70.1972 117.634 65.6902 115.944 61.1831 114.254C57.5775 113.014 54.3099 111.662 50.1409 111.549C40.1127 110.648 32.2254 114.592 24.1127 119.211C24.1127 120.563 24.1127 121.69 24.1127 122.817C32.2254 118.085 40.1127 113.803 50.0282 114.479C53.6338 114.817 56.9014 115.944 60.3944 117.296C64.7888 118.873 69.7465 120.676 76.5071 120.676C81.8028 120.563 86.6479 119.775 91.831 118.761C99.831 117.408 107.718 115.944 115.944 118.085C116.845 118.197 117.972 118.423 119.099 118.761C119.775 118.873 120.451 118.986 121.127 119.099V127.099C120.676 126.986 120.113 126.873 119.662 126.761C118.423 126.423 117.521 126.31 116.62 126.197C107.944 123.831 99.493 125.296 91.2676 126.761C86.4226 127.775 81.4648 128.563 76.5071 128.789C70.1972 128.563 65.6902 126.986 61.1831 125.296C57.5775 124.056 54.3099 122.817 50.1409 122.479C40.1127 121.915 32.1127 125.746 24.1127 130.366Z" fill="#F6B900"/>
<path fill-rule="evenodd" clip-rule="evenodd" d="M232 101.746C232.113 99.3803 232.225 97.0141 232.451 94.5352L134.31 62.0845V101.746H154.479V99.6056C154.479 96.2254 157.07 93.5211 160.225 93.5211C163.38 93.5211 165.972 96.2254 165.972 99.6056V101.746H194.028V93.5211H205.296V101.746H232ZM121.127 57.8028L85.0704 45.8592L75.831 53.7465L67.9436 49.0141L22.9859 88.1127C23.4366 92.6197 23.7746 97.2394 23.8873 101.746H50.1408V93.5211H61.6338V101.746H89.4648V99.6056C89.4648 96.2254 92.169 93.5211 95.2113 93.5211C98.3662 93.5211 100.958 96.2254 100.958 99.6056V101.746H121.127V57.8028Z" fill="#F6B900"/>
<path d="M56.7888 37.2958V26.1408H58.9296V30.9859L63.324 26.1408H66.1409L62.1972 30.5352L66.2535 37.2958H63.5493L60.7324 32L58.9296 34.0282V37.2958H56.7888ZM76.9578 37.2958H74.7042L73.9155 34.8169H69.6338L68.6197 37.2958H66.4789L70.5352 26.1408H72.6761L76.9578 37.2958ZM73.0141 32.9014L71.5493 28.7324L70.1972 32.9014H73.0141ZM78.0845 26.1408H82.3662C83.2676 26.1408 83.9437 26.1408 84.3944 26.1408C84.7324 26.2535 85.0704 26.4789 85.4085 26.5916C85.7465 26.9296 86.0845 27.2676 86.1972 27.6056C86.5352 27.9437 86.5352 28.3944 86.5352 28.8451C86.5352 29.4085 86.5352 29.8592 86.1972 30.4225C85.8592 30.8732 85.5212 31.2113 85.0704 31.3239C85.7465 31.5493 86.1972 31.8873 86.5352 32.338C86.8733 32.9014 87.2113 33.4648 87.2113 34.0282C87.2113 34.7042 86.9859 35.1549 86.6479 35.6056C86.5352 36.169 86.1972 36.507 85.8592 36.8451C85.4085 36.9578 85.0704 37.2958 84.3944 37.2958C84.0564 37.2958 83.2676 37.2958 81.8028 37.2958H78.0845V26.1408ZM80.2254 27.9437V30.5352H81.8028C82.5916 30.5352 83.0423 30.5352 83.2676 30.5352C83.7183 30.5352 83.9437 30.4225 84.2817 30.0845C84.3944 29.8592 84.5071 29.5211 84.5071 29.1831C84.5071 28.8451 84.3944 28.6197 84.2817 28.3944C84.0564 28.2817 83.7183 28.0563 83.3803 27.9437C83.2676 27.9437 82.5916 27.9437 81.5775 27.9437H80.2254ZM80.2254 32.338V35.493H82.3662C83.0423 35.493 83.6057 35.493 83.7183 35.2676C84.0564 35.2676 84.3944 35.1549 84.5071 34.9296C84.7324 34.7042 84.8451 34.3662 84.8451 34.0282C84.8451 33.6901 84.8451 33.3521 84.7324 33.1268C84.5071 32.9014 84.2817 32.6761 84.0564 32.5634C83.7183 32.5634 83.0423 32.338 82.1409 32.338H80.2254ZM88.7888 37.2958V35.1549H90.9296V37.2958H88.7888ZM99.493 37.2958V27.9437H96.4507V26.1408H104.789V27.9437H101.634V37.2958H99.493ZM114.704 37.2958H112.338L111.549 34.8169H107.268L106.254 37.2958H104.113L108.282 26.1408H110.535L114.704 37.2958ZM110.873 32.9014L109.408 28.7324L107.944 32.9014H110.873ZM115.38 33.6901L117.521 33.4648C117.521 34.1408 117.747 34.8169 118.085 35.1549C118.648 35.493 119.099 35.6056 119.775 35.6056C120.451 35.6056 120.901 35.493 121.239 35.1549C121.577 34.8169 121.803 34.4789 121.803 34.1408C121.803 33.8028 121.803 33.6901 121.577 33.3521C121.465 33.1268 121.239 33.0141 120.789 32.9014C120.563 32.9014 119.887 32.6761 119.099 32.338C117.972 32.2254 117.183 31.662 116.62 31.3239C115.944 30.7606 115.606 29.8592 115.606 29.0704C115.606 28.3944 115.831 27.9437 116.169 27.3803C116.507 26.9296 116.958 26.5916 117.521 26.2535C118.085 25.9155 118.761 25.9155 119.662 25.9155C120.901 25.9155 121.916 26.1408 122.592 26.7042C123.268 27.3803 123.606 28.2817 123.718 29.4085H121.577C121.465 28.7324 121.239 28.3944 120.901 28.0563C120.563 27.9437 120.113 27.7183 119.662 27.7183C118.986 27.7183 118.423 27.9437 118.085 28.2817C117.972 28.3944 117.747 28.6197 117.747 28.8451C117.747 29.0704 117.972 29.4085 118.085 29.5211C118.31 29.7465 118.986 30.0845 120.113 30.4225C121.127 30.5352 121.916 30.8732 122.366 31.2113C122.93 31.3239 123.268 31.8873 123.606 32.338C123.831 32.6761 124.056 33.3521 124.056 34.0282C124.056 34.7042 123.831 35.2676 123.38 35.9437C123.042 36.507 122.592 36.9578 122.028 37.0704C121.465 37.4085 120.563 37.6338 119.775 37.6338C118.31 37.6338 117.296 37.2958 116.62 36.6197C115.831 35.9437 115.493 34.9296 115.38 33.6901ZM125.747 37.2958V26.1408H127.887V37.2958H125.747ZM130.028 37.2958V26.1408H132.169V30.9859L136.338 26.1408H139.38L135.437 30.5352L139.493 37.2958H136.676L133.972 32L132.169 34.0282V37.2958H130.028ZM140.62 37.2958V26.1408H143.775L145.803 33.8028L147.606 26.1408H150.873V37.2958H148.845V28.3944L146.704 37.2958H144.789L142.648 28.3944V37.2958H140.62ZM162.592 37.2958H160.225L159.437 34.8169H155.155L154.141 37.2958H152L156.169 26.1408H158.423L162.592 37.2958ZM158.648 32.9014L157.07 28.7324L155.831 32.9014H158.648ZM163.831 37.2958V26.1408H165.972V35.493H171.268V37.2958H163.831ZM182.423 37.2958H180.169L179.155 34.8169H174.873L174.085 37.2958H171.718L175.887 26.1408H178.141L182.423 37.2958ZM178.479 32.9014L177.014 28.7324L175.549 32.9014H178.479ZM184.901 37.2958V32.6761L181.183 26.1408H183.662L186.141 30.5352L188.507 26.1408H190.986L187.268 32.6761V37.2958H184.901ZM200.451 37.2958H198.085L197.07 34.8169H192.789L192 37.2958H189.747L193.803 26.1408H196.169L200.451 37.2958ZM196.507 32.9014L194.93 28.7324L193.465 32.9014H196.507Z" fill="#F6B900"/>
<path fill-rule="evenodd" clip-rule="evenodd" d="M131.944 48.1127C128 49.4648 124.732 51.9437 123.606 56.338V246.873C123.944 246.873 124.394 246.873 124.845 246.986V226.817H130.592V246.986C131.042 246.986 131.493 246.873 131.944 246.873V48.1127ZM124.845 201.465V225.239H130.592V201.465H124.845ZM124.845 176.225V200H130.592V176.225H124.845ZM124.845 150.873V174.648H130.592V150.873H124.845ZM124.845 125.521V149.296H130.592V125.521H124.845ZM124.845 100.169V124.056H130.592V100.169H124.845ZM124.845 74.8169V98.7042H130.592V74.8169H124.845ZM130.592 51.493C129.127 53.8592 127.324 56 124.845 57.0141V73.3521H130.592V51.493Z" fill="#F6B900"/>
<path d="M62.3099 224.113L63.5493 225.014C62.9859 225.577 62.8732 225.915 62.8732 226.141C62.8732 226.704 62.9859 227.042 63.2113 227.38C63.5493 227.718 63.7747 228.056 64.1127 228.056C64.4507 228.056 64.7887 228.056 65.1268 227.718C65.3521 227.718 65.3521 227.493 65.3521 227.38C65.4648 227.155 65.3521 226.817 65.3521 226.704C65.3521 226.479 65.1268 226.028 64.7887 225.577C64.4507 224.676 64.338 224.113 64.338 223.549C64.4507 222.873 64.6761 222.423 65.1268 221.972C65.4648 221.746 65.9155 221.634 66.2535 221.408C66.8169 221.408 67.1549 221.408 67.6056 221.634C67.9437 221.746 68.3944 222.085 68.7324 222.535C69.4085 223.211 69.6338 224.113 69.6338 224.676C69.6338 225.352 69.2958 225.915 68.6197 226.366L67.6056 225.352C67.9437 225.014 68.0563 224.676 68.0563 224.338C68.0563 224.113 67.9437 223.775 67.6056 223.437C67.493 223.099 67.1549 222.873 66.8169 222.873C66.5916 222.761 66.4789 222.873 66.2535 223.099C66.1408 223.099 65.9155 223.211 65.9155 223.549C65.9155 223.775 66.1408 224.225 66.4789 224.901C66.8169 225.69 66.9296 226.141 66.9296 226.704C67.1549 227.042 67.1549 227.38 66.9296 227.831C66.8169 228.169 66.4789 228.507 66.1408 228.958C65.6901 229.183 65.3521 229.521 64.7887 229.521C64.338 229.634 63.7747 229.521 63.3239 229.296C62.9859 229.183 62.5352 228.845 62.1972 228.282C61.5211 227.493 61.1831 226.817 61.4085 226.141C61.4085 225.352 61.6338 224.676 62.3099 224.113ZM71.0986 225.577L72 226.479L68.7324 229.859C68.2817 230.31 67.9437 230.648 67.7183 230.761C67.6056 231.099 67.6056 231.437 67.6056 231.775C67.6056 232.113 67.7183 232.451 68.0563 232.789C68.2817 232.901 68.6197 233.127 68.9578 233.239C69.2958 233.239 69.4085 233.127 69.7465 232.901C69.8592 232.789 70.1972 232.451 70.7606 232L74.1408 228.62L75.1549 229.859L72 232.901C71.2113 233.577 70.7606 234.141 70.4225 234.479C70.0845 234.592 69.7465 234.704 69.2958 234.704C68.9578 234.704 68.6197 234.704 68.2817 234.592C67.7183 234.479 67.493 234.254 66.9296 233.803C66.4789 233.239 66.2535 232.789 66.1408 232.451C65.9155 232 65.9155 231.662 65.9155 231.324C66.1408 230.761 66.1408 230.423 66.4789 230.31C66.5916 229.859 67.1549 229.296 67.7183 228.62L71.0986 225.577ZM70.1972 236.845L76.0563 230.423L76.9578 231.662L74.4789 234.479L79.3239 233.577L80.7887 235.042L76.507 235.606L75.3803 241.465L73.9155 240.225L75.0423 235.718L73.2394 236.056L71.4366 237.859L70.1972 236.845ZM81.2394 246.085L80 244.958L80.5634 243.155L78.3099 241.127L76.6197 242.366L75.3803 241.352L82.9296 236.394L84.0563 237.408L81.2394 246.085ZM81.1268 241.69L82.2535 238.535L79.662 240.338L81.1268 241.69ZM81.9155 246.423L86.5352 239.211L88.6761 240.676C89.3521 241.127 89.8028 241.465 90.0282 241.69C90.3662 242.028 90.4789 242.479 90.4789 242.93C90.4789 243.493 90.3662 244.169 90.0282 244.62C89.6901 245.07 89.3521 245.408 89.0141 245.634C88.6761 245.746 88.338 245.972 88 245.972C87.662 245.972 87.5493 245.972 87.2113 245.972C86.8732 245.746 86.4225 245.408 85.8592 245.07L85.0704 244.62L83.2676 247.211L81.9155 246.423ZM86.9859 241.352L85.7465 243.268L86.5352 243.831C86.9859 244.169 87.3239 244.282 87.5493 244.282C87.662 244.507 88 244.282 88.2254 244.282C88.338 244.169 88.4507 243.944 88.6761 243.831C88.7887 243.493 88.7887 243.268 88.7887 242.93C88.7887 242.817 88.6761 242.479 88.4507 242.366C88.4507 242.141 88.2254 242.028 87.662 241.69L86.9859 241.352ZM91.9437 242.704L93.2958 243.493L91.1549 247.549C90.8169 248.113 90.5916 248.563 90.4789 248.789C90.3662 249.014 90.3662 249.352 90.4789 249.69C90.5916 250.028 90.8169 250.366 91.1549 250.592C91.6056 250.704 91.9437 250.93 92.2817 250.704C92.507 250.704 92.7324 250.592 92.9578 250.254C93.0704 250.028 93.2958 249.577 93.6338 249.014L95.8873 244.958L97.2394 245.634L95.0986 249.577C94.6479 250.592 94.3099 251.042 93.9718 251.38C93.6338 251.718 93.4085 252.056 93.0704 252.169C92.7324 252.169 92.2817 252.394 91.9437 252.394C91.493 252.394 91.1549 252.169 90.4789 251.831C90.0282 251.493 89.4648 251.155 89.3521 250.704C89.0141 250.366 88.7887 250.028 88.7887 249.69C88.7887 249.352 88.7887 249.014 89.0141 248.789C89.1268 248.225 89.3521 247.549 89.8028 246.761L91.9437 242.704ZM94.6479 253.634L97.9155 245.746L100.845 247.099C101.521 247.437 101.972 247.775 102.31 248.113C102.648 248.225 102.873 248.789 102.873 249.014C102.873 249.577 102.873 250.028 102.648 250.592C102.31 251.042 101.972 251.493 101.521 251.718C100.958 252.056 100.507 252.056 99.831 251.831C100.056 252.169 100.169 252.507 100.394 252.845C100.394 253.183 100.507 253.634 100.507 254.535L100.845 256.338L99.0423 255.662L98.9296 253.521C98.7042 252.732 98.7042 252.169 98.5916 252.056C98.5916 251.831 98.3662 251.718 98.3662 251.493C98.2535 251.38 97.9155 251.155 97.5775 251.155L97.3521 251.042L95.8873 254.31L94.6479 253.634ZM97.9155 249.69L98.9296 250.254C99.493 250.592 100.056 250.704 100.169 250.704C100.394 250.704 100.507 250.592 100.732 250.592C100.845 250.366 100.958 250.254 101.183 249.915C101.183 249.69 101.183 249.352 101.183 249.239C101.183 249.014 100.958 248.901 100.845 248.789C100.732 248.563 100.394 248.451 99.831 248.225L98.7042 247.775L97.9155 249.69ZM107.944 258.592L106.479 258.141L106.254 256.113L103.437 255.211L102.31 256.789L100.845 256.338L106.141 249.014L107.606 249.577L107.944 258.592ZM106.254 254.535V251.155L104.338 253.972L106.254 254.535ZM111.324 259.493L112.676 251.042L114.141 251.155L116.282 257.465L117.296 251.718L118.648 252.056L117.183 260.394L115.606 260.056L113.69 254.197L112.676 259.606L111.324 259.493ZM122.366 257.577L122.592 256.338L125.859 256.451L125.521 259.944C125.183 260.282 124.732 260.62 124.056 260.732C123.606 260.958 122.93 261.07 122.254 260.958C121.465 260.958 120.789 260.62 120.225 260.282C119.775 259.718 119.324 259.268 119.099 258.479C118.761 257.803 118.761 257.014 118.761 256.113C118.986 255.324 119.099 254.535 119.662 253.859C119.887 253.183 120.451 252.732 121.127 252.394C121.577 252.169 122.254 252.056 122.93 252.169C123.831 252.169 124.507 252.507 125.07 253.07C125.521 253.521 125.859 254.197 125.859 254.986L124.394 255.211C124.169 254.648 124.056 254.31 123.831 253.972C123.606 253.859 123.268 253.634 122.704 253.634C122.028 253.521 121.577 253.859 121.239 254.197C120.789 254.648 120.451 255.324 120.451 256.338C120.225 257.352 120.451 258.141 120.789 258.592C121.127 259.155 121.577 259.493 122.254 259.493C122.592 259.493 122.93 259.493 123.268 259.493C123.606 259.268 123.831 259.155 124.056 258.93L124.169 257.803L122.366 257.577ZM133.634 260.732H131.944L131.268 258.93H128.338L127.662 260.958L126.197 261.07L128.676 252.394H130.254L133.634 260.732ZM130.817 257.465L129.69 254.31L128.676 257.577L130.817 257.465ZM133.296 252.169L135.887 251.831C136.563 251.718 137.014 251.718 137.352 251.831C137.916 251.831 138.254 252.056 138.704 252.394C139.042 252.732 139.38 253.183 139.493 253.634C139.718 254.197 139.831 254.873 140.056 255.662C140.169 256.338 140.169 257.014 140.056 257.465C140.056 258.141 139.718 258.592 139.493 259.155C139.155 259.493 138.817 259.718 138.479 259.944C138.254 260.056 137.69 260.282 137.239 260.282L134.423 260.732L133.296 252.169ZM134.873 253.521L135.775 259.155L136.901 258.93C137.239 258.817 137.577 258.817 137.69 258.592C137.916 258.592 138.254 258.479 138.254 258.254C138.366 258.141 138.479 257.803 138.479 257.352C138.479 257.014 138.479 256.451 138.479 255.775C138.366 255.211 138.254 254.648 138.028 254.31C138.028 253.972 137.69 253.634 137.577 253.521C137.352 253.296 137.014 253.296 136.901 253.296C136.563 253.183 136.225 253.296 135.549 253.296L134.873 253.521ZM148.394 257.915L146.704 258.479L145.577 256.676L142.761 257.465L142.648 259.493L141.183 259.718L141.859 250.93L143.437 250.366L148.394 257.915ZM144.901 255.437L143.099 252.507L142.761 256L144.901 255.437ZM146.479 249.69L147.718 249.239L149.183 253.634C149.521 254.31 149.746 254.873 149.859 254.986C150.085 255.324 150.197 255.437 150.535 255.662C150.873 255.662 151.211 255.662 151.549 255.437C152 255.437 152.225 255.211 152.338 254.986C152.563 254.648 152.563 254.31 152.563 254.197C152.563 253.859 152.338 253.296 152.225 252.732L150.535 248.225L152 247.775L153.465 252.056C153.803 253.07 154.028 253.634 154.028 254.197C154.141 254.535 154.141 254.986 154.028 255.324C153.803 255.662 153.69 256 153.352 256.113C153.014 256.451 152.676 256.789 152 257.014C151.324 257.127 150.873 257.352 150.535 257.127C150.085 257.127 149.746 257.014 149.408 256.789C149.07 256.676 148.845 256.338 148.732 256C148.394 255.662 148.282 254.986 147.944 253.972L146.479 249.69ZM156.282 255.211L152.901 247.437L154.141 246.761L159.211 250.704L156.958 245.634L158.31 244.958L161.69 252.845L160.225 253.296L155.268 249.577L157.634 254.648L156.282 255.211ZM165.634 250.704L161.239 243.493L162.592 242.704L168.113 245.972L165.07 241.014L166.31 240.338L170.817 247.549L169.465 248.451L164.056 245.296L166.873 249.915L165.634 250.704ZM173.07 242.028L172.282 240.789L174.873 238.873L176.901 241.69C176.901 242.028 176.563 242.704 176.338 243.155C176 243.831 175.549 244.169 175.099 244.62C174.423 245.07 173.746 245.296 173.07 245.408C172.394 245.408 171.718 245.296 171.155 244.958C170.479 244.507 169.916 243.944 169.465 243.268C168.789 242.704 168.451 242.028 168.338 241.127C168.338 240.338 168.338 239.662 168.676 238.986C168.789 238.535 169.127 238.085 169.803 237.521C170.479 237.07 171.268 236.732 171.944 236.732C172.62 236.845 173.296 237.07 173.746 237.746L172.732 238.873C172.394 238.535 172.056 238.423 171.718 238.423C171.268 238.423 170.93 238.535 170.592 238.648C170.141 239.211 169.803 239.662 169.803 240.338C169.803 240.789 170.141 241.69 170.592 242.366C171.268 243.155 171.718 243.606 172.394 243.831C173.07 243.944 173.634 243.831 174.085 243.493C174.423 243.268 174.535 242.93 174.761 242.704C174.873 242.479 175.099 242.141 175.099 241.803L174.423 241.014L173.07 242.028ZM175.549 238.648C175.099 238.085 174.761 237.408 174.423 236.845C174.197 236.394 174.197 235.944 174.197 235.606C174.197 235.042 174.197 234.592 174.423 234.254C174.761 233.803 175.099 233.239 175.437 232.901C176.225 232.338 177.239 232 178.141 232.113C179.155 232.338 180.169 232.789 181.183 233.915C181.972 234.93 182.423 235.944 182.423 236.845C182.423 238.085 181.972 238.873 181.183 239.549C180.282 240.338 179.493 240.676 178.479 240.563C177.352 240.338 176.563 239.662 175.549 238.648ZM176.676 237.746C177.352 238.423 178.028 238.873 178.704 238.873C179.155 238.986 179.831 238.873 180.169 238.535C180.62 238.085 180.958 237.521 180.845 236.845C180.845 236.282 180.507 235.606 179.831 234.93C179.155 234.141 178.704 233.803 178.028 233.577C177.352 233.465 176.901 233.577 176.338 234.141C175.887 234.479 175.775 234.93 175.775 235.606C175.775 236.282 176 236.845 176.676 237.746ZM184.563 236.282L178.704 230.31L180.845 227.831C181.296 227.38 181.859 227.042 182.085 226.817C182.648 226.704 182.986 226.704 183.437 226.704C183.775 226.817 184.225 227.042 184.563 227.493C185.127 227.831 185.239 228.282 185.465 228.845C185.465 229.521 185.239 229.972 184.901 230.423C185.239 230.423 185.577 230.423 185.916 230.423C186.254 230.423 186.704 230.648 187.606 230.761L189.408 231.324L188.056 232.563L186.141 232.113C185.239 232 184.789 231.775 184.563 231.775C184.225 231.775 184.113 231.775 184 232C183.775 232 183.662 232.113 183.437 232.338L183.099 232.563L185.803 235.042L184.563 236.282ZM182.31 231.662L182.986 230.761C183.437 230.31 183.775 229.972 184 229.859C184 229.634 184 229.296 184 229.183C183.775 228.958 183.775 228.845 183.662 228.62C183.324 228.507 183.099 228.282 182.986 228.282C182.761 228.282 182.423 228.282 182.31 228.507C182.085 228.507 181.972 228.845 181.521 229.296L180.62 230.197L182.31 231.662ZM194.141 225.577L193.127 226.817L191.324 226.028L189.408 228.282L190.423 230.197L189.408 231.324L184.789 223.549L185.803 222.423L194.141 225.577ZM189.859 225.577L186.704 224.225L188.507 227.155L189.859 225.577Z" fill="#F6B900"/>
<path fill-rule="evenodd" clip-rule="evenodd" d="M121.127 224.563C116.732 228.169 112.676 229.07 108.732 228.845C98.7042 228.507 96.9014 224.225 91.6056 220.958C93.0704 220.282 93.6338 219.944 95.2113 219.268C88.4507 219.155 86.4225 216.338 84.507 214.31C86.0845 213.746 87.5493 213.183 88.7887 212.507C84.0563 209.69 79.662 207.324 77.5211 202.028C80.2253 202.028 80.9014 202.366 83.0422 202.028C80.5634 198.535 77.2958 194.817 76.2817 189.972C78.0845 190.648 80.5634 190.648 82.2535 190.31C79.3239 181.634 79.4366 175.662 81.8028 171.718C83.3803 168.901 86.4225 166.761 89.3521 165.972C92.6197 165.183 95.5493 165.972 96.9014 168C98.5915 170.704 97.3521 176 94.4225 177.127C92.7324 177.803 90.9296 177.352 88.7887 176.338C88.2253 180.62 88.5634 184.451 89.6901 186.817C89.6901 186.817 89.5775 186.704 89.4648 186.704C89.4648 187.38 89.5775 188.056 89.5775 188.732C85.5211 183.775 86.3098 171.155 89.1267 172.056C89.4648 174.648 91.1549 175.549 92.7324 175.324C96.5634 174.873 97.6901 169.239 93.4084 168.113C91.1549 167.437 88 168 86.1972 169.803C80.4507 175.887 82.3662 186.254 85.8591 193.239C83.9436 193.577 81.4648 192.789 79.4366 192.451C80.9014 196.62 83.7183 200 86.8732 203.042C84.7324 203.493 83.9436 203.38 81.4648 203.155C84.7324 208.901 89.0141 210.366 93.9718 212.169C92.2817 213.408 91.6056 213.746 89.0141 214.648C92.2817 218.254 100.394 217.915 101.183 217.915C100.507 220.282 98.7042 220.62 95.5493 221.07C99.4929 225.69 108.394 230.31 116.845 226.028C118.31 225.239 119.775 224.225 121.127 222.986V224.563ZM102.873 197.296C103.549 197.183 104.225 197.183 104.789 197.07L105.577 197.521C105.352 197.859 105.014 198.085 104.451 198.197C103.887 197.859 103.437 197.634 102.873 197.296ZM114.817 203.042L116.507 204.056C116.845 205.296 117.972 206.423 119.437 206.423C119.775 206.423 120.113 206.423 120.451 206.31L121.127 206.761V207.662C121.014 207.662 120.789 207.775 120.563 207.775C118.648 206.648 116.845 205.521 114.93 204.394C114.817 203.944 114.704 203.493 114.817 203.042Z" fill="#F6B900"/>
<path fill-rule="evenodd" clip-rule="evenodd" d="M121.127 195.268C111.437 184.338 100.394 192.113 88.4507 184.676C87.8873 188.507 88.676 192.901 90.8169 196.056C89.6901 198.873 91.8309 203.944 95.8873 206.31C94.8732 211.606 100.169 213.972 102.535 214.535C106.93 225.014 114.366 219.268 121.127 215.662V214.197C120 214.761 118.873 215.549 117.746 216.113C115.38 217.465 111.549 219.831 108.62 219.155C106.253 218.592 104.789 216.451 103.775 214.31C105.915 214.31 112.901 213.183 111.887 211.38C109.521 212.169 106.817 212.845 103.775 212.732C100.507 212.732 96.4507 211.268 97.014 206.761C97.9154 206.986 98.7042 207.324 99.3802 207.437C101.634 207.775 108.282 208.225 107.718 205.972C105.465 206.31 102.648 206.423 99.7183 205.972C95.2112 205.408 91.1549 200.338 91.9436 196.394C93.6338 197.408 95.4366 198.085 97.2394 198.423C99.3802 198.873 106.141 199.099 105.577 196.958C103.099 197.408 100.394 197.408 97.5774 196.958C91.8309 195.718 89.6901 193.127 89.4647 186.704C100.958 192.789 111.211 186.254 120.113 195.944C120.563 196.394 120.901 196.732 121.127 197.07V195.268ZM121.127 207.662V206.085C120.676 206.31 120.113 206.423 119.437 206.423C116.958 206.423 115.493 203.38 117.183 201.352C117.634 200.676 118.422 200.338 119.437 200.676C118.648 198.761 115.38 200.225 114.817 202.704C114.366 205.634 116.958 207.887 119.437 207.887C120 207.887 120.563 207.887 121.127 207.662Z" fill="#F6B900"/>
<path fill-rule="evenodd" clip-rule="evenodd" d="M134.31 224.563C138.817 228.169 142.761 229.07 146.704 228.845C156.845 228.507 158.648 224.225 163.831 220.958C162.366 220.282 161.915 219.944 160.225 219.268C166.986 219.155 169.127 216.338 170.93 214.31C169.465 213.746 168 213.183 166.648 212.507C171.493 209.69 175.887 207.324 178.028 202.028C175.211 202.028 174.535 202.366 172.394 202.028C174.873 198.535 178.141 194.817 179.155 189.972C177.352 190.648 174.873 190.648 173.296 190.31C176.225 181.634 176 175.662 173.746 171.718C172.056 168.901 169.127 166.761 166.197 165.972C162.93 165.183 159.887 165.972 158.648 168C156.958 170.704 158.084 176 161.127 177.127C162.704 177.803 164.507 177.352 166.648 176.338C167.324 180.62 166.986 184.451 165.746 186.817C165.859 186.817 165.972 186.704 165.972 186.704C165.972 187.38 165.972 188.056 165.859 188.732C170.028 183.775 169.239 171.155 166.31 172.056C165.972 174.648 164.394 175.549 162.704 175.324C158.986 174.873 157.746 169.239 162.028 168.113C164.394 167.437 167.549 168 169.352 169.803C175.099 175.887 173.07 186.254 169.577 193.239C171.606 193.577 174.084 192.789 176 192.451C174.535 196.62 171.718 200 168.676 203.042C170.817 203.493 171.606 203.38 174.084 203.155C170.817 208.901 166.535 210.366 161.577 212.169C163.268 213.408 163.831 213.746 166.535 214.648C163.268 218.254 155.155 217.916 154.366 217.916C155.042 220.282 156.845 220.62 159.887 221.07C155.944 225.69 147.042 230.31 138.704 226.028C137.127 225.239 135.662 224.225 134.31 222.986V224.563ZM152.676 197.296C152 197.183 151.324 197.183 150.648 197.07L149.972 197.521C150.084 197.859 150.535 198.085 150.986 198.197C151.549 197.859 152.113 197.634 152.676 197.296ZM140.732 203.042L138.93 204.056C138.704 205.296 137.577 206.423 136.113 206.423C135.662 206.423 135.324 206.423 134.986 206.31L134.31 206.761V207.662C134.535 207.662 134.761 207.775 134.986 207.775C136.789 206.648 138.704 205.521 140.62 204.394C140.732 203.944 140.732 203.493 140.732 203.042Z" fill="#F6B900"/>
<path fill-rule="evenodd" clip-rule="evenodd" d="M134.31 195.268C144.113 184.338 155.155 192.113 166.986 184.676C167.662 188.507 166.873 192.901 164.732 196.056C165.859 198.873 163.718 203.944 159.549 206.31C160.563 211.606 155.268 213.972 153.014 214.535C148.507 225.014 141.07 219.268 134.31 215.662V214.197C135.549 214.761 136.676 215.549 137.69 216.113C140.169 217.465 144 219.831 146.93 219.155C149.183 218.592 150.761 216.451 151.662 214.31C149.521 214.31 142.648 213.183 143.662 211.38C145.916 212.169 148.732 212.845 151.662 212.732C155.042 212.732 159.099 211.268 158.423 206.761C157.634 206.986 156.845 207.324 156.169 207.437C153.803 207.775 147.268 208.225 147.718 205.972C150.085 206.31 152.901 206.423 155.831 205.972C160.225 205.408 164.394 200.338 163.493 196.394C161.916 197.408 160.113 198.085 158.31 198.423C156.169 198.873 149.408 199.099 149.859 196.958C152.338 197.408 155.155 197.408 157.972 196.958C163.718 195.718 165.859 193.127 165.972 186.704C154.479 192.789 144.338 186.254 135.437 195.944C134.986 196.394 134.648 196.732 134.31 197.07V195.268ZM134.31 207.662V206.085C134.873 206.31 135.437 206.423 136.113 206.423C138.479 206.423 140.056 203.38 138.366 201.352C137.916 200.676 137.014 200.338 136.113 200.676C136.901 198.761 140.169 200.225 140.62 202.704C141.183 205.634 138.479 207.887 136.113 207.887C135.549 207.887 134.986 207.887 134.31 207.662Z" fill="#F6B900"/>
<path fill-rule="evenodd" clip-rule="evenodd" d="M45.7465 202.141C51.9437 204.282 56.4507 208 60.3944 212.282L59.2676 212.845C56.1127 209.465 52.7324 206.648 48.5634 204.62C49.6901 207.324 50.1408 209.915 50.1408 213.07V214.648L48.676 214.31C44.3944 213.07 40.338 213.183 36.3944 215.211C41.1267 217.127 44.2817 220.62 46.8732 225.577C48 227.718 48.9014 229.972 50.0282 232.113C51.0422 233.803 51.9437 235.606 53.4084 236.732C56.1127 238.648 59.4929 238.197 62.3098 237.183L62.4225 236.732C62.7606 237.07 63.0986 237.521 63.5493 237.859V238.084C44.7324 244.958 51.6056 220.282 33.5775 215.549C38.3098 212.056 43.6056 211.606 49.0141 213.07C49.0141 207.887 47.5493 204.845 45.7465 202.141Z" fill="#F6B900"/>
<path fill-rule="evenodd" clip-rule="evenodd" d="M205.521 220.056C188.507 247.887 161.24 266.704 129.465 267.042C97.0141 267.155 67.2677 248.901 50.0282 220.056L49.3522 218.93L50.3663 218.254C54.986 215.324 59.7184 212.732 64.3381 209.915L65.3522 209.239L65.8029 210.254C78.3099 228.282 95.8874 242.704 117.296 246.085C125.972 247.549 135.211 247.211 143.775 244.958C162.704 240.225 178.366 226.704 189.747 210.254L190.197 209.239L191.211 209.915C195.831 212.732 200.563 215.324 205.183 218.254L206.197 218.93L205.521 220.056ZM65.0141 210.93C60.3944 213.859 55.5494 216.451 51.0423 219.493C68.0564 248.113 97.5775 265.803 129.465 265.69C160.563 265.577 187.606 247.099 204.507 219.493C199.887 216.451 195.155 213.859 190.535 210.93C179.042 227.718 163.38 241.127 144.113 246.31C135.437 248.451 125.972 248.901 117.183 247.437C95.4367 243.944 77.6339 229.296 65.0141 210.93Z" fill="#F6B900"/>
<path fill-rule="evenodd" clip-rule="evenodd" d="M209.803 202.141C203.493 204.282 199.099 208 195.155 212.282L196.169 212.845C199.324 209.465 202.704 206.648 206.986 204.62C205.859 207.324 205.296 209.915 205.296 213.07V214.648L206.873 214.31C211.155 213.07 215.211 213.183 219.155 215.211C214.423 217.127 211.268 220.62 208.676 225.577C207.662 227.718 206.648 229.972 205.521 232.113C204.507 233.803 203.493 235.606 202.028 236.732C199.437 238.648 195.944 238.197 193.127 237.183V236.732C192.789 237.183 192.338 237.634 192 237.972V238.085C210.817 244.958 203.831 220.282 221.972 215.549C217.239 212.056 211.944 211.606 206.535 213.07C206.535 207.887 208 204.845 209.803 202.141Z" fill="#F6B900"/>
</svg>
