<svg width="79" height="94" viewBox="0 0 79 94" fill="none" xmlns="http://www.w3.org/2000/svg">
<path fill-rule="evenodd" clip-rule="evenodd" d="M39.5 91.644C24.155 77.784 7.4735 82.2885 5.246 59.172C4.85 55.014 4.9985 50.757 5.0975 46.5495C5.3945 35.3625 6.0875 22.443 1.9295 16.8495C7.5725 11.7015 13.265 6.504 18.9575 1.356C32.669 1.356 46.331 1.356 60.0425 1.356C65.735 6.504 71.4275 11.7015 77.0705 16.8495C72.9125 22.443 73.6055 35.3625 73.9025 46.5495C74.0015 50.757 74.15 55.014 73.754 59.172C71.5265 82.2885 54.845 77.784 39.5 91.644Z" fill="#332C2B" stroke="#332C2B" stroke-width="2.35623"/>
<path fill-rule="evenodd" clip-rule="evenodd" d="M39.5 90.8025C41.7275 88.872 44.153 87.1395 46.6775 85.6545C49.0535 84.219 51.5285 83.031 54.0035 81.843C56.231 80.8035 58.4585 79.8135 60.6365 78.675C62.6165 77.586 64.547 76.4475 66.23 74.913C68.1605 73.23 69.6455 71.25 70.784 68.8245C72.17 65.805 72.863 62.439 73.16 59.1225C73.556 54.9645 73.4075 50.757 73.3085 46.599C73.259 44.421 73.16 42.243 73.1105 40.065C73.061 37.7385 73.061 35.412 73.1105 33.0855C73.16 30.9075 73.259 28.7295 73.457 26.5515C73.8035 23.433 74.546 19.6215 76.2785 16.9485C70.8335 11.949 65.339 6.9495 59.8445 1.9995C46.2815 1.9995 32.7185 1.9995 19.1555 1.9995C13.661 6.9495 8.1665 11.949 2.7215 16.9485C4.454 19.6215 5.1965 23.433 5.543 26.5515C5.741 28.7295 5.84 30.9075 5.8895 33.0855C5.939 35.412 5.939 37.7385 5.8895 40.065C5.84 42.243 5.741 44.421 5.6915 46.599C5.5925 50.757 5.444 54.9645 5.84 59.1225C6.137 62.439 6.83 65.805 8.216 68.8245C9.3545 71.25 10.8395 73.23 12.77 74.913C14.453 76.4475 16.3835 77.586 18.3635 78.675C20.5415 79.8135 22.769 80.8035 24.9965 81.843C27.4715 83.031 29.9465 84.219 32.3225 85.6545C34.847 87.1395 37.2725 88.872 39.5 90.8025Z" fill="#FEFEFE"/>
<path fill-rule="evenodd" clip-rule="evenodd" d="M39.5 88.4265C41.48 86.793 43.6085 85.308 45.836 84.021C48.2615 82.5855 50.7365 81.348 53.3105 80.16C55.4885 79.1205 57.716 78.1305 59.894 76.992C61.7255 76.002 63.557 74.913 65.141 73.4775C66.8735 71.943 68.21 70.161 69.2 68.0325C70.487 65.211 71.1305 62.043 71.4275 58.9245C71.8235 54.816 71.675 50.7075 71.5265 46.6485C71.477 44.4705 71.4275 42.2925 71.378 40.1145C71.3285 37.7385 71.279 35.412 71.3285 33.0855C71.378 30.8085 71.477 28.581 71.7245 26.3535C72.071 23.3835 72.665 20.067 74.051 17.3445C69.101 12.84 64.151 8.3355 59.201 3.831C46.0835 3.831 32.9165 3.831 19.799 3.831C14.849 8.3355 9.899 12.84 4.949 17.3445C6.335 20.067 6.929 23.3835 7.2755 26.3535C7.523 28.581 7.622 30.8085 7.6715 33.0855C7.721 35.412 7.6715 37.7385 7.622 40.1145C7.5725 42.2925 7.523 44.4705 7.4735 46.6485C7.325 50.7075 7.1765 54.816 7.5725 58.9245C7.8695 62.043 8.513 65.211 9.8 68.0325C10.79 70.161 12.1265 71.943 13.859 73.4775C15.443 74.913 17.2745 76.002 19.106 76.992C21.284 78.1305 23.5115 79.1205 25.6895 80.16C28.2635 81.348 30.7385 82.5855 33.164 84.021C35.3915 85.308 37.52 86.793 39.5 88.4265Z" fill="#332C2B" stroke="#332C2B" stroke-width="1.3468"/>
<path fill-rule="evenodd" clip-rule="evenodd" d="M39.5 87.684C41.4305 86.1 43.46 84.714 45.539 83.4765C47.9645 82.041 50.489 80.754 53.063 79.566C55.241 78.576 57.4685 77.586 59.597 76.4475C61.4285 75.4575 63.2105 74.418 64.745 73.032C66.428 71.547 67.715 69.8145 68.6555 67.7355C69.9425 65.013 70.5365 61.8945 70.8335 58.8255C71.2295 54.816 71.081 50.7075 70.982 46.6485C70.9325 44.4705 70.8335 42.2925 70.784 40.1145C70.7345 37.7385 70.7345 35.412 70.784 33.036C70.784 30.8085 70.9325 28.5315 71.18 26.2545C71.477 23.334 72.071 20.166 73.3085 17.493C68.5565 13.137 63.755 8.781 59.003 4.4745C45.9845 4.4745 33.0155 4.4745 19.997 4.4745C15.245 8.781 10.4435 13.137 5.6915 17.493C6.929 20.166 7.523 23.334 7.82 26.2545C8.0675 28.5315 8.216 30.8085 8.216 33.036C8.2655 35.412 8.2655 37.7385 8.216 40.1145C8.1665 42.2925 8.0675 44.4705 8.018 46.6485C7.919 50.7075 7.7705 54.816 8.1665 58.8255C8.4635 61.8945 9.0575 65.013 10.3445 67.7355C11.285 69.8145 12.572 71.547 14.255 73.032C15.7895 74.418 17.5715 75.4575 19.403 76.4475C21.5315 77.586 23.759 78.576 25.937 79.566C28.511 80.754 31.0355 82.041 33.461 83.4765C35.54 84.714 37.5695 86.1 39.5 87.684Z" fill="#FFF000"/>
<path fill-rule="evenodd" clip-rule="evenodd" d="M39.5 87.684C41.4305 86.1 43.46 84.714 45.539 83.4765C47.9645 82.041 50.489 80.754 53.063 79.566C55.241 78.576 57.4685 77.586 59.597 76.4475C61.4285 75.4575 63.2105 74.418 64.745 73.032C66.428 71.547 67.715 69.8145 68.6555 67.7355C69.9425 65.013 70.5365 61.8945 70.8335 58.8255C71.2295 54.816 71.081 50.7075 70.982 46.6485C70.9325 44.4705 70.8335 42.2925 70.784 40.1145C70.7345 37.7385 70.7345 35.412 70.784 33.036C70.784 31.9965 70.8335 30.957 70.883 29.9175H8.117C8.1665 30.957 8.216 31.9965 8.216 33.036C8.2655 35.412 8.2655 37.7385 8.216 40.1145C8.1665 42.2925 8.0675 44.4705 8.018 46.6485C7.919 50.7075 7.7705 54.816 8.1665 58.8255C8.4635 61.8945 9.0575 65.013 10.3445 67.7355C11.285 69.8145 12.572 71.547 14.255 73.032C15.7895 74.418 17.5715 75.4575 19.403 76.4475C21.5315 77.586 23.759 78.576 25.937 79.566C28.511 80.754 31.0355 82.041 33.461 83.4765C35.54 84.714 37.5695 86.1 39.5 87.684Z" fill="#589F36"/>
<path fill-rule="evenodd" clip-rule="evenodd" d="M65.7845 71.9925C66.1805 71.5965 66.527 71.2005 66.824 70.8045L58.3595 55.7565H67.1705L70.487 61.5975C70.5365 61.2015 70.6355 60.756 70.685 60.36L68.0615 55.7565H71.0315C71.0315 55.509 71.0315 55.212 71.081 54.9645H67.616L63.557 47.8365H70.982V46.995H63.1115L57.4685 37.095L56.825 37.491L62.2205 46.995H53.4095L50.588 42.0945L49.9445 42.4905L52.469 46.995H26.828L29.402 42.4905L28.709 42.0945L25.937 46.995H17.126L22.5215 37.491L21.878 37.095L16.235 46.995H8.018V47.8365H15.7895L11.7305 54.9645H7.919C7.9685 55.212 7.9685 55.509 7.9685 55.7565H11.285L8.414 60.8055C8.4635 61.251 8.513 61.647 8.612 62.043L12.176 55.7565H20.987L12.374 71.052C12.6215 71.349 12.9185 71.6955 13.2155 71.9925H65.7845ZM57.419 55.7565H21.878L13.2155 71.151H66.131L57.419 55.7565ZM57.8645 54.9645L53.855 47.8365H62.666L66.6755 54.9645H57.8645ZM52.964 47.8365L56.9735 54.9645H22.373L26.3825 47.8365H52.964ZM25.4915 47.8365H16.6805L12.6215 54.9645H21.482L25.4915 47.8365Z" fill="#FEFEFE"/>
<path fill-rule="evenodd" clip-rule="evenodd" d="M70.982 47.094C68.3585 45.5595 65.834 44.124 62.6165 44.322C59.993 44.52 58.1615 46.203 54.647 46.203C50.5385 46.104 46.7765 44.3715 42.668 45.411C41.48 45.708 40.391 46.104 39.3515 46.302C38.4605 45.807 36.8765 45.6585 35.9855 45.411C31.877 44.3715 28.115 46.104 24.0065 46.203C20.492 46.203 18.71 44.52 16.037 44.322C12.968 44.124 10.5425 45.4605 8.018 46.896V46.6485C8.0675 44.4705 8.1665 42.2925 8.216 40.1145C8.2655 37.7385 8.2655 35.412 8.216 33.036C8.216 32.3925 8.216 31.6995 8.1665 31.056L70.8335 30.264C70.784 31.2045 70.784 32.145 70.784 33.036C70.7345 35.412 70.7345 37.7385 70.784 40.1145C70.8335 42.2925 70.9325 44.4705 70.982 46.6485V47.094Z" fill="#00A2E9"/>
<path fill-rule="evenodd" clip-rule="evenodd" d="M70.784 32.244C70.784 31.2045 70.8335 30.165 70.9325 29.1255L26.5805 14.4735L23.8085 16.8495L21.4325 15.414L7.919 27.195C8.0675 28.779 8.1665 30.4125 8.216 31.9965L70.784 32.244Z" fill="#047CB0"/>
<path fill-rule="evenodd" clip-rule="evenodd" d="M8.1665 31.3035H16.0865V28.8285H19.5515V31.3035H27.917V30.66C27.917 29.6205 28.709 28.8285 29.6495 28.8285C30.59 28.8285 31.382 29.6205 31.382 30.66V31.3035H47.4695V30.66C47.4695 29.6205 48.2615 28.8285 49.202 28.8285C50.1425 28.8285 50.9345 29.6205 50.9345 30.66V31.3035H59.3495V28.8285H62.765V31.3035H70.8335C70.784 31.6995 70.784 32.0955 70.784 32.4915H62.765H59.3495H19.5515H16.0865H8.216C8.216 32.0955 8.216 31.6995 8.1665 31.3035Z" fill="#FEFEFE"/>
<path d="M8.2655 36.5505C10.691 35.1645 13.067 33.9765 16.0865 34.224C17.324 34.2735 18.314 34.6695 19.403 35.0655C20.7395 35.5605 22.1255 36.0555 24.0065 36.0555C25.4915 36.0555 26.9765 35.7585 28.4615 35.511C30.9365 35.0655 33.461 34.62 36.0845 35.313C36.332 35.3625 36.629 35.412 36.9755 35.4615C37.7675 35.6595 38.708 35.808 39.401 36.1545C39.9455 36.0555 40.589 35.8575 41.2325 35.6595C41.678 35.5605 42.1235 35.412 42.569 35.313C45.242 34.62 47.717 35.0655 50.2415 35.511C51.677 35.7585 53.162 36.0555 54.647 36.0555C56.528 36.0555 57.9635 35.5605 59.2505 35.0655C60.3395 34.6695 61.379 34.2735 62.567 34.224C65.735 33.9765 68.21 35.313 70.7345 36.7485C70.7345 37.095 70.7345 37.491 70.7345 37.8375C68.1605 36.303 65.6855 34.917 62.6165 35.115C61.5275 35.214 60.5375 35.5605 59.5475 35.9565C58.1615 36.4515 56.6765 36.996 54.647 36.996C53.063 36.9465 51.578 36.699 50.093 36.402C47.6675 36.006 45.242 35.5605 42.767 36.204C42.3215 36.303 41.876 36.4515 41.48 36.5505C40.7375 36.7485 40.094 36.996 39.401 37.095L39.1535 37.0455C38.5595 36.7485 37.619 36.5505 36.827 36.402C36.4805 36.303 36.134 36.2535 35.8865 36.204C33.4115 35.5605 31.0355 36.006 28.61 36.402C27.0755 36.699 25.5905 36.9465 24.0065 36.996C21.977 36.996 20.492 36.4515 19.1555 35.9565C18.116 35.5605 17.126 35.214 16.037 35.115C13.067 34.917 10.691 36.204 8.2655 37.6395C8.2655 37.293 8.2655 36.9465 8.2655 36.5505ZM70.9325 45.1635L70.883 44.124C68.309 42.5895 65.7845 41.253 62.567 41.451C61.379 41.55 60.3395 41.8965 59.2505 42.2925C57.9635 42.7875 56.528 43.2825 54.647 43.332C53.162 43.2825 51.677 43.035 50.2415 42.738C47.717 42.2925 45.242 41.847 42.569 42.54C42.1235 42.639 41.678 42.7875 41.2325 42.936C40.589 43.0845 39.9455 43.2825 39.401 43.431C38.708 43.0845 37.7675 42.8865 36.9755 42.738C36.629 42.6885 36.332 42.5895 36.0845 42.54C33.461 41.847 30.9365 42.2925 28.4615 42.738C26.9765 43.035 25.4915 43.2825 24.0065 43.332C22.1255 43.2825 20.7395 42.7875 19.403 42.2925C18.314 41.8965 17.324 41.55 16.0865 41.451C13.0175 41.253 10.592 42.4905 8.117 43.926L8.0675 44.9655C10.592 43.53 13.0175 42.1935 16.037 42.3915C17.126 42.441 18.116 42.837 19.1555 43.1835C20.492 43.6785 21.977 44.223 24.0065 44.223C25.5905 44.223 27.0755 43.926 28.61 43.6785C31.0355 43.233 33.4115 42.7875 35.8865 43.431C36.134 43.53 36.4805 43.5795 36.827 43.629C37.619 43.7775 38.5595 43.9755 39.1535 44.322L39.401 44.3715C40.094 44.223 40.7375 44.025 41.48 43.827C41.876 43.6785 42.3215 43.5795 42.767 43.431C45.242 42.7875 47.6675 43.233 50.093 43.6785C51.578 43.926 53.063 44.223 54.647 44.223C56.6765 44.223 58.1615 43.6785 59.5475 43.1835C60.5375 42.837 61.5275 42.441 62.6165 42.3915C65.7845 42.144 68.309 43.629 70.9325 45.1635ZM70.8335 41.2035C70.8335 40.857 70.784 40.461 70.784 40.1145C68.2595 38.6295 65.735 37.3425 62.567 37.5405C61.379 37.6395 60.3395 37.986 59.2505 38.382C57.9635 38.877 56.528 39.372 54.647 39.4215C53.162 39.372 51.677 39.1245 50.2415 38.8275C47.717 38.382 45.242 37.9365 42.569 38.6295C42.1235 38.7285 41.678 38.877 41.2325 39.0255C40.589 39.174 39.9455 39.372 39.401 39.471C38.708 39.174 37.7675 38.976 36.9755 38.8275C36.629 38.7285 36.332 38.679 36.0845 38.6295C33.461 37.9365 30.9365 38.382 28.4615 38.8275C26.9765 39.1245 25.4915 39.372 24.0065 39.4215C22.1255 39.372 20.7395 38.877 19.403 38.382C18.314 37.986 17.324 37.6395 16.0865 37.5405C13.067 37.3425 10.6415 38.5305 8.216 39.9165V40.1145C8.216 40.4115 8.1665 40.7085 8.1665 41.0055C10.6415 39.57 13.067 38.283 16.037 38.481C17.126 38.5305 18.116 38.877 19.1555 39.273C20.492 39.768 21.977 40.3125 24.0065 40.3125C25.5905 40.3125 27.0755 40.0155 28.61 39.768C31.0355 39.3225 33.4115 38.877 35.8865 39.5205C36.134 39.57 36.4805 39.669 36.827 39.7185C37.619 39.867 38.5595 40.065 39.1535 40.4115H39.401C40.094 40.3125 40.7375 40.1145 41.48 39.9165C41.876 39.768 42.3215 39.6195 42.767 39.5205C45.242 38.877 47.6675 39.3225 50.093 39.768C51.578 40.0155 53.063 40.3125 54.647 40.3125C56.6765 40.3125 58.1615 39.768 59.5475 39.273C60.5375 38.877 61.5275 38.5305 62.6165 38.481C65.735 38.2335 68.21 39.669 70.8335 41.2035Z" fill="#FEFEFE"/>
<path d="M18.0665 11.8995V8.5335H18.71V10.0185L20.0465 8.5335H20.888L19.7 9.87L20.9375 11.8995H20.096L19.2545 10.3155L18.71 10.9095V11.8995H18.0665ZM24.155 11.8995H23.462L23.2145 11.157H21.9275L21.6305 11.8995H20.987L22.2245 8.5335H22.868L24.155 11.8995ZM22.967 10.563L22.5215 9.3255L22.1255 10.563H22.967ZM24.5015 8.5335H25.7885C26.036 8.5335 26.234 8.5335 26.3825 8.5335C26.4815 8.583 26.5805 8.6325 26.6795 8.682C26.7785 8.781 26.8775 8.88 26.927 8.979C27.026 9.078 27.026 9.2265 27.026 9.375C27.026 9.5235 27.026 9.672 26.927 9.8205C26.828 9.969 26.729 10.068 26.5805 10.1175C26.7785 10.167 26.927 10.266 27.026 10.4145C27.125 10.563 27.224 10.761 27.224 10.9095C27.224 11.1075 27.1745 11.256 27.0755 11.4045C27.026 11.553 26.927 11.652 26.828 11.751C26.6795 11.8005 26.5805 11.8995 26.3825 11.8995C26.2835 11.8995 26.036 11.8995 25.5905 11.8995H24.5015V8.5335ZM25.145 9.078V9.87H25.5905C25.838 9.87 25.9865 9.87 26.036 9.87C26.1845 9.87 26.234 9.8205 26.333 9.7215C26.3825 9.672 26.432 9.573 26.432 9.474C26.432 9.375 26.3825 9.276 26.333 9.2265C26.2835 9.177 26.1845 9.1275 26.0855 9.078C26.036 9.078 25.838 9.078 25.541 9.078H25.145ZM25.145 10.4145V11.355H25.7885C25.9865 11.355 26.135 11.355 26.1845 11.3055C26.2835 11.3055 26.3825 11.256 26.432 11.2065C26.4815 11.1075 26.531 11.0085 26.531 10.9095C26.531 10.8105 26.531 10.7115 26.4815 10.662C26.432 10.563 26.333 10.5135 26.2835 10.464C26.1845 10.464 25.9865 10.4145 25.6895 10.4145H25.145ZM27.719 11.8995V11.256H28.3625V11.8995H27.719ZM30.9365 11.8995V9.078H29.996V8.5335H32.5205V9.078H31.58V11.8995H30.9365ZM35.4905 11.8995H34.7975L34.55 11.157H33.263L32.966 11.8995H32.3225L33.56 8.5335H34.253L35.4905 11.8995ZM34.352 10.563L33.9065 9.3255L33.461 10.563H34.352ZM35.6885 10.8105L36.332 10.761C36.332 10.959 36.431 11.157 36.53 11.256C36.6785 11.355 36.827 11.4045 37.025 11.4045C37.223 11.4045 37.3715 11.355 37.4705 11.256C37.5695 11.157 37.619 11.058 37.619 10.959C37.619 10.86 37.619 10.8105 37.5695 10.7115C37.52 10.662 37.4705 10.6125 37.322 10.563C37.2725 10.563 37.0745 10.5135 36.827 10.4145C36.4805 10.365 36.233 10.2165 36.0845 10.1175C35.8865 9.9195 35.7875 9.672 35.7875 9.4245C35.7875 9.2265 35.837 9.078 35.936 8.9295C36.035 8.781 36.1835 8.682 36.332 8.583C36.53 8.484 36.728 8.484 36.9755 8.484C37.3715 8.484 37.6685 8.5335 37.8665 8.7315C38.0645 8.9295 38.1635 9.177 38.213 9.5235H37.5695C37.52 9.3255 37.4705 9.2265 37.3715 9.1275C37.2725 9.078 37.124 9.0285 36.9755 9.0285C36.7775 9.0285 36.629 9.078 36.53 9.177C36.4805 9.2265 36.431 9.276 36.431 9.375C36.431 9.4245 36.4805 9.5235 36.53 9.573C36.5795 9.6225 36.7775 9.7215 37.124 9.8205C37.421 9.87 37.6685 9.969 37.817 10.068C37.9655 10.1175 38.0645 10.266 38.1635 10.4145C38.2625 10.5135 38.312 10.7115 38.312 10.9095C38.312 11.1075 38.2625 11.3055 38.114 11.5035C38.015 11.652 37.8665 11.8005 37.718 11.85C37.52 11.949 37.2725 11.9985 37.025 11.9985C36.5795 11.9985 36.2825 11.8995 36.0845 11.7015C35.837 11.5035 35.738 11.2065 35.6885 10.8105ZM38.807 11.8995V8.5335H39.4505V11.8995H38.807ZM40.094 11.8995V8.5335H40.7375V10.0185L42.0245 8.5335H42.9155L41.7275 9.87L42.965 11.8995H42.1235L41.282 10.3155L40.7375 10.9095V11.8995H40.094ZM43.3115 11.8995V8.5335H44.252L44.846 10.86L45.3905 8.5335H46.3805V11.8995H45.7865V9.2265L45.143 11.8995H44.549L43.9055 9.2265V11.8995H43.3115ZM49.895 11.8995H49.202L48.9545 11.157H47.6675L47.3705 11.8995H46.727L47.9645 8.5335H48.6575L49.895 11.8995ZM48.707 10.563L48.2615 9.3255L47.8655 10.563H48.707ZM50.291 11.8995V8.5335H50.9345V11.355H52.5185V11.8995H50.291ZM55.8845 11.8995H55.1915L54.8945 11.157H53.6075L53.36 11.8995H52.667L53.9045 8.5335H54.5975L55.8845 11.8995ZM54.6965 10.563L54.251 9.3255L53.8055 10.563H54.6965ZM56.627 11.8995V10.5135L55.4885 8.5335H56.231L56.9735 9.87L57.716 8.5335H58.4585L57.32 10.5135V11.8995H56.627ZM61.28 11.8995H60.587L60.29 11.157H59.003L58.7555 11.8995H58.0625L59.3 8.5335H59.993L61.28 11.8995ZM60.092 10.563L59.6465 9.3255L59.201 10.563H60.092Z" fill="#332C2B"/>
<path fill-rule="evenodd" clip-rule="evenodd" d="M39.1535 66.498C37.0745 69.0225 35.3915 69.6165 33.7085 69.5175C30.689 69.4185 30.1445 68.1315 28.5605 67.1415C29.006 66.9435 29.1545 66.8445 29.6495 66.6465C27.62 66.597 26.9765 65.7555 26.432 65.1615C26.8775 64.9635 27.323 64.815 27.719 64.617C26.2835 63.7755 24.947 63.033 24.3035 61.449C25.145 61.449 25.343 61.548 25.9865 61.449C25.244 60.4095 24.254 59.271 23.957 57.8355C24.5015 58.0335 25.244 58.0335 25.739 57.9345C24.848 55.311 24.8975 53.529 25.5905 52.341C26.0855 51.4995 26.9765 50.856 27.8675 50.6085C28.8575 50.361 29.7485 50.6085 30.1445 51.2025C30.6395 52.044 30.293 53.628 29.402 53.9745C28.907 54.1725 28.3625 54.024 27.719 53.727C27.4715 55.4595 27.719 56.9445 28.4615 57.4395C28.6595 57.588 30.5405 59.1225 30.887 58.9245C34.451 61.2015 36.0845 61.9935 39.6485 64.221C39.5 65.211 39.2525 65.4585 39.1535 66.498Z" fill="#332C2B"/>
<path fill-rule="evenodd" clip-rule="evenodd" d="M29.7485 67.191C30.9365 68.577 33.6095 69.963 36.134 68.676C37.1735 68.1315 38.0645 67.2405 38.807 66.3C38.8565 65.9535 38.9555 65.607 39.0545 65.2605C39.1535 64.9635 39.203 64.716 39.2525 64.419C36.4805 62.6865 33.6095 61.053 30.788 59.3205C30.3425 59.3205 29.699 58.8255 29.402 58.6275C29.1545 58.4295 28.907 58.281 28.6595 58.083C28.5605 57.984 28.412 57.885 28.313 57.786C26.6795 56.6475 26.8775 52.143 27.818 52.44C27.917 53.232 28.412 53.4795 28.907 53.43C30.0455 53.2815 30.392 51.5985 29.105 51.252C28.412 51.054 27.4715 51.2025 26.927 51.747C25.1945 53.5785 25.7885 56.697 26.828 58.8255C26.234 58.9245 25.4915 58.677 24.8975 58.578C25.343 59.8155 26.1845 60.855 27.125 61.746C26.4815 61.8945 26.234 61.845 25.4915 61.7955C26.4815 63.528 27.7685 63.9735 29.2535 64.518C28.7585 64.8645 28.5605 64.9635 27.7685 65.2605C28.7585 66.3495 31.184 66.2505 31.4315 66.2505C31.2335 66.9435 30.689 67.0425 29.7485 67.191Z" fill="#FFF000"/>
<path fill-rule="evenodd" clip-rule="evenodd" d="M38.6585 61.152C35.441 55.41 31.679 58.776 27.62 56.2515C27.422 57.39 27.6695 58.7265 28.313 59.667C27.9665 60.5085 28.61 62.043 29.8475 62.736C29.5505 64.32 31.1345 65.0625 31.8275 65.211C33.5105 69.171 36.629 65.4585 38.9555 64.914C38.807 63.825 38.7575 62.241 38.6585 61.152Z" fill="#332C2B"/>
<path fill-rule="evenodd" clip-rule="evenodd" d="M38.5595 64.6665C38.51 63.924 38.4605 63.231 38.411 62.4885C37.916 63.033 37.3715 63.231 36.926 63.231C36.1835 63.231 35.3915 62.538 35.54 61.647C35.6885 60.9045 36.6785 60.459 36.926 61.053C36.629 60.954 36.3815 61.053 36.233 61.251C35.738 61.845 36.1835 62.7855 36.926 62.7855C38.0645 62.7855 38.411 61.3995 37.8665 60.558C37.5695 60.1125 37.421 59.9145 37.124 59.6175C34.451 56.697 31.382 58.677 27.917 56.8455C27.9665 58.776 28.61 59.568 30.3425 59.9145C31.184 60.063 32.0255 60.063 32.768 59.9145C32.9165 60.558 30.887 60.5085 30.2435 60.36C29.699 60.261 29.1545 60.063 28.6595 59.766C28.412 60.954 29.6495 62.4885 30.986 62.637C31.877 62.7855 32.7185 62.736 33.4115 62.637C33.56 63.33 31.58 63.1815 30.887 63.0825C30.689 63.033 30.4415 62.934 30.194 62.8845C29.996 64.221 31.2335 64.6665 32.2235 64.6665C33.1145 64.716 33.956 64.518 34.649 64.2705C34.946 64.815 32.867 65.1615 32.2235 65.1615C32.5205 65.805 32.966 66.4485 33.659 66.597C34.55 66.795 35.6885 66.102 36.431 65.706C37.0745 65.31 37.817 64.8645 38.5595 64.6665Z" fill="#FFF000"/>
<path fill-rule="evenodd" clip-rule="evenodd" d="M39.698 66.498C41.777 69.0225 43.46 69.6165 45.143 69.5175C48.113 69.4185 48.707 68.1315 50.291 67.1415C49.8455 66.9435 49.697 66.8445 49.202 66.6465C51.2315 66.597 51.875 65.7555 52.4195 65.1615C51.974 64.9635 51.5285 64.815 51.1325 64.617C52.568 63.7755 53.9045 63.033 54.548 61.449C53.7065 61.449 53.5085 61.548 52.865 61.449C53.6075 60.4095 54.5975 59.271 54.8945 57.8355C54.35 58.0335 53.6075 58.0335 53.1125 57.9345C54.0035 55.311 53.954 53.529 53.261 52.341C52.766 51.4995 51.875 50.856 50.984 50.6085C49.994 50.361 49.103 50.6085 48.707 51.2025C48.212 52.044 48.5585 53.628 49.4495 53.9745C49.9445 54.1725 50.489 54.024 51.1325 53.727C51.38 55.4595 51.1325 56.9445 50.39 57.4395C50.192 57.588 48.311 59.1225 47.9645 58.9245C44.4005 61.2015 42.767 61.9935 39.203 64.221C39.3515 65.211 39.599 65.4585 39.698 66.498Z" fill="#332C2B"/>
<path fill-rule="evenodd" clip-rule="evenodd" d="M49.103 67.191C47.915 68.577 45.242 69.963 42.7175 68.676C41.678 68.1315 40.787 67.2405 40.0445 66.3C39.995 65.9535 39.896 65.607 39.797 65.2605C39.698 64.9635 39.6485 64.716 39.599 64.419C42.371 62.6865 45.242 61.053 48.0635 59.3205C48.509 59.3205 49.1525 58.8255 49.4495 58.6275C49.697 58.4295 49.9445 58.281 50.192 58.083C50.291 57.984 50.4395 57.885 50.5385 57.786C52.172 56.6475 51.974 52.143 51.0335 52.44C50.9345 53.232 50.4395 53.4795 49.9445 53.43C48.806 53.2815 48.4595 51.5985 49.7465 51.252C50.4395 51.054 51.38 51.2025 51.9245 51.747C53.657 53.5785 53.063 56.697 52.0235 58.8255C52.6175 58.9245 53.36 58.677 53.954 58.578C53.5085 59.8155 52.667 60.855 51.7265 61.746C52.37 61.8945 52.6175 61.845 53.36 61.7955C52.37 63.528 51.083 63.9735 49.598 64.518C50.093 64.8645 50.291 64.9635 51.083 65.2605C50.093 66.3495 47.6675 66.2505 47.42 66.2505C47.618 66.9435 48.1625 67.0425 49.103 67.191Z" fill="#FFF000"/>
<path fill-rule="evenodd" clip-rule="evenodd" d="M40.193 61.152C43.4105 55.41 47.1725 58.776 51.2315 56.2515C51.4295 57.39 51.1325 58.7265 50.5385 59.667C50.885 60.5085 50.2415 62.043 49.004 62.736C49.301 64.32 47.717 65.0625 47.024 65.211C45.341 69.171 42.2225 65.4585 39.896 64.914C40.0445 63.825 40.094 62.241 40.193 61.152Z" fill="#332C2B"/>
<path fill-rule="evenodd" clip-rule="evenodd" d="M40.292 64.6665C40.3415 63.924 40.391 63.231 40.4405 62.4885C40.9355 63.033 41.48 63.231 41.9255 63.231C42.668 63.231 43.46 62.538 43.3115 61.647C43.163 60.9045 42.173 60.459 41.9255 61.053C42.2225 60.954 42.47 61.053 42.6185 61.251C43.1135 61.845 42.668 62.7855 41.9255 62.7855C40.787 62.7855 40.4405 61.3995 40.985 60.558C41.2325 60.1125 41.4305 59.9145 41.7275 59.6175C44.4005 56.697 47.4695 58.677 50.9345 56.8455C50.885 58.776 50.2415 59.568 48.509 59.9145C47.6675 60.063 46.826 60.063 46.0835 59.9145C45.935 60.558 47.9645 60.5085 48.608 60.36C49.1525 60.261 49.697 60.063 50.192 59.766C50.4395 60.954 49.1525 62.4885 47.8655 62.637C46.9745 62.7855 46.133 62.736 45.44 62.637C45.2915 63.33 47.2715 63.1815 47.9645 63.0825C48.1625 63.033 48.41 62.934 48.6575 62.8845C48.8555 64.221 47.618 64.6665 46.628 64.6665C45.737 64.716 44.8955 64.518 44.2025 64.2705C43.9055 64.815 45.935 65.1615 46.628 65.1615C46.331 65.805 45.8855 66.4485 45.1925 66.597C44.3015 66.795 43.163 66.102 42.4205 65.706C41.777 65.31 41.0345 64.8645 40.292 64.6665Z" fill="#FFF000"/>
<path fill-rule="evenodd" clip-rule="evenodd" d="M40.688 15.1665C39.5 15.5625 38.51 16.305 38.1635 17.6415V76.299H40.688C40.688 55.905 40.688 35.511 40.688 15.1665Z" fill="#332C2B"/>
<path fill-rule="evenodd" clip-rule="evenodd" d="M40.292 16.1565C39.8465 16.899 39.302 17.5425 38.5595 17.8395V22.74H40.292V16.1565ZM38.5595 23.1855V30.363H40.292V23.1855H38.5595ZM38.5595 30.8085V37.986H40.292V30.8085H38.5595ZM38.5595 38.4315V45.609H40.292V38.4315H38.5595ZM38.5595 46.0545V53.232H40.292V46.0545H38.5595ZM38.5595 53.6775V60.855H40.292V53.6775H38.5595ZM38.5595 61.3005V68.4285H40.292V61.3005H38.5595ZM38.5595 68.9235V75.8535H40.292V68.9235H38.5595Z" fill="#FFF000"/>
<path fill-rule="evenodd" clip-rule="evenodd" d="M14.75 61.4985C17.522 62.439 19.106 64.419 20.7395 66.399C20.5415 68.379 20.294 70.359 20.096 72.2895C14.453 74.3685 16.532 66.9435 11.087 65.508C12.5225 64.4685 14.1065 64.32 15.74 64.7655C15.74 63.231 15.2945 62.2905 14.75 61.4985Z" fill="#332C2B"/>
<path fill-rule="evenodd" clip-rule="evenodd" d="M11.9285 65.409C13.364 66.003 14.3045 67.0425 15.0965 68.5275C15.443 69.171 15.6905 69.864 16.037 70.5075C16.334 71.0025 16.631 71.547 17.0765 71.8935C17.8685 72.4875 18.908 72.339 19.7495 72.042C19.9475 70.2105 20.195 68.3295 20.393 66.498C18.908 64.716 17.5715 63.1815 15.5915 62.241C15.938 63.033 16.0865 63.825 16.0865 64.7655V65.2605L15.641 65.1615C14.354 64.7655 13.1165 64.815 11.9285 65.409Z" fill="#FFF000"/>
<path fill-rule="evenodd" clip-rule="evenodd" d="M64.1015 61.4985C61.3295 62.439 59.7455 64.419 58.112 66.399C58.31 68.379 58.5575 70.359 58.7555 72.2895C64.3985 74.3685 62.3195 66.9435 67.7645 65.508C66.329 64.4685 64.745 64.32 63.1115 64.7655C63.1115 63.231 63.557 62.2905 64.1015 61.4985Z" fill="#332C2B"/>
<path fill-rule="evenodd" clip-rule="evenodd" d="M63.26 62.241C61.28 63.1815 59.9435 64.716 58.4585 66.498C58.6565 68.3295 58.904 70.2105 59.102 72.042C59.9435 72.339 60.983 72.4875 61.775 71.8935C62.2205 71.547 62.5175 71.0025 62.8145 70.5075C63.161 69.864 63.458 69.171 63.755 68.5275C64.547 67.0425 65.4875 66.003 66.923 65.409C65.735 64.815 64.4975 64.7655 63.2105 65.1615L62.765 65.2605V64.7655C62.765 63.825 62.9135 63.033 63.26 62.241Z" fill="#FFF000"/>
<path fill-rule="evenodd" clip-rule="evenodd" d="M62.8145 66.894C57.716 75.2595 49.499 80.9025 39.9455 81.0015C30.194 81.051 21.2345 75.5565 16.037 66.894L15.839 66.5475L16.136 66.3495C17.522 65.4585 18.9575 64.6665 20.3435 63.825L20.6405 63.627L20.789 63.924C24.551 69.369 29.8475 73.6755 36.2825 74.715C38.906 75.1605 41.678 75.0615 44.252 74.3685C49.9445 72.933 54.647 68.874 58.0625 63.924L58.211 63.627L58.508 63.825C59.894 64.6665 61.3295 65.4585 62.7155 66.3495L63.0125 66.5475L62.8145 66.894Z" fill="#332C2B"/>
<path fill-rule="evenodd" clip-rule="evenodd" d="M20.5415 64.122C19.1555 65.013 17.72 65.805 16.334 66.696C21.482 75.309 30.3425 80.655 39.9455 80.6055C49.301 80.556 57.419 75.012 62.5175 66.696C61.1315 65.805 59.696 65.013 58.31 64.122C54.845 69.171 50.1425 73.23 44.351 74.7645C41.7275 75.408 38.906 75.5565 36.233 75.111C29.699 74.0715 24.353 69.666 20.5415 64.122Z" fill="#FFF000"/>
<path d="M19.7495 68.082L20.096 68.379C19.9475 68.5275 19.898 68.6265 19.898 68.7255C19.898 68.874 19.9475 68.973 19.997 69.072C20.096 69.171 20.195 69.27 20.294 69.27C20.393 69.27 20.492 69.27 20.591 69.171C20.6405 69.171 20.6405 69.1215 20.6405 69.072C20.69 69.0225 20.6405 68.9235 20.6405 68.874C20.6405 68.8245 20.591 68.676 20.492 68.5275C20.393 68.28 20.3435 68.082 20.3435 67.9335C20.393 67.7355 20.4425 67.587 20.591 67.4385C20.69 67.389 20.8385 67.3395 20.9375 67.29C21.086 67.29 21.185 67.29 21.3335 67.3395C21.4325 67.389 21.581 67.488 21.68 67.6365C21.878 67.8345 21.9275 68.082 21.9275 68.28C21.9275 68.478 21.8285 68.6265 21.6305 68.775L21.3335 68.478C21.4325 68.379 21.482 68.28 21.482 68.181C21.482 68.082 21.4325 67.983 21.3335 67.884C21.284 67.785 21.185 67.7355 21.086 67.7355C21.0365 67.686 20.987 67.7355 20.9375 67.785C20.888 67.785 20.8385 67.8345 20.8385 67.9335C20.8385 67.983 20.888 68.1315 20.987 68.3295C21.086 68.577 21.1355 68.7255 21.1355 68.874C21.185 68.973 21.185 69.072 21.1355 69.2205C21.086 69.3195 20.987 69.4185 20.888 69.567C20.7395 69.6165 20.6405 69.7155 20.492 69.7155C20.3435 69.765 20.195 69.7155 20.0465 69.666C19.9475 69.6165 19.799 69.5175 19.7 69.369C19.502 69.1215 19.403 68.9235 19.4525 68.7255C19.4525 68.478 19.5515 68.28 19.7495 68.082ZM22.373 68.5275L22.67 68.8245L21.68 69.8145C21.5315 69.963 21.4325 70.062 21.383 70.1115C21.3335 70.2105 21.3335 70.3095 21.3335 70.4085C21.3335 70.5075 21.383 70.6065 21.482 70.7055C21.5315 70.755 21.6305 70.8045 21.7295 70.854C21.8285 70.854 21.878 70.8045 21.977 70.755C22.0265 70.7055 22.1255 70.6065 22.274 70.458L23.3135 69.468L23.6105 69.8145L22.67 70.755C22.4225 70.953 22.274 71.1015 22.175 71.2005C22.076 71.25 21.977 71.2995 21.8285 71.2995C21.7295 71.2995 21.6305 71.2995 21.5315 71.25C21.383 71.2005 21.284 71.151 21.1355 71.0025C20.987 70.854 20.9375 70.7055 20.888 70.6065C20.8385 70.458 20.8385 70.359 20.8385 70.26C20.888 70.1115 20.888 70.0125 20.987 69.963C21.0365 69.8145 21.185 69.666 21.383 69.468L22.373 68.5275ZM22.1255 71.943L23.858 70.0125L24.155 70.359L23.4125 71.2005L24.848 70.953L25.2935 71.3985L24.0065 71.547L23.66 73.329L23.2145 72.933L23.561 71.5965L23.0165 71.6955L22.472 72.24L22.1255 71.943ZM25.442 74.715L25.046 74.3685L25.244 73.824L24.551 73.23L24.056 73.5765L23.66 73.2795L25.937 71.7945L26.2835 72.0915L25.442 74.715ZM25.3925 73.3785L25.739 72.438L24.947 72.9825L25.3925 73.3785ZM25.64 74.814L27.026 72.636L27.6695 73.0815C27.8675 73.23 28.016 73.329 28.0655 73.3785C28.1645 73.4775 28.214 73.626 28.214 73.7745C28.214 73.923 28.1645 74.121 28.0655 74.2695C27.9665 74.418 27.8675 74.517 27.7685 74.5665C27.6695 74.616 27.5705 74.6655 27.4715 74.6655C27.3725 74.6655 27.323 74.6655 27.224 74.6655C27.125 74.616 26.9765 74.517 26.828 74.418L26.5805 74.2695L26.036 75.0615L25.64 74.814ZM27.1745 73.2795L26.7785 73.8735L27.026 74.022C27.1745 74.121 27.2735 74.1705 27.323 74.1705C27.3725 74.22 27.4715 74.1705 27.521 74.1705C27.5705 74.121 27.62 74.0715 27.6695 74.022C27.719 73.923 27.719 73.8735 27.719 73.7745C27.719 73.725 27.6695 73.626 27.62 73.5765C27.62 73.527 27.521 73.4775 27.3725 73.3785L27.1745 73.2795ZM28.6595 73.6755L29.0555 73.923L28.412 75.1605C28.313 75.309 28.2635 75.4575 28.214 75.507C28.1645 75.606 28.1645 75.705 28.214 75.804C28.2635 75.903 28.313 76.002 28.412 76.0515C28.5605 76.101 28.6595 76.1505 28.7585 76.101C28.808 76.101 28.907 76.0515 28.9565 75.9525C29.006 75.903 29.0555 75.7545 29.1545 75.606L29.8475 74.3685L30.2435 74.5665L29.6 75.7545C29.4515 76.0515 29.3525 76.2 29.2535 76.299C29.1545 76.398 29.105 76.497 29.006 76.5465C28.907 76.5465 28.7585 76.596 28.6595 76.596C28.511 76.596 28.412 76.5465 28.214 76.4475C28.0655 76.3485 27.917 76.2495 27.8675 76.101C27.7685 76.002 27.719 75.903 27.719 75.804C27.719 75.705 27.719 75.606 27.7685 75.507C27.818 75.3585 27.8675 75.1605 28.016 74.913L28.6595 73.6755ZM29.4515 76.992L30.4415 74.616L31.3325 75.012C31.5305 75.111 31.679 75.21 31.778 75.309C31.877 75.3585 31.9265 75.507 31.9265 75.606C31.9265 75.7545 31.9265 75.903 31.877 76.0515C31.778 76.2 31.679 76.3485 31.5305 76.398C31.382 76.497 31.2335 76.497 31.0355 76.4475C31.085 76.5465 31.1345 76.6455 31.184 76.7445C31.184 76.8435 31.2335 76.992 31.2335 77.2395L31.3325 77.784L30.788 77.586L30.7385 76.9425C30.689 76.695 30.689 76.5465 30.6395 76.497C30.6395 76.4475 30.59 76.398 30.59 76.3485C30.5405 76.299 30.4415 76.2495 30.3425 76.2495L30.293 76.2L29.8475 77.19L29.4515 76.992ZM30.4415 75.804L30.7385 75.9525C30.9365 76.0515 31.085 76.101 31.1345 76.101C31.184 76.101 31.2335 76.0515 31.283 76.0515C31.3325 76.002 31.382 75.9525 31.4315 75.8535C31.4315 75.804 31.4315 75.705 31.4315 75.6555C31.4315 75.606 31.382 75.5565 31.3325 75.507C31.283 75.4575 31.184 75.408 31.0355 75.3585L30.689 75.21L30.4415 75.804ZM33.461 78.477L33.0155 78.3285L32.966 77.7345L32.1245 77.4375L31.778 77.9325L31.3325 77.784L32.9165 75.606L33.362 75.7545L33.461 78.477ZM32.966 77.2395V76.2495L32.372 77.091L32.966 77.2395ZM34.5005 78.7245L34.8965 76.2L35.342 76.2495L35.9855 78.1305L36.2825 76.398L36.6785 76.497L36.233 79.0215L35.7875 78.9225L35.1935 77.1405L34.8965 78.774L34.5005 78.7245ZM37.817 78.18L37.8665 77.784L38.8565 77.8335L38.7575 78.873C38.6585 78.972 38.51 79.071 38.312 79.1205C38.1635 79.17 37.9655 79.2195 37.7675 79.17C37.52 79.17 37.322 79.071 37.1735 78.972C37.025 78.8235 36.8765 78.675 36.827 78.4275C36.728 78.2295 36.728 77.982 36.728 77.7345C36.7775 77.487 36.827 77.2395 36.9755 77.0415C37.0745 76.8435 37.223 76.695 37.421 76.596C37.5695 76.5465 37.7675 76.497 37.9655 76.5465C38.2625 76.5465 38.4605 76.6455 38.609 76.794C38.7575 76.9425 38.8565 77.1405 38.8565 77.388L38.411 77.4375C38.3615 77.289 38.312 77.19 38.2625 77.091C38.1635 77.0415 38.0645 76.992 37.916 76.992C37.718 76.9425 37.5695 77.0415 37.4705 77.1405C37.322 77.289 37.223 77.487 37.223 77.784C37.1735 78.081 37.223 78.3285 37.322 78.477C37.421 78.6255 37.5695 78.7245 37.7675 78.7245C37.8665 78.7245 37.9655 78.7245 38.0645 78.7245C38.1635 78.675 38.2625 78.6255 38.312 78.576L38.3615 78.2295L37.817 78.18ZM41.183 79.1205H40.688L40.49 78.576H39.599L39.401 79.17L38.9555 79.2195L39.698 76.596H40.193L41.183 79.1205ZM40.3415 78.1305L39.995 77.19L39.698 78.18L40.3415 78.1305ZM41.084 76.5465L41.876 76.4475C42.074 76.398 42.2225 76.398 42.3215 76.4475C42.47 76.4475 42.569 76.497 42.7175 76.596C42.8165 76.695 42.9155 76.8435 42.965 76.992C43.0145 77.1405 43.064 77.3385 43.1135 77.586C43.163 77.784 43.163 77.982 43.1135 78.1305C43.1135 78.3285 43.0145 78.477 42.965 78.6255C42.866 78.7245 42.767 78.8235 42.668 78.873C42.569 78.9225 42.4205 78.972 42.272 78.972L41.4305 79.1205L41.084 76.5465ZM41.579 76.9425L41.8265 78.6255L42.173 78.576C42.272 78.5265 42.371 78.5265 42.4205 78.477C42.47 78.477 42.569 78.4275 42.569 78.378C42.6185 78.3285 42.668 78.2295 42.668 78.081C42.668 77.982 42.668 77.8335 42.668 77.6355C42.6185 77.4375 42.569 77.289 42.5195 77.19C42.5195 77.091 42.4205 76.992 42.371 76.9425C42.3215 76.893 42.2225 76.893 42.173 76.893C42.074 76.8435 41.975 76.893 41.777 76.893L41.579 76.9425ZM45.638 78.279L45.143 78.4275L44.7965 77.883L43.955 78.1305L43.9055 78.7245L43.46 78.8235L43.658 76.1505L44.153 76.002L45.638 78.279ZM44.5985 77.5365L44.054 76.6455L43.955 77.685L44.5985 77.5365ZM45.044 75.804L45.44 75.6555L45.8855 76.992C45.9845 77.19 46.034 77.3385 46.0835 77.388C46.133 77.487 46.1825 77.5365 46.2815 77.586C46.3805 77.586 46.4795 77.586 46.5785 77.5365C46.727 77.5365 46.7765 77.4375 46.826 77.388C46.8755 77.289 46.8755 77.19 46.8755 77.1405C46.8755 77.0415 46.826 76.893 46.7765 76.695L46.2815 75.3585L46.727 75.21L47.1725 76.497C47.2715 76.794 47.321 76.992 47.321 77.1405C47.3705 77.2395 47.3705 77.388 47.321 77.487C47.2715 77.586 47.222 77.685 47.123 77.7345C47.024 77.8335 46.925 77.9325 46.727 77.982C46.529 78.0315 46.3805 78.081 46.2815 78.0315C46.133 78.0315 46.034 77.982 45.935 77.9325C45.836 77.883 45.7865 77.784 45.737 77.685C45.638 77.586 45.5885 77.388 45.4895 77.091L45.044 75.804ZM48.014 77.4375L46.9745 75.111L47.3705 74.913L48.905 76.101L48.212 74.5665L48.608 74.3685L49.6475 76.7445L49.202 76.893L47.717 75.7545L48.41 77.289L48.014 77.4375ZM50.8355 76.101L49.499 73.923L49.895 73.6755L51.578 74.6655L50.6375 73.1805L51.0335 72.9825L52.37 75.1605L51.974 75.408L50.3405 74.4675L51.182 75.8535L50.8355 76.101ZM53.063 73.4775L52.8155 73.131L53.6075 72.537L54.2015 73.3785C54.2015 73.4775 54.1025 73.6755 54.053 73.824C53.954 74.022 53.8055 74.121 53.657 74.2695C53.459 74.418 53.261 74.4675 53.063 74.517C52.865 74.517 52.667 74.4675 52.469 74.3685C52.271 74.22 52.1225 74.0715 51.974 73.8735C51.776 73.6755 51.677 73.4775 51.6275 73.23C51.6275 72.9825 51.6275 72.7845 51.7265 72.5865C51.776 72.438 51.875 72.2895 52.073 72.141C52.271 71.9925 52.5185 71.8935 52.7165 71.8935C52.9145 71.943 53.1125 71.9925 53.261 72.1905L52.964 72.537C52.865 72.438 52.766 72.3885 52.667 72.3885C52.5185 72.3885 52.4195 72.438 52.3205 72.4875C52.172 72.636 52.073 72.7845 52.073 72.9825C52.073 73.131 52.172 73.3785 52.3205 73.5765C52.5185 73.824 52.667 73.9725 52.865 74.022C53.063 74.0715 53.2115 74.022 53.36 73.923C53.459 73.8735 53.5085 73.7745 53.558 73.6755C53.6075 73.626 53.657 73.527 53.657 73.428L53.459 73.1805L53.063 73.4775ZM53.8055 72.4875C53.657 72.2895 53.558 72.0915 53.459 71.943C53.4095 71.7945 53.4095 71.646 53.4095 71.547C53.4095 71.3985 53.4095 71.25 53.459 71.151C53.558 71.0025 53.657 70.854 53.756 70.755C54.0035 70.557 54.3005 70.458 54.5975 70.5075C54.8945 70.557 55.1915 70.7055 55.4885 71.052C55.736 71.349 55.8845 71.646 55.8845 71.943C55.8845 72.2895 55.736 72.537 55.4885 72.735C55.241 72.9825 54.9935 73.0815 54.6965 73.032C54.35 72.9825 54.1025 72.7845 53.8055 72.4875ZM54.152 72.1905C54.35 72.3885 54.548 72.537 54.746 72.537C54.8945 72.5865 55.0925 72.537 55.1915 72.438C55.34 72.2895 55.439 72.141 55.3895 71.943C55.3895 71.745 55.2905 71.547 55.0925 71.349C54.8945 71.1015 54.746 71.0025 54.548 70.953C54.35 70.9035 54.2015 70.953 54.053 71.1015C53.9045 71.2005 53.855 71.349 53.855 71.547C53.855 71.745 53.954 71.943 54.152 72.1905ZM56.528 71.745L54.746 69.963L55.3895 69.2205C55.538 69.072 55.6865 68.973 55.7855 68.9235C55.934 68.874 56.033 68.874 56.1815 68.874C56.2805 68.9235 56.429 68.973 56.528 69.1215C56.6765 69.2205 56.726 69.369 56.7755 69.5175C56.7755 69.7155 56.726 69.864 56.627 70.0125C56.726 70.0125 56.825 70.0125 56.924 70.0125C57.023 70.0125 57.1715 70.062 57.419 70.1115L57.9635 70.26L57.5675 70.656L56.9735 70.5075C56.726 70.458 56.5775 70.4085 56.528 70.4085C56.429 70.4085 56.3795 70.4085 56.33 70.458C56.2805 70.458 56.231 70.5075 56.1815 70.557L56.0825 70.656L56.8745 71.3985L56.528 71.745ZM55.835 70.359L56.033 70.1115C56.1815 69.963 56.2805 69.864 56.33 69.8145C56.33 69.765 56.33 69.666 56.33 69.6165C56.2805 69.567 56.2805 69.5175 56.231 69.468C56.132 69.4185 56.0825 69.369 56.033 69.369C55.9835 69.369 55.8845 69.369 55.835 69.4185C55.7855 69.4185 55.736 69.5175 55.5875 69.666L55.34 69.9135L55.835 70.359ZM59.399 68.5275L59.102 68.9235L58.5575 68.676L57.9635 69.369L58.2605 69.9135L57.9635 70.26L56.5775 67.9335L56.8745 67.587L59.399 68.5275ZM58.112 68.5275L57.1715 68.1315L57.716 69.0225L58.112 68.5275Z" fill="#332C2B"/>
</svg>
