<?xml version="1.0" encoding="UTF-8"?>
<!DOCTYPE svg PUBLIC "-//W3C//DTD SVG 1.1//EN" "http://www.w3.org/Graphics/SVG/1.1/DTD/svg11.dtd">
<!-- Creator: CorelDRAW X8 -->
<svg xmlns="http://www.w3.org/2000/svg" xml:space="preserve" width="2480px" height="3508px" version="1.1" style="shape-rendering:geometricPrecision; text-rendering:geometricPrecision; image-rendering:optimizeQuality; fill-rule:evenodd; clip-rule:evenodd"
viewBox="0 0 2480 3507"
 xmlns:xlink="http://www.w3.org/1999/xlink">
 <defs>
  <style type="text/css">
   <![CDATA[
    .fil0 {fill:#F6B900}
    .fil1 {fill:#F6B900;fill-rule:nonzero}
   ]]>
  </style>
 </defs>
 <g id="Layer_x0020_1">
  <metadata id="CorelCorpID_0Corel-Layer"/>
  <g id="_2441402916544">
   <path class="fil0" d="M2055 2619c-52,48 -111,83 -172,116l-1 1c-65,34 -131,63 -197,94 -73,34 -144,70 -213,111 -73,43 -142,92 -206,148l-26 22 -26 -22c-64,-56 -133,-105 -206,-148 -69,-41 -140,-77 -213,-111 -66,-31 -132,-60 -197,-94l-1 -1c-61,-33 -120,-68 -172,-116 -62,-54 -109,-117 -144,-192 -43,-94 -64,-197 -73,-299 -12,-125 -8,-250 -5,-374 2,-64 5,-129 6,-193 2,-68 2,-136 0,-204 -1,-64 -4,-127 -10,-189 -9,-86 -30,-194 -77,-267l-18 -28 24 -22c161,-148 323,-295 485,-441l12 -10 15 0c400,0 800,0 1200,0l15 0 12 10c162,146 324,293 485,441l24 22 -18 28c-47,73 -68,181 -77,266 -6,63 -9,126 -10,190 -2,68 -2,136 0,204 1,64 4,129 6,193 3,124 7,249 -5,374 -9,102 -30,205 -73,299 -35,75 -82,138 -144,192zm-815 440c66,-57 137,-108 212,-152 70,-42 143,-77 216,-112 66,-31 131,-60 196,-94 58,-32 115,-66 165,-111 57,-50 100,-108 134,-180 41,-89 61,-188 70,-286 12,-122 7,-247 4,-369 -1,-65 -4,-129 -5,-193 -2,-69 -2,-137 0,-206 1,-64 4,-129 10,-193 10,-92 32,-204 83,-283 -161,-148 -323,-295 -485,-441 -400,0 -800,0 -1200,0 -162,146 -324,293 -485,441 51,79 73,191 83,283 6,64 9,129 10,193 2,69 2,137 0,206 -1,64 -4,128 -5,193 -3,122 -8,247 4,369 9,98 29,197 70,286 34,72 77,130 134,180 50,45 107,79 165,111 65,34 130,63 196,94 73,35 146,70 216,112 75,44 146,95 212,152l0 0z"/>
   <path class="fil0" d="M1240 2989c58,-48 121,-92 187,-130 71,-43 145,-79 220,-114 65,-31 130,-60 195,-94 54,-29 108,-61 154,-103 52,-46 91,-98 120,-161 38,-83 57,-177 66,-269 12,-121 7,-242 3,-362 -2,-64 -3,-128 -4,-193 -2,-70 -3,-138 -2,-207 2,-67 4,-133 12,-199 10,-87 27,-185 68,-265 -146,-133 -292,-266 -438,-399 -387,0 -775,0 -1162,0 -146,133 -292,266 -438,399 41,80 58,178 68,265 8,66 10,132 12,199 1,69 0,137 -2,207 -1,65 -2,129 -4,193 -4,120 -9,241 3,362 9,92 28,186 66,269 29,63 68,115 120,161 46,42 100,74 154,103 65,34 130,63 195,94 75,35 149,71 220,114 66,38 129,82 187,130l0 0zm0 -38c54,-44 112,-83 172,-118 72,-42 147,-80 223,-115 64,-30 130,-59 193,-93 53,-28 104,-59 149,-99 48,-43 85,-93 112,-151 37,-81 55,-172 63,-259 12,-120 7,-240 3,-359 -2,-64 -3,-129 -4,-193 -2,-70 -3,-139 -2,-209 2,-67 5,-134 12,-201 10,-85 26,-176 62,-255 -138,-126 -275,-251 -413,-376 -380,0 -760,0 -1140,0 -138,125 -275,250 -413,376 36,79 52,170 62,255 7,67 10,134 12,201 1,70 0,139 -2,209 -1,64 -2,129 -4,193 -4,119 -9,239 3,359 8,87 26,178 63,259 27,58 64,108 112,151 45,40 96,71 149,99 63,34 129,63 193,93 76,35 151,73 223,115 60,35 118,74 172,118z"/>
   <path class="fil0" d="M1240 2967c57,-45 117,-83 178,-118 72,-40 146,-76 222,-110 64,-27 130,-55 193,-87 54,-28 107,-57 152,-96 6,-5 13,-11 19,-16l-107 0c-26,11 -55,8 -82,0l-1 0c-146,152 -340,251 -561,253 -227,2 -436,-96 -591,-253l-1 0c-28,8 -56,11 -82,0l-103 0c6,5 13,11 19,16 45,39 98,68 152,96 63,32 129,60 193,87 76,34 150,70 222,110 61,35 121,73 178,118l0 0zm173 -427l-117 0 0 25c27,-2 53,-7 78,-14 14,-3 27,-7 39,-11zm-234 25l0 -25 -116 0c28,9 56,16 86,21 10,2 20,3 30,4zm864 -67c22,-27 41,-57 57,-90 31,-62 48,-131 59,-201l-1 1 0 0 0 0 0 0 0 0 0 1 0 0 0 0 0 0 0 1 0 0 0 1 0 0 0 1 0 0 0 0 0 0 0 0 -1 1 0 0 0 0 0 1 0 0 0 0 0 0 0 1 0 0 0 0 0 0 0 0 0 1 0 0 0 0 0 0 0 1 0 0 0 0 0 1 0 0 0 0 0 0 0 0 -1 1 0 0 0 0 0 0 0 1 0 0 0 0 0 0 0 1 0 0 0 0 0 0 0 1 0 0 0 0 0 0 0 0 0 1 0 0 0 0 0 0 0 1 0 0 0 0 -1 1 0 0 0 0 0 0 0 0 0 1 0 0 0 0 0 0 0 1 0 0 0 0 0 0 0 0 0 1 0 0 0 0 0 1 0 0 0 0 0 0 0 0 0 1 0 0 0 0 0 0 0 1 0 0 -1 0 0 0 0 0 0 1 0 0 0 0 0 0 0 1 0 0 -98 -172 -260 0 85 151c23,-17 49,-30 77,-40 10,-3 20,0 27,8 6,8 6,19 0,28 -12,18 -19,35 -23,54 45,-6 87,4 126,32 7,5 11,14 9,23 -2,9 -8,16 -17,18 -43,12 -68,37 -88,73l51 90zm117 -302c2,-12 3,-25 4,-38 5,-39 7,-80 8,-120l0 0 0 0 -1 1 0 0 0 0 0 0 0 0 0 0 0 1 0 0 0 0 0 0 0 0 0 0 0 1 0 0 0 0 0 0 0 1 0 0 0 0 0 0 0 0 0 0 0 1 0 0 0 0 0 0 0 0 0 0 0 1 0 0 0 0 0 0 0 0 0 0 0 1 0 0 0 0 0 0 0 0 0 1 0 0 0 0 0 0 0 0 0 0 0 1 0 0 0 0 0 0 0 0 0 1 0 0 0 0 0 0 0 0 -1 1 0 0 0 0 0 0 0 0 0 0 0 1 0 0 0 0 0 0 0 0 0 0 0 1 0 0 0 0 0 1 0 0 0 0 0 0 0 0 0 0 0 1 0 0 0 0 0 0 0 0 0 0 0 1 0 0 0 0 0 0 0 0 0 1 0 0 0 0 0 0 0 0 0 1 0 0 0 0 0 0 0 0 0 0 0 1 0 0 0 0 0 0 0 0 0 0 0 1 0 0 0 0 0 0 0 0 0 1 0 0 0 0 0 0 0 0 0 0 0 1 0 0 0 0 0 0 0 0 0 0 0 1 -87 0 77 135zm12 -159c1,-71 -1,-144 -3,-215l0 0 0 5 -219 0 120 210 102 0zm-41 -235c-66,-33 -130,-62 -206,-57 -7,0 -13,1 -20,2l32 55 194 0zm-249 -50l-3 1c-27,7 -54,17 -81,24 -37,11 -73,16 -111,16l-1 0c-14,0 -28,-1 -42,-2l6 11 260 0 -28 -50zm-268 35c-51,-6 -101,-16 -153,-20 -39,-4 -79,-4 -118,5 -12,2 -23,5 -35,8l-12 3 0 19 327 0 -9 -15zm-318 40l0 210 201 0c18,-2 37,-7 56,-16 0,-4 1,-9 1,-14 -11,1 -22,-1 -32,-5 -46,-18 -62,-87 -38,-128 0,0 0,-1 1,-1 22,-34 65,-40 102,-31 0,0 0,0 0,0 35,10 68,34 87,66 22,38 23,85 15,129l67 0 -119 -210 -341 0zm0 234l0 27c14,-11 29,-20 46,-27l-46 0zm0 372l0 82 178 0c120,-57 218,-153 293,-261l4 -7c3,-7 8,-11 15,-13 7,-1 13,0 19,4l8 5c7,4 13,8 19,11 10,-10 20,-19 30,-28l-93 -165 -55 0c0,0 1,0 1,1 9,8 13,19 11,31 -6,27 -17,49 -31,70 6,2 12,6 16,12 6,9 7,20 3,30 -15,36 -38,59 -66,79 2,3 4,7 5,12 2,10 -1,20 -8,28 -12,13 -22,24 -38,34 -6,3 -11,6 -17,8 -1,9 -6,17 -15,22 -13,9 -25,19 -38,29 -41,33 -77,44 -129,46 -42,3 -78,-8 -112,-30zm635 82l95 0 -47 -83c-14,28 -27,60 -48,83zm-752 0l0 -82c-33,22 -69,33 -111,30 -52,-2 -88,-13 -129,-46 -13,-10 -25,-20 -39,-29 -8,-5 -13,-13 -15,-22 -5,-2 -11,-5 -16,-8 -16,-10 -26,-21 -38,-34 -8,-8 -10,-18 -8,-28 1,-5 3,-9 5,-12 -28,-20 -52,-43 -66,-79 -4,-10 -3,-21 3,-30 4,-6 9,-10 15,-12 -13,-21 -25,-43 -30,-70 -3,-12 1,-23 10,-31 1,-1 1,-1 2,-1l-42 0 -98 173c8,7 15,13 22,20 6,-3 12,-7 18,-11l9 -5c5,-4 12,-5 19,-4 6,2 11,6 15,13l3 7c76,109 175,205 294,261l177 0zm-676 -69l-38 69 80 0c-18,-19 -30,-45 -42,-69zm476 -409l200 0 0 -210 -326 0 -30 54c18,-18 41,-32 65,-39 0,0 1,0 1,0 36,-9 80,-3 102,31 0,0 0,1 1,1 24,41 8,110 -38,128 -11,4 -22,6 -32,5 0,5 0,10 1,14 19,9 37,14 56,16zm-192 -93l-52 93 52 0c-6,-31 -7,-63 0,-93zm392 144l0 -27 -45 0c16,7 31,16 45,27zm0 -286l0 -21 -8 -1c-15,-3 -30,-5 -45,-8 -39,-9 -78,-9 -117,-5 -45,4 -89,12 -133,18l-10 17 313 0zm-331 -14c-21,3 -43,5 -64,5l-1 0c-37,0 -72,-5 -108,-14 -23,-7 -46,-15 -69,-22l-26 45 260 0 8 -14zm-265 -37c-13,-3 -25,-5 -38,-6 -76,-5 -139,25 -205,57l214 0 29 -51zm-272 66c-2,73 -4,147 -3,220l113 0 119 -210 -229 0 0 -10zm-3 221c1,40 3,81 8,120 8,86 26,174 64,250 17,36 38,68 63,98l48 -86 0 0c-22,-42 -48,-72 -95,-85 -9,-2 -16,-9 -17,-18 -2,-9 1,-18 9,-23 38,-28 81,-38 125,-32 -3,-19 -10,-36 -23,-54 -5,-9 -5,-20 1,-28 6,-8 17,-11 26,-8 33,11 62,27 87,47l90 -158 -260 0 -105 185 0 0 -1 -1 0 -1 0 0 0 -1 0 0 0 -1 0 0 0 0 0 -1 -1 0 0 0 0 -1 0 0 0 -1 0 -1 0 0 0 0 0 0 0 -1 0 0 0 -1 0 0 -1 0 0 0 0 -1 0 0 0 0 0 -1 0 -1 0 0 0 0 0 -1 0 0 0 0 0 0 0 -1 0 0 0 0 -1 -1 0 0 0 0 0 -1 0 -1 0 0 0 -1 0 0 0 0 0 -1 0 0 0 0 0 -1 0 0 0 -1 0 0 0 0 -1 -1 0 0 0 0 0 -1 0 0 0 0 0 0 0 -1 0 -1 0 0 0 -1 0 0 0 0 0 -1 0 -1 0 0 0 0 0 -1 0 0 0 0 0 0 -1 -1 0 0 0 -1 0 0 0 0 0 -1 0 0 0 0 0 0 0 -1 0 0 0 -1 0 0 0 0 0 -1 0 0 0 0 0 0 85 -149 -98 0 0 -1 0 0 0 0 0 0 0 0 0 0 0 -1 0 0 0 0 0 0 0 0 0 0 0 -1 0 0 0 0 0 0 0 0 0 -1 0 0 0 0 0 0 0 0 0 0 0 -1 0 0 0 0 0 0 0 0 0 0 0 -1 0 0 0 0 0 0 0 0 0 -1 0 0 0 0 0 0 0 0 0 -1 0 0 0 0 0 0 0 0 0 0 0 -1 0 0 0 0 0 0 0 0 0 0 0 -1 0 0 0 0 0 -1 0 0 0 0 0 0 0 0 0 0 0 -1 0 0 0 0 0 0 0 0 0 0 -1 -1 0 0 0 0 0 0 0 0 0 -1 0 0 0 0 0 0 0 0 0 0 0 -1 0 0 0 0 0 0 0 0 0 -1 0 0 0 0 0 0 0 0 0 -1 0 0 0 0 0 0 0 0 0 0 0 -1 0 0 0 0 0 0 0 0 0 0 0 -1 0 0 0 0 0 0 0 0 0 0 0 -1 0 0 0 0 0 0 0 -1 0 0 0 0 0 0 0 0 0 0 0 -1 0 0 0 0 0 0 0 0 0 0 -1 -1 0 0 0 0zm1474 -1l-118 -210 259 0 119 210 -260 0zm-1335 0l261 0 119 -210 -260 0 -120 210z"/>
   <path class="fil0" d="M2169 1769c-78,-39 -152,-76 -247,-71 -77,5 -131,48 -235,48 -121,-2 -232,-46 -354,-20 -12,3 -25,6 -37,9l0 -61 2 -1c12,-4 25,-7 38,-12 73,-19 145,-6 217,8 43,7 87,16 134,16l0 0c60,0 104,-16 144,-31 30,-10 59,-22 91,-23 93,-8 168,36 245,81l0 0 -1 -30c-76,-46 -151,-85 -245,-79 -35,3 -66,13 -98,25 -38,14 -81,29 -136,30 -44,-1 -88,-8 -130,-17 -75,-13 -148,-27 -226,-6 -12,2 -23,6 -35,10l0 -87 2 0c12,-5 25,-9 38,-12 73,-19 145,-6 217,7 43,7 87,16 134,16l0 0c60,0 104,-16 144,-30 30,-12 59,-22 91,-24 91,-7 164,35 241,80 2,54 4,108 6,163l0 11 0 0zm-873 -239l0 -71 2 -1c12,-3 25,-7 38,-10 73,-19 145,-6 217,6 43,9 87,16 134,17l0 0c60,0 104,-16 144,-30 30,-12 59,-22 91,-25 91,-6 164,35 240,80 0,-10 0,-22 0,-32 -75,-42 -148,-82 -241,-74 -35,1 -66,13 -98,24 -38,15 -81,30 -136,30 -44,0 -88,-9 -130,-16 -75,-14 -148,-27 -226,-6 -12,2 -23,6 -35,9l0 -83 868 -10c-1,25 -1,49 -1,71 -1,52 -1,103 -1,154 -74,-44 -148,-81 -241,-76 -35,3 -66,14 -98,25 -38,15 -81,29 -136,31 -44,-2 -88,-9 -130,-18 -75,-13 -148,-26 -226,-5 -12,2 -23,6 -35,10zm-117 204c-16,-3 -31,-5 -43,-8 -121,-26 -232,18 -353,20 -104,0 -156,-43 -235,-48 -91,-5 -162,29 -237,66l0 -6c1,-17 1,-34 2,-52 74,-42 146,-81 235,-75 32,1 61,13 92,23 39,15 83,31 143,31l0 0c47,0 90,-9 136,-16 71,-14 141,-27 214,-8 8,3 18,5 28,6 6,1 12,2 18,4l0 63zm-865 -51c1,-31 2,-62 3,-92l0 -2c73,-42 144,-80 231,-74 32,2 61,12 92,24 39,14 83,30 143,30l0 0c47,0 90,-9 136,-16 71,-13 141,-26 214,-7 8,1 18,4 28,6 6,1 12,2 18,3l0 88c-4,0 -9,-1 -13,-2 -11,-2 -19,-5 -27,-6 -77,-21 -152,-7 -225,6 -43,9 -87,16 -131,17 -56,-1 -96,-16 -136,-30 -32,-12 -61,-22 -98,-25 -90,-6 -162,30 -235,73l0 7zm4 -126c0,-49 0,-98 -1,-148 0,-16 0,-34 -1,-50l863 -10 0 80c-4,-1 -9,-2 -13,-3 -11,-1 -19,-3 -27,-4 -77,-21 -152,-8 -225,6 -43,7 -87,16 -131,16 -56,0 -96,-15 -136,-30 -32,-11 -61,-23 -98,-24 -89,-8 -159,27 -231,68l0 0c0,12 0,22 0,32 72,-42 142,-80 230,-74 32,3 61,13 92,25 39,14 83,30 143,30l0 0c47,-1 90,-8 136,-17 71,-12 141,-25 214,-6 8,1 18,3 28,6 6,1 12,2 18,3l0 71c-4,-1 -9,-2 -13,-3 -11,-3 -19,-4 -27,-5 -77,-21 -152,-8 -225,5 -43,9 -87,16 -131,18 -56,-2 -96,-16 -136,-31 -32,-11 -61,-22 -98,-25 -89,-5 -160,29 -231,70z"/>
   <path class="fil0" d="M2163 1303c1,-21 2,-42 4,-64l-871 -288 0 352 179 0 0 -19c0,-30 23,-54 51,-54l0 0c28,0 51,24 51,54l0 19 249 0 0 -73 100 0 0 73 237 0zm-984 -390l-320 -106 -82 70 -70 -42 -399 347c4,40 7,81 8,121l233 0 0 -73 102 0 0 73 247 0 0 -19c0,-30 24,-54 51,-54l0 0c28,0 51,24 51,54l0 19 179 0 0 -390z"/>
   <path class="fil1" d="M608 731l0 -99 19 0 0 43 39 -43 25 0 -35 39 36 60 -24 0 -25 -47 -16 18 0 29 -19 0 0 0zm179 0l-20 0 -7 -22 -38 0 -9 22 -19 0 36 -99 19 0 38 99zm-35 -39l-13 -37 -12 37 25 0 0 0zm45 -60l38 0c8,0 14,0 18,0 3,1 6,3 9,4 3,3 6,6 7,9 3,3 3,7 3,11 0,5 0,9 -3,14 -3,4 -6,7 -10,8 6,2 10,5 13,9 3,5 6,10 6,15 0,6 -2,10 -5,14 -1,5 -4,8 -7,11 -4,1 -7,4 -13,4 -3,0 -10,0 -23,0l-33 0 0 -99 0 0zm19 16l0 23 14 0c7,0 11,0 13,0 4,0 6,-1 9,-4 1,-2 2,-5 2,-8 0,-3 -1,-5 -2,-7 -2,-1 -5,-3 -8,-4 -1,0 -7,0 -16,0l-12 0 0 0zm0 39l0 28 19 0c6,0 11,0 12,-2 3,0 6,-1 7,-3 2,-2 3,-5 3,-8 0,-3 0,-6 -1,-8 -2,-2 -4,-4 -6,-5 -3,0 -9,-2 -17,-2l-17 0 0 0zm76 44l0 -19 19 0 0 19 -19 0zm95 0l0 -83 -27 0 0 -16 74 0 0 16 -28 0 0 83 -19 0zm135 0l-21 0 -7 -22 -38 0 -9 22 -19 0 37 -99 20 0 37 99zm-34 -39l-13 -37 -13 37 26 0 0 0zm40 7l19 -2c0,6 2,12 5,15 5,3 9,4 15,4 6,0 10,-1 13,-4 3,-3 5,-6 5,-9 0,-3 0,-4 -2,-7 -1,-2 -3,-3 -7,-4 -2,0 -8,-2 -15,-5 -10,-1 -17,-6 -22,-9 -6,-5 -9,-13 -9,-20 0,-6 2,-10 5,-15 3,-4 7,-7 12,-10 5,-3 11,-3 19,-3 11,0 20,2 26,7 6,6 9,14 10,24l-19 0c-1,-6 -3,-9 -6,-12 -3,-1 -7,-3 -11,-3 -6,0 -11,2 -14,5 -1,1 -3,3 -3,5 0,2 2,5 3,6 2,2 8,5 18,8 9,1 16,4 20,7 5,1 8,6 11,10 2,3 4,9 4,15 0,6 -2,11 -6,17 -3,5 -7,9 -12,10 -5,3 -13,5 -20,5 -13,0 -22,-3 -28,-9 -7,-6 -10,-15 -11,-26l0 0zm92 32l0 -99 19 0 0 99 -19 0zm38 0l0 -99 19 0 0 43 37 -43 27 0 -35 39 36 60 -25 0 -24 -47 -16 18 0 29 -19 0 0 0zm94 0l0 -99 28 0 18 68 16 -68 29 0 0 99 -18 0 0 -79 -19 79 -17 0 -19 -79 0 79 -18 0zm195 0l-21 0 -7 -22 -38 0 -9 22 -19 0 37 -99 20 0 37 99zm-35 -39l-14 -37 -11 37 25 0 0 0zm46 39l0 -99 19 0 0 83 47 0 0 16 -66 0zm165 0l-20 0 -9 -22 -38 0 -7 22 -21 0 37 -99 20 0 38 99zm-35 -39l-13 -37 -13 37 26 0 0 0zm57 39l0 -41 -33 -58 22 0 22 39 21 -39 22 0 -33 58 0 41 -21 0 0 0zm138 0l-21 0 -9 -22 -38 0 -7 22 -20 0 36 -99 21 0 38 99zm-35 -39l-14 -37 -13 37 27 0 0 0z"/>
   <path class="fil0" d="M1275 827c-35,12 -64,34 -74,73l0 1691c3,0 7,0 11,1l0 -179 51 0 0 179c4,0 8,-1 12,-1l0 -1764zm-63 1361l0 211 51 0 0 -211 -51 0zm0 -224l0 211 51 0 0 -211 -51 0zm0 -225l0 211 51 0 0 -211 -51 0zm0 -225l0 211 51 0 0 -211 -51 0zm0 -225l0 212 51 0 0 -212 -51 0zm0 -225l0 212 51 0 0 -212 -51 0zm51 -207c-13,21 -29,40 -51,49l0 145 51 0 0 -194z"/>
   <path class="fil1" d="M657 2389l11 8c-5,5 -6,8 -6,10 0,5 1,8 3,11 3,3 5,6 8,6 3,0 6,0 9,-3 2,0 2,-2 2,-3 1,-2 0,-5 0,-6 0,-2 -2,-6 -5,-10 -3,-8 -4,-13 -4,-18 1,-6 3,-10 7,-14 3,-2 7,-3 10,-5 5,0 8,0 12,2 3,1 7,4 10,8 6,6 8,14 8,19 0,6 -3,11 -9,15l-9 -9c3,-3 4,-6 4,-9 0,-2 -1,-5 -4,-8 -1,-3 -4,-5 -7,-5 -2,-1 -3,0 -5,2 -1,0 -3,1 -3,4 0,2 2,6 5,12 3,7 4,11 4,16 2,3 2,6 0,10 -1,3 -4,6 -7,10 -4,2 -7,5 -12,5 -4,1 -9,0 -13,-2 -3,-1 -7,-4 -10,-9 -6,-7 -9,-13 -7,-19 0,-7 2,-13 8,-18zm78 13l8 8 -29 30c-4,4 -7,7 -9,8 -1,3 -1,6 -1,9 0,3 1,6 4,9 2,1 5,3 8,4 3,0 4,-1 7,-3 1,-1 4,-4 9,-8l30 -30 9 11 -28 27c-7,6 -11,11 -14,14 -3,1 -6,2 -10,2 -3,0 -6,0 -9,-1 -5,-1 -7,-3 -12,-7 -4,-5 -6,-9 -7,-12 -2,-4 -2,-7 -2,-10 2,-5 2,-8 5,-9 1,-4 6,-9 11,-15l30 -27 0 0zm-8 100l52 -57 8 11 -22 25 43 -8 13 13 -38 5 -10 52 -13 -11 10 -40 -16 3 -16 16 -11 -9 0 0zm98 82l-11 -10 5 -16 -20 -18 -15 11 -11 -9 67 -44 10 9 -25 77 0 0zm-1 -39l10 -28 -23 16 13 12 0 0zm7 42l41 -64 19 13c6,4 10,7 12,9 3,3 4,7 4,11 0,5 -1,11 -4,15 -3,4 -6,7 -9,9 -3,1 -6,3 -9,3 -3,0 -4,0 -7,0 -3,-2 -7,-5 -12,-8l-7 -4 -16 23 -12 -7zm45 -45l-11 17 7 5c4,3 7,4 9,4 1,2 4,0 6,0 1,-1 2,-3 4,-4 1,-3 1,-5 1,-8 0,-1 -1,-4 -3,-5 0,-2 -2,-3 -7,-6l-6 -3 0 0zm44 12l12 7 -19 36c-3,5 -5,9 -6,11 -1,2 -1,5 0,8 1,3 3,6 6,8 4,1 7,3 10,1 2,0 4,-1 6,-4 1,-2 3,-6 6,-11l20 -36 12 6 -19 35c-4,9 -7,13 -10,16 -3,3 -5,6 -8,7 -3,0 -7,2 -10,2 -4,0 -7,-2 -13,-5 -4,-3 -9,-6 -10,-10 -3,-3 -5,-6 -5,-9 0,-3 0,-6 2,-8 1,-5 3,-11 7,-18l19 -36 0 0zm24 97l29 -70 26 12c6,3 10,6 13,9 3,1 5,6 5,8 0,5 0,9 -2,14 -3,4 -6,8 -10,10 -5,3 -9,3 -15,1 2,3 3,6 5,9 0,3 1,7 1,15l3 16 -16 -6 -1 -19c-2,-7 -2,-12 -3,-13 0,-2 -2,-3 -2,-5 -1,-1 -4,-3 -7,-3l-2 -1 -13 29 -11 -6 0 0zm29 -35l9 5c5,3 10,4 11,4 2,0 3,-1 5,-1 1,-2 2,-3 4,-6 0,-2 0,-5 0,-6 0,-2 -2,-3 -3,-4 -1,-2 -4,-3 -9,-5l-10 -4 -7 17 0 0zm89 79l-13 -4 -2 -18 -25 -8 -10 14 -13 -4 47 -65 13 5 3 80 0 0zm-15 -36l0 -30 -17 25 17 5zm45 44l12 -75 13 1 19 56 9 -51 12 3 -13 74 -14 -3 -17 -52 -9 48 -12 -1 0 0zm98 -17l2 -11 29 1 -3 31c-3,3 -7,6 -13,7 -4,2 -10,3 -16,2 -7,0 -13,-3 -18,-6 -4,-5 -8,-9 -10,-16 -3,-6 -3,-13 -3,-21 2,-7 3,-14 8,-20 2,-6 7,-10 13,-13 4,-2 10,-3 16,-2 8,0 14,3 19,8 4,4 7,10 7,17l-13 2c-2,-5 -3,-8 -5,-11 -2,-1 -5,-3 -10,-3 -6,-1 -10,2 -13,5 -4,4 -7,10 -7,19 -2,9 0,16 3,20 3,5 7,8 13,8 3,0 6,0 9,0 3,-2 5,-3 7,-5l1 -10 -16 -2 0 0zm100 28l-15 0 -6 -16 -26 0 -6 18 -13 1 22 -77 14 0 30 74 0 0zm-25 -29l-10 -28 -9 29 19 -1zm22 -47l23 -3c6,-1 10,-1 13,0 5,0 8,2 12,5 3,3 6,7 7,11 2,5 3,11 5,18 1,6 1,12 0,16 0,6 -3,10 -5,15 -3,3 -6,5 -9,7 -2,1 -7,3 -11,3l-25 4 -10 -76 0 0zm14 12l8 50 10 -2c3,-1 6,-1 7,-3 2,0 5,-1 5,-3 1,-1 2,-4 2,-8 0,-3 0,-8 0,-14 -1,-5 -2,-10 -4,-13 0,-3 -3,-6 -4,-7 -2,-2 -5,-2 -6,-2 -3,-1 -6,0 -12,0l-6 2 0 0zm120 39l-15 5 -10 -16 -25 7 -1 18 -13 2 6 -78 14 -5 44 67 0 0zm-31 -22l-16 -26 -3 31 19 -5zm14 -51l11 -4 13 39c3,6 5,11 6,12 2,3 3,4 6,6 3,0 6,0 9,-2 4,0 6,-2 7,-4 2,-3 2,-6 2,-7 0,-3 -2,-8 -3,-13l-15 -40 13 -4 13 38c3,9 5,14 5,19 1,3 1,7 0,10 -2,3 -3,6 -6,7 -3,3 -6,6 -12,8 -6,1 -10,3 -13,1 -4,0 -7,-1 -10,-3 -3,-1 -5,-4 -6,-7 -3,-3 -4,-9 -7,-18l-13 -38 0 0zm87 49l-30 -69 11 -6 45 35 -20 -45 12 -6 30 70 -13 4 -44 -33 21 45 -12 5 0 0zm83 -40l-39 -64 12 -7 49 29 -27 -44 11 -6 40 64 -12 8 -48 -28 25 41 -11 7 0 0zm66 -77l-7 -11 23 -17 18 25c0,3 -3,9 -5,13 -3,6 -7,9 -11,13 -6,4 -12,6 -18,7 -6,0 -12,-1 -17,-4 -6,-4 -11,-9 -15,-15 -6,-5 -9,-11 -10,-19 0,-7 0,-13 3,-19 1,-4 4,-8 10,-13 6,-4 13,-7 19,-7 6,1 12,3 16,9l-9 10c-3,-3 -6,-4 -9,-4 -4,0 -7,1 -10,2 -4,5 -7,9 -7,15 0,4 3,12 7,18 6,7 10,11 16,13 6,1 11,0 15,-3 3,-2 4,-5 6,-7 1,-2 3,-5 3,-8l-6 -7 -12 9 0 0zm22 -30c-4,-5 -7,-11 -10,-16 -2,-4 -2,-8 -2,-11 0,-5 0,-9 2,-12 3,-4 6,-9 9,-12 7,-5 16,-8 24,-7 9,2 18,6 27,16 7,9 11,18 11,26 0,11 -4,18 -11,24 -8,7 -15,10 -24,9 -10,-2 -17,-8 -26,-17l0 0zm10 -8c6,6 12,10 18,10 4,1 10,0 13,-3 4,-4 7,-9 6,-15 0,-5 -3,-11 -9,-17 -6,-7 -10,-10 -16,-12 -6,-1 -10,0 -15,5 -4,3 -5,7 -5,13 0,6 2,11 8,19l0 0zm70 -13l-52 -53 19 -22c4,-4 9,-7 11,-9 5,-1 8,-1 12,-1 3,1 7,3 10,7 5,3 6,7 8,12 0,6 -2,10 -5,14 3,0 6,0 9,0 3,0 7,2 15,3l16 5 -12 11 -17 -4c-8,-1 -12,-3 -14,-3 -3,0 -4,0 -5,2 -2,0 -3,1 -5,3l-3 2 24 22 -11 11 0 0zm-20 -41l6 -8c4,-4 7,-7 9,-8 0,-2 0,-5 0,-6 -2,-2 -2,-3 -3,-5 -3,-1 -5,-3 -6,-3 -2,0 -5,0 -6,2 -2,0 -3,3 -7,7l-8 8 15 13zm105 -54l-9 11 -16 -7 -17 20 9 17 -9 10 -41 -69 9 -10 74 28 0 0zm-38 0l-28 -12 16 26 12 -14z"/>
   <g>
    <g>
     <path class="fil0" d="M1179 2393c-39,32 -75,40 -110,38 -89,-3 -105,-41 -152,-70 13,-6 18,-9 32,-15 -60,-1 -78,-26 -95,-44 14,-5 27,-10 38,-16 -42,-25 -81,-46 -100,-93 24,0 30,3 49,0 -22,-31 -51,-64 -60,-107 16,6 38,6 53,3 -26,-77 -25,-130 -4,-165 14,-25 41,-44 67,-51 29,-7 55,0 67,18 15,24 4,71 -22,81 -15,6 -31,2 -50,-7 -5,38 -2,72 8,93 0,0 -1,-1 -2,-1 0,6 1,12 1,18 -36,-44 -29,-156 -4,-148 3,23 18,31 32,29 34,-4 44,-54 6,-64 -20,-6 -48,-1 -64,15 -51,54 -34,146 -3,208 -17,3 -39,-4 -57,-7 13,37 38,67 66,94 -19,4 -26,3 -48,1 29,51 67,64 111,80 -15,11 -21,14 -44,22 29,32 101,29 108,29 -6,21 -22,24 -50,28l0 0c35,41 114,82 189,44 13,-7 26,-16 38,-27l0 14zm-162 -242c6,-1 12,-1 17,-2l7 4c-2,3 -5,5 -10,6 -5,-3 -9,-5 -14,-8zm106 51l15 9c3,11 13,21 26,21 3,0 6,0 9,-1l6 4 0 8c-1,0 -3,1 -5,1 -17,-10 -33,-20 -50,-30 -1,-4 -2,-8 -1,-12z"/>
     <path class="fil0" d="M1179 2133c-86,-97 -184,-28 -290,-94 -5,34 2,73 21,101 -10,25 9,70 45,91 -9,47 38,68 59,73 39,93 105,42 165,10l0 -13c-10,5 -20,12 -30,17 -21,12 -55,33 -81,27 -21,-5 -34,-24 -43,-43l0 0c19,0 81,-10 72,-26 -21,7 -45,13 -72,12 -29,0 -65,-13 -60,-53 8,2 15,5 21,6 20,3 79,7 74,-13 -20,3 -45,4 -71,0 -40,-5 -76,-50 -69,-85 15,9 31,15 47,18 19,4 79,6 74,-13 -22,4 -46,4 -71,0 -51,-11 -70,-34 -72,-91 102,54 193,-4 272,82 4,4 7,7 9,10l0 -16zm0 110l0 -14c-4,2 -9,3 -15,3 -22,0 -35,-27 -20,-45 4,-6 11,-9 20,-6 -7,-17 -36,-4 -41,18 -4,26 19,46 41,46 5,0 10,0 15,-2z"/>
    </g>
    <g>
     <path class="fil0" d="M1296 2393c40,32 75,40 110,38 90,-3 106,-41 152,-70 -13,-6 -17,-9 -32,-15 60,-1 79,-26 95,-44 -13,-5 -26,-10 -38,-16 43,-25 82,-46 101,-93 -25,0 -31,3 -50,0 22,-31 51,-64 60,-107 -16,6 -38,6 -52,3 26,-77 24,-130 4,-165 -15,-25 -41,-44 -67,-51 -29,-7 -56,0 -67,18 -15,24 -5,71 22,81 14,6 30,2 49,-7 6,38 3,72 -8,93 1,0 2,-1 2,-1 0,6 0,12 -1,18 37,-44 30,-156 4,-148 -3,23 -17,31 -32,29 -33,-4 -44,-54 -6,-64 21,-6 49,-1 65,15 51,54 33,146 2,208 18,3 40,-4 57,-7 -13,37 -38,67 -65,94 19,4 26,3 48,1 -29,51 -67,64 -111,80 15,11 20,14 44,22 -29,32 -101,29 -108,29 6,21 22,24 49,28l0 0c-35,41 -114,82 -188,44 -14,-7 -27,-16 -39,-27l0 14zm163 -242c-6,-1 -12,-1 -18,-2l-6 4c1,3 5,5 9,6 5,-3 10,-5 15,-8zm-106 51l-16 9c-2,11 -12,21 -25,21 -4,0 -7,0 -10,-1l-6 4 0 8c2,0 4,1 6,1 16,-10 33,-20 50,-30 1,-4 1,-8 1,-12z"/>
     <path class="fil0" d="M1296 2133c87,-97 185,-28 290,-94 6,34 -1,73 -20,101 10,25 -9,70 -46,91 9,47 -38,68 -58,73 -40,93 -106,42 -166,10l0 -13c11,5 21,12 30,17 22,12 56,33 82,27 20,-5 34,-24 42,-43l0 0c-19,0 -80,-10 -71,-26 20,7 45,13 71,12 30,0 66,-13 60,-53 -7,2 -14,5 -20,6 -21,3 -79,7 -75,-13 21,3 46,4 72,0 39,-5 76,-50 68,-85 -14,9 -30,15 -46,18 -19,4 -79,6 -75,-13 22,4 47,4 72,0 51,-11 70,-34 71,-91 -102,54 -192,-4 -271,82 -4,4 -7,7 -10,10l0 -16zm0 110l0 -14c5,2 10,3 16,3 21,0 35,-27 20,-45 -4,-6 -12,-9 -20,-6 7,-17 36,-4 40,18 5,26 -19,46 -40,46 -5,0 -10,0 -16,-2z"/>
    </g>
   </g>
   <g>
    <path class="fil0" d="M510 2194c55,19 95,52 130,90l-10 5c-28,-30 -58,-55 -95,-73 10,24 14,47 14,75l0 14 -13 -3c-38,-11 -74,-10 -109,8l0 0c42,17 70,48 93,92 10,19 18,39 28,58 9,15 17,31 30,41 24,17 54,13 79,4l1 -4c3,3 6,7 10,10l0 2c-167,61 -106,-158 -266,-200 42,-31 89,-35 137,-22 0,-46 -13,-73 -29,-97l0 0z"/>
    <path class="fil0" d="M1928 2353c-151,247 -393,414 -675,417 -288,1 -552,-161 -705,-417l-6 -10 9 -6c41,-26 83,-49 124,-74l9 -6 4 9c111,160 267,288 457,318 77,13 159,10 235,-10 168,-42 307,-162 408,-308l4 -9 9 6c41,25 83,48 124,74l9 6 -6 10 0 0zm-1247 -81c-41,26 -84,49 -124,76 151,254 413,411 696,410 276,-1 516,-165 666,-410 -41,-27 -83,-50 -124,-76 -102,149 -241,268 -412,314 -77,19 -161,23 -239,10 -193,-31 -351,-161 -463,-324l0 0z"/>
    <path class="fil0" d="M1966 2194c-56,19 -95,52 -130,90l9 5c28,-30 58,-55 96,-73l0 0c-10,24 -15,47 -15,75l0 14 14 -3c38,-11 74,-10 109,8 -42,17 -70,48 -93,92 -9,19 -18,39 -28,58 -9,15 -18,31 -31,41 -23,17 -54,13 -79,4l0 -4c-3,4 -7,8 -10,11l0 1c167,61 105,-158 266,-200 -42,-31 -89,-35 -137,-22 0,-46 13,-73 29,-97l0 0z"/>
   </g>
  </g>
 </g>
</svg>
