<svg clip-rule="evenodd" fill-rule="evenodd" height="140mm" image-rendering="optimizeQuality" shape-rendering="geometricPrecision" text-rendering="geometricPrecision" viewBox="0 0 14000 14000" width="140mm" xmlns="http://www.w3.org/2000/svg"><g fill="#e6e6e6"><path d="m6562 9250c83 25 170 38 261 38s178-13 261-38z"/><path d="m8387 909c-1035 0-1919 648-2267 1561h4534c-348-913-1232-1561-2267-1561z"/><path d="m12238 1284c-251 0-454 204-454 454 0 251 203 454 454 454 250 0 453-203 453-454 0-250-203-454-453-454z"/></g><path d="m4580 11643c-1329 0-2408-1068-2426-2393h4852c-18 1325-1097 2393-2426 2393z" fill="#c0e1ce"/><path d="m8431 11267c-251 0-454-203-454-453 0-251 203-454 454-454 250 0 454 203 454 454 0 250-204 453-454 453z" fill="#c0e1ce"/><path d="m11016 13091c1590 0 2879-175 2879-391 0-217-1289-392-2879-392s-2879 175-2879 392c0 216 1289 391 2879 391z" fill="#e6e6e6"/><path d="m652 9742h12982v-8315h-12982zm371-492h12240v-6780h-12240z" fill="#e6e6e6"/><path d="m647 1420h12982v552h-12982z" fill="#ffc107"/><circle cx="1056" cy="1702" fill="#fff" r="102"/><circle cx="1444" cy="1702" fill="#fff" r="102"/><circle cx="1832" cy="1702" fill="#fff" r="102"/><path d="m2135 3173h3145v5373h-3145z" fill="#e6e6e6"/><path d="m5823 3173h2621v1479h-2621z" fill="#ffc107"/><path d="m5823 5064h2621v1591h-2621z" fill="#e6e6e6"/><path d="m5823 7067h2621v1479h-2621z" fill="#ffc107"/><path d="m9006 3173h3145v2341h-3145z" fill="#ffc107"/><path d="m9006 6205h3145v2341h-3145z" fill="#e6e6e6"/><path d="m10868 6087c167-76 210-198 203-303-352-524-182-1268 544-1280 373-7 783 236 744 606l-89 843c0 50-41 88-91 91l-1173 60c-50 0-174-52-138-17z" fill="#2f2e41"/><path d="m12614 12243-239 66-367-888 351-97z" fill="#ffb8b8"/><path d="m12186 12288 460-127 80 289-749 207c-44-159 50-325 209-369z" fill="#2f2e41"/><path d="m10130 12426h-247l-118-953h365z" fill="#ffb8b8"/><path d="m9706 12356h477v300h-777c0-166 134-300 300-300z" fill="#2f2e41"/><path d="m9832 7098c38 51 98 82 163 82 55 0 109-23 147-64l657 296-60-370-614-224c-37-30-83-47-130-47-113 0-204 92-204 204 0 44 14 87 41 123z" fill="#ffb8b8"/><path d="m11197 9320c-206 0-420-30-600-122-193-96-416-261-397-475 23-261 384-530 469-821 71-174 183-392 200-554l-234-88c27-259 50-483 179-567 67-43 157-46 276-7l974 395-41 2107-7 2c-6 2-397 130-819 130z" fill="#c3b091"/><path d="m10934 6064s545-161 968-101c0 0-242 1331-161 1775 81 443-1401 171-1099-252l101-504s-202-202-20-444z" fill="#594a32"/><path d="m10667 9280-671-125 614-1609c16-51-2-1387 163-1448 120-42 243-77 367-102l24-5-24 129 184 440-185 1383z" fill="#c3b091"/><path d="m10317 12205-867-144 487-1987 723-2716 8 48c0 3 68 358 1071 201l9-1 3 8 1212 4286-987 164-901-3126z" fill="#c3b091"/><path d="m11519 9618v-15c1-17-347-1565-367-2242-9-295 40-605 170-789l440-622 1-5 5-1c285-82 532 161 534 164l4 3-81 669 347 2433z" fill="#c3b091"/><circle cx="11476" cy="5267" fill="#ffb8b8" r="495"/><path d="m10935 5040c0-295 239-534 534-534h101c295 0 534 239 534 534v10h-213l-72-204-15 204h-110l-37-103-9 107-474-230-241 230z" fill="#2f2e41"/><path d="m11349 5929c-11-15-18-34-18-53 0-14-1-33 11-41 250-183 536-650 136-910l-14-16h576l-4 1042-598 14c-5 1-10 2-16 2-29 0-56-14-73-38z" fill="#2f2e41"/><path d="m9107 2257c-491-414-1114-641-1756-641-1503 0-2723 1219-2723 2722s1220 2723 2723 2723c714 0 1401-282 1910-783l3339 2818c46 38 103 59 162 59 139 0 251-112 251-251 0-74-32-144-89-191v-1l-3340-2817c319-457 489-1000 489-1557 0-802-353-1563-966-2081zm-216 3366c-387 459-958 725-1559 725-1126 0-2039-914-2039-2040s913-2040 2039-2040c482 0 948 171 1316 481 459 388 724 958 724 1559 0 481-170 947-481 1315z" fill="#3f3d56"/><path d="m6017 5867c-459-388-724-958-724-1559 0-424 132-838 378-1183-39 39-77 80-113 123-310 368-481 834-481 1316 0 1126 913 2039 2040 2039 601 0 1171-265 1559-724 36-43 70-87 102-132-382 384-903 601-1446 601-481 0-947-171-1315-481z" fill-opacity=".301961"/><path d="m11635 7963c16 4 32 6 48 6 107 0 196-83 203-190l694-192-282-246-616 220c-113 1-204 92-204 204 0 95 65 177 157 198z" fill="#ffb8b8"/><path d="m11924 7861-43-401 580-320-378-458 62-514 154-66 4 7c73 93 708 913 708 1014 0 104-121 410-288 493-160 80-763 236-788 243z" fill="#c3b091"/><path d="m11066 5968s-228-14-246 90 82 212 207 214 281-16 388-32c106-16 121-34 246-34s205-11 310 0c105 12 133 8 260 36s96 12 191 66c95 53 127 137 117 145-11 7 106-253 33-351s-129-132-208-158c-78-26-213-66-327-72-114-2-651-18-731 24-81 43-240 72-240 72z" fill="#2f2e41"/><path d="m2073 7503c-804-726-1678-490-1795-1701-20-218-12-441-7-662 15-586 52-1263-166-1556 295-270 594-542 892-812h2153c298 270 596 542 892 812-218 293-182 970-166 1556 5 221 13 444-8 662-117 1211-991 975-1795 1701z" fill="#332c2b" stroke="#332c2b" stroke-width="62.34"/><path d="m2073 7459c117-101 244-192 376-270 125-75 254-137 384-200 117-54 234-106 348-166 103-57 205-116 293-197 101-88 179-192 238-319 73-158 109-334 125-508 21-218 13-438 8-656-3-114-8-228-11-343-2-121-2-243 0-365 3-114 8-228 18-343 19-163 58-363 148-503-285-262-573-524-861-783-710 0-1421 0-2132 0-288 259-575 521-861 783 91 140 130 340 148 503 10 115 16 229 18 343 3 122 3 244 0 365-2 115-8 229-10 343-5 218-13 438 8 656 15 174 51 350 124 508 60 127 138 231 239 319 88 81 189 140 293 197 114 60 231 112 347 166 130 63 260 125 384 200 132 78 260 169 376 270z" fill="#fefefe"/><path d="m2073 7334c104-85 216-163 332-230 127-76 257-141 392-203 114-54 231-106 345-166 96-52 192-109 275-184 91-80 161-174 212-285 68-148 102-314 117-477 21-216 13-431 5-644-2-114-5-228-7-342-3-124-6-246-3-368 3-120 8-236 21-353 18-156 49-329 122-472-260-236-519-472-779-708-687 0-1377 0-2064 0-259 236-519 472-778 708 73 143 104 316 122 472 13 117 18 233 21 353 2 122 0 244-3 368-3 114-5 228-8 342-8 213-15 428 5 644 16 163 50 329 117 477 52 111 122 205 213 285 83 75 179 132 275 184 114 60 231 112 345 166 135 62 264 127 391 203 117 67 228 145 332 230z" fill="#332c2b" stroke="#332c2b" stroke-width="35.63"/><path d="m2073 7295c101-83 208-155 317-220 127-75 259-143 394-205 114-52 231-104 342-163 96-52 190-107 270-179 88-78 156-169 205-278 67-142 98-306 114-467 21-210 13-425 8-638-3-114-8-228-11-342-2-124-2-246 0-371 0-117 8-236 21-355 16-153 47-319 112-459-249-228-501-457-750-682-682 0-1362 0-2044 0-249 225-500 454-749 682 65 140 96 306 111 459 13 119 21 238 21 355 3 125 3 247 0 371-2 114-8 228-10 342-5 213-13 428 8 638 15 161 46 325 114 467 49 109 116 200 205 278 80 72 173 127 269 179 112 59 228 111 343 163 134 62 267 130 394 205 109 65 215 137 316 220z" fill="#fff000"/><path d="m2073 7295c101-83 208-155 317-220 127-75 259-143 394-205 114-52 231-104 342-163 96-52 190-107 270-179 88-78 156-169 205-278 67-142 98-306 114-467 21-210 13-425 8-638-3-114-8-228-11-342-2-124-2-246 0-371 0-54 3-109 6-163h-3289c3 54 5 109 5 163 3 125 3 247 0 371-2 114-8 228-10 342-5 213-13 428 8 638 15 161 46 325 114 467 49 109 116 200 205 278 80 72 173 127 269 179 112 59 228 111 343 163 134 62 267 130 394 205 109 65 215 137 316 220z" fill="#589f36"/><path d="m3450 6473c21-20 39-41 55-62l-444-788h462l174 306c2-21 8-44 10-65l-137-241h155c0-13 0-29 3-42h-182l-212-373h389v-44h-413l-295-519-34 21 283 498h-462l-148-257-34 21 133 236h-1344l135-236-36-21-145 257h-462l283-498-34-21-296 519h-430v44h407l-213 373h-199c2 13 2 29 2 42h174l-151 264c3 24 6 44 11 65l187-329h461l-451 801c13 16 29 34 44 49zm-438-850h-1862l-454 806h2773zm23-42-210-373h462l210 373zm-256-373 210 373h-1813l210-373zm-1440 0h-461l-213 373h464z" fill="#fefefe"/><path d="m3723 5169c-138-81-270-156-439-145-137 10-233 98-417 98-215-5-412-96-628-41-62 15-119 36-174 46-46-26-129-33-176-46-215-55-412 36-628 41-184 0-277-88-417-98-161-11-288 59-420 134v-13c2-114 8-228 10-342 3-124 3-246 0-371 0-34 0-70-2-104l3283-41c-3 49-3 98-3 145-2 125-2 247 0 371 3 114 8 228 11 342z" fill="#00a2e9"/><path d="m3712 4391c0-55 3-109 8-164l-2324-767-145 124-124-75-708 617c7 83 13 169 15 252z" fill="#047cb0"/><path d="m432 4341h414v-129h182v129h438v-33c0-55 42-96 91-96s91 41 91 96v33h843v-33c0-55 41-96 91-96 49 0 90 41 90 96v33h441v-129h179v129h423c-3 21-3 42-3 63h-420-179-2085-182-412c0-21 0-42-2-63z" fill="#fefefe"/><path d="m437 4616c127-72 251-135 409-122 65 3 117 24 174 45 70 25 143 51 241 51 78 0 156-15 234-28 130-23 262-47 399-11 13 3 29 6 47 8 41 11 91 18 127 37 29-6 62-16 96-26 23-6 47-13 70-19 140-36 270-12 402 11 75 13 153 28 231 28 98 0 174-26 241-51 57-21 112-42 174-45 166-13 296 57 428 133v57c-135-81-265-153-426-143-57 5-108 23-160 44-73 26-151 55-257 55-83-3-161-16-239-31-127-21-254-45-384-11-23 5-46 13-67 18-39 11-73 24-109 29l-13-3c-31-15-80-26-122-33-18-6-36-8-49-11-130-34-254-10-381 11-81 15-159 28-242 31-106 0-184-29-254-55-54-21-106-39-163-44-156-10-280 57-407 132 0-18 0-36 0-57zm3283 452-2-55c-135-80-268-150-436-140-62 5-117 23-174 44-67 26-143 52-241 55-78-3-156-16-231-31-132-24-262-47-402-11-23 5-47 13-70 21-34 8-67 18-96 26-36-18-86-29-127-36-18-3-34-8-47-11-137-36-269-13-399 11-78 15-156 28-234 31-98-3-171-29-241-55-57-21-109-39-174-44-160-10-287 55-417 130l-3 54c133-75 260-145 418-135 57 3 109 24 163 42 70 26 148 54 254 54 83 0 161-15 242-28 127-24 251-47 381-13 13 5 31 8 49 10 42 8 91 18 122 37l13 2c36-8 70-18 109-28 21-8 44-13 67-21 130-34 257-11 384 13 78 13 156 28 239 28 106 0 184-28 257-54 52-18 103-39 160-42 166-13 299 65 436 146zm-5-208c0-18-3-39-3-57-132-78-264-145-430-135-62 5-117 24-174 44-67 26-143 52-241 55-78-3-156-16-231-31-132-24-262-47-402-11-23 5-47 13-70 21-34 8-67 18-96 23-36-15-86-26-127-33-18-6-34-8-47-11-137-36-269-13-399 11-78 15-156 28-234 31-98-3-171-29-241-55-57-20-109-39-174-44-158-10-285 52-412 125v10c0 16-2 31-2 47 129-75 256-143 412-133 57 3 109 21 163 42 70 26 148 54 254 54 83 0 161-15 242-28 127-23 251-47 381-13 13 3 31 8 49 10 42 8 91 18 122 37h13c36-6 70-16 109-26 21-8 44-16 67-21 130-34 257-10 384 13 78 13 156 28 239 28 106 0 184-28 257-54 52-21 103-39 160-42 164-13 294 63 431 143z" fill="#fefefe"/><path d="m950 3325v-177h34v78l70-78h44l-62 70 65 107h-44l-45-83-28 31v52zm319 0h-36l-13-39h-67l-16 39h-34l65-177h34zm-62-70-23-65-21 65zm80-107h68 31c5 3 10 6 16 8 5 5 10 10 12 16 6 5 6 13 6 20 0 8 0 16-6 24-5 8-10 13-18 15 11 3 18 8 24 16 5 8 10 18 10 26 0 10-3 18-8 26-2 8-8 13-13 18-7 3-13 8-23 8-5 0-18 0-42 0h-57zm34 29v41h23 24c8 0 10-2 15-7 3-3 6-8 6-13 0-6-3-11-6-13-2-3-7-6-13-8-2 0-13 0-28 0zm0 70v49h34c10 0 18 0 21-2 5 0 10-3 13-6 2-5 5-10 5-15s0-11-3-13c-2-5-8-8-10-11-5 0-16-2-31-2zm135 78v-34h34v34zm169 0v-148h-50v-29h133v29h-50v148zm238 0h-36l-13-39h-68l-15 39h-34l65-177h36zm-59-70-24-65-23 65zm70 13 33-3c0 10 5 21 11 26 7 5 15 8 26 8 10 0 18-3 23-8s8-10 8-16c0-5 0-7-3-13-3-2-5-5-13-7-2 0-13-3-26-8-18-3-31-10-39-16-10-10-15-23-15-36 0-10 2-18 7-26 6-8 13-13 21-18 11-5 21-5 34-5 21 0 36 2 47 13 10 10 15 23 18 41h-34c-3-10-5-15-10-21-5-2-13-5-21-5-10 0-18 3-23 8-3 3-6 5-6 10 0 3 3 8 6 11 2 2 13 8 31 13 15 2 28 8 36 13 8 2 13 10 18 18 5 5 8 15 8 26 0 10-3 21-10 31-6 8-13 16-21 18-11 5-23 8-36 8-24 0-39-5-50-16-13-10-18-26-20-46zm163 57v-177h34v177zm67 0v-177h34v78l68-78h46l-62 70 65 107h-44l-44-83-29 31v52zm169 0v-177h49l31 122 29-122h52v177h-31v-140l-34 140h-31l-34-140v140zm345 0h-36l-13-39h-68l-15 39h-34l65-177h36zm-62-70-24-65-20 65zm83 70v-177h33v148h83v29zm293 0h-37l-15-39h-68l-13 39h-36l65-177h36zm-63-70-23-65-23 65zm102 70v-73l-60-104h39l39 70 39-70h39l-60 104v73zm243 0h-36l-15-39h-68l-13 39h-36l65-177h36zm-62-70-23-65-24 65z" fill="#332c2b"/><path d="m2055 6185c-109 133-197 164-285 159-158-6-187-73-270-125 23-10 31-15 57-26-106-2-140-46-168-78 23-10 46-18 67-28-75-44-145-83-179-166 44 0 54 5 88 0-39-55-91-114-106-189 28 10 67 10 93 5-46-138-44-231-8-293 26-44 73-78 120-91 52-13 98 0 119 31 26 44 8 127-39 145-26 11-54 3-88-13-13 91 0 169 39 195 10 8 109 88 127 78 187 119 272 160 459 277-8 52-21 65-26 119z" fill="#332c2b"/><path d="m1562 6222c63 72 203 145 335 78 54-29 101-76 140-125 3-18 8-36 13-54 5-16 8-29 10-45-145-90-295-176-443-267-24 0-57-26-73-36-13-10-26-18-39-28-5-6-13-11-18-16-85-60-75-296-26-280 5 41 31 54 57 52 60-8 78-96 11-114-37-11-86-3-115 26-90 96-59 259-5 370-31 6-70-7-101-13 23 65 68 120 117 166-34 8-47 6-86 3 52 91 120 114 197 143-26 18-36 23-77 39 51 57 179 51 192 51-11 37-39 42-89 50z" fill="#fff000"/><path d="m2029 5905c-168-301-366-124-578-256-11 59 2 129 36 179-18 44 16 124 81 160-16 83 67 122 103 130 88 207 252 13 374-16-8-57-11-140-16-197z" fill="#332c2b"/><path d="m2024 6089c-3-38-5-75-8-114-26 29-54 39-78 39-39 0-80-36-72-83 8-39 59-62 72-31-15-5-28 0-36 11-26 31-3 80 36 80 60 0 78-73 50-117-16-23-24-33-39-49-140-153-301-49-483-145 3 101 37 142 127 161 45 7 89 7 128 0 7 33-99 31-133 23-28-5-57-16-83-31-13 62 52 142 122 150 47 8 91 5 127 0 8 36-96 29-132 23-10-2-23-7-36-10-11 70 54 93 106 93 47 3 91-7 127-20 16 28-93 46-127 46 16 34 39 68 75 76 47 10 107-26 145-47 34-21 73-44 112-55z" fill="#fff000"/><path d="m2084 6185c109 133 197 164 285 159 156-6 187-73 270-125-24-10-31-15-57-26 106-2 140-46 168-78-23-10-47-18-67-28 75-44 145-83 179-166-44 0-55 5-89 0 39-55 91-114 107-189-29 10-68 10-94 5 47-138 45-231 8-293-26-44-72-78-119-91-52-13-99 0-119 31-26 44-8 127 39 145 25 11 54 3 88-13 13 91 0 169-39 195-11 8-109 88-127 78-187 119-273 160-459 277 7 52 20 65 26 119z" fill="#332c2b"/><path d="m2576 6222c-62 72-202 145-334 78-55-29-101-76-140-125-3-18-8-36-13-54-5-16-8-29-11-45 146-90 296-176 444-267 23 0 57-26 73-36 13-10 25-18 38-28 6-6 13-11 19-16 85-60 75-296 26-280-6 41-32 54-58 52-59-8-77-96-10-114 36-11 86-3 114 26 91 96 60 259 5 370 32 6 70-7 102-13-24 65-68 120-117 166 34 8 47 6 85 3-51 91-119 114-197 143 26 18 37 23 78 39-52 57-179 51-192 51 11 37 39 42 88 50z" fill="#fff000"/><path d="m2110 5905c168-301 365-124 578-256 10 59-5 129-36 179 18 44-16 124-81 160 16 83-67 122-104 130-88 207-251 13-373-16 8-57 10-140 16-197z" fill="#332c2b"/><path d="m2115 6089c2-38 5-75 8-114 25 29 54 39 77 39 39 0 81-36 73-83-8-39-60-62-73-31 16-5 29 0 37 11 26 31 2 80-37 80-59 0-77-73-49-117 13-23 23-33 39-49 140-153 301-49 482-145-2 101-36 142-127 161-44 7-88 7-127 0-8 33 99 31 132 23 29-5 58-16 83-31 13 62-54 142-121 150-47 8-91 5-128 0-7 36 96 29 133 23 10-2 23-7 36-10 10 70-54 93-106 93-47 3-91-7-127-20-16 28 90 46 127 46-16 34-39 68-75 76-47 10-107-26-146-47-33-21-72-44-111-55z" fill="#fff000"/><path d="m2135 3496c-62 21-114 60-132 130v3073h132c0-1069 0-2137 0-3203z" fill="#332c2b"/><path d="m2115 3548c-24 39-52 72-91 88v257h91zm-91 368v376h91v-376zm0 399v377h91v-377zm0 400v376h91v-376zm0 399v376h91v-376zm0 400v376h91v-376zm0 399v374h91v-374zm0 400v363h91v-363z" fill="#fff000"/><path d="m776 5923c146 50 229 153 314 257-10 104-23 208-33 309-296 109-187-280-472-355 75-55 158-63 243-39 0-81-23-130-52-172z" fill="#332c2b"/><path d="m629 6128c75 31 124 86 166 164 18 33 31 70 49 104 15 25 31 54 54 72 42 31 96 23 140 8 11-96 24-195 34-291-78-93-148-173-251-223 18 42 25 83 25 133v26l-23-6c-67-20-132-18-194 13z" fill="#fff000"/><path d="m3362 5923c-145 50-228 153-314 257 11 104 24 208 34 309 296 109 187-280 472-355-75-55-158-63-244-39 0-81 24-130 52-172z" fill="#332c2b"/><path d="m3318 5962c-104 50-174 130-251 223 10 96 23 195 33 291 44 15 99 23 140-8 24-18 39-47 55-72 18-34 34-71 49-104 42-78 91-133 166-164-62-31-127-33-194-13l-24 6v-26c0-50 8-91 26-133z" fill="#fff000"/><path d="m3295 6206c-267 439-698 734-1198 739-511 3-981-285-1253-739l-10-18 15-10c73-47 148-89 221-133l15-10 8 16c197 285 475 511 812 565 137 23 282 18 417-18 298-75 545-288 724-547l8-16 15 10c73 44 148 86 221 133l15 10z" fill="#332c2b"/><path d="m1080 6061c-73 47-148 88-221 135 270 451 734 731 1238 729 490-3 915-293 1182-729-72-47-148-88-220-135-182 264-428 477-732 558-137 33-285 41-425 18-342-55-622-286-822-576z" fill="#fff000"/><path d="m1038 6268 19 16c-8 8-11 13-11 18 0 8 3 13 5 18 6 5 11 11 16 11s10 0 15-6c3 0 3-2 3-5 3-2 0-7 0-10s-3-10-8-18c-5-13-7-24-7-31 2-11 5-19 12-26 6-3 13-5 19-8 7 0 13 0 20 3 6 2 13 7 19 15 10 10 13 23 13 34 0 10-6 18-16 26l-16-16c6-5 8-10 8-15 0-6-2-11-8-16-2-5-7-8-13-8-2-2-5 0-7 3-3 0-6 2-6 8 0 2 3 10 8 20 5 13 8 21 8 29 3 5 3 10 0 18-3 5-8 10-13 18-8 3-13 8-21 8-7 3-15 0-23-3-5-2-13-7-18-15-11-13-16-23-13-34 0-13 5-23 15-34zm138 24 15 15-51 52c-8 8-13 13-16 16-3 5-3 10-3 15 0 6 3 11 8 16 3 2 8 5 13 8 5 0 8-3 13-6 3-2 8-7 16-15l54-52 16 18-50 49c-13 11-20 19-26 24-5 2-10 5-18 5-5 0-10 0-15-3-8-2-13-5-21-13-8-7-10-15-13-20-3-8-3-13-3-18 3-8 3-13 8-16 3-8 11-16 21-26zm-13 179 91-101 15 18-39 44 76-13 23 23-68 8-18 93-23-20 18-70-28 5-29 28zm174 145-21-18 10-29-36-31-26 18-21-15 120-78 18 16zm-3-70 18-49-41 28zm13 75 73-114 33 23c11 8 19 13 21 16 5 5 8 13 8 21 0 7-3 18-8 26-5 7-10 13-15 15-6 3-11 5-16 5s-8 0-13 0c-5-2-13-7-21-13l-13-7-28 41zm80-80-20 31 13 8c7 5 13 7 15 7 3 3 8 0 11 0l7-7c3-6 3-8 3-13 0-3-3-8-5-11 0-2-5-5-13-10zm78 21 21 12-34 65c-5 8-7 16-10 18-3 6-3 11 0 16s5 10 10 13c8 3 13 5 18 3 3 0 8-3 11-8 2-3 5-11 10-18l37-65 20 10-33 62c-8 16-13 24-19 29-5 5-7 10-13 13-5 0-13 3-18 3-8 0-13-3-23-8-8-5-16-11-18-18-5-6-8-11-8-16s0-10 3-16c2-7 5-18 13-31zm42 173 52-124 46 21c11 5 18 10 24 15 5 3 7 10 7 16 0 7 0 15-2 23-5 8-11 16-18 18-8 5-16 5-26 3 2 5 5 10 8 15 0 6 2 13 2 26l5 29-28-11-3-33c-2-13-2-21-5-24 0-2-3-5-3-7-2-3-7-6-13-6l-2-2-23 52zm52-62 15 8c11 5 18 8 21 8s5-3 8-3c2-3 5-5 8-10 0-3 0-8 0-11 0-2-3-5-6-8-2-2-7-5-15-7l-18-8zm158 140-24-8-2-31-44-15-18 26-24-8 83-114 24 7zm-26-65v-52l-31 44zm80 78 21-132 23 2 34 99 16-91 20 5-23 133-23-6-31-93-16 86zm174-28 3-21 52 2-6 55c-5 5-13 10-23 13-8 2-18 5-29 2-13 0-23-5-31-10-7-8-15-16-18-28-5-11-5-24-5-37 3-13 5-26 13-36 5-10 13-18 23-23 8-3 18-6 29-3 15 0 26 5 34 13 7 8 13 18 13 31l-24 3c-2-8-5-13-8-19-5-2-10-5-18-5-10-2-18 3-23 8-8 8-13 18-13 34-3 15 0 28 5 36s13 13 23 13h16c5-3 10-5 13-8l3-18zm176 49h-26l-10-29h-47l-10 31-23 3 39-137h26zm-44-52-18-49-15 52zm39-83 42-5c10-3 18-3 23 0 8 0 13 2 21 8 5 5 10 13 13 20 2 8 5 18 8 31 2 11 2 21 0 29 0 10-6 18-8 26-5 5-11 10-16 13-5 2-13 5-21 5l-44 8zm26 21 13 88 18-3c5-2 11-2 13-5 3 0 8-2 8-5 3-3 5-8 5-16 0-5 0-13 0-23-2-10-5-18-8-23 0-6-5-11-7-13-3-3-8-3-11-3-5-2-10 0-20 0zm213 70-26 8-18-29-44 13-3 31-23 5 10-140 26-8zm-55-39-28-47-5 55zm24-91 20-8 24 70c5 11 8 18 10 21 3 5 5 8 11 10 5 0 10 0 15-2 8 0 11-5 13-8 3-5 3-10 3-13 0-5-3-13-5-23l-26-70 23-8 23 67c5 16 8 26 8 34 3 5 3 13 0 18s-5 11-10 13c-6 5-11 11-21 13-10 3-18 5-23 3-8 0-13-3-19-5-5-3-7-8-10-13-5-6-8-16-13-32zm155 86-54-122 21-11 80 63-36-81 20-10 55 124-23 8-78-60 36 81zm148-70-70-115 21-12 88 51-49-77 21-11 70 114-21 13-86-49 44 73zm117-138-13-18 41-31 32 44c0 5-6 16-8 23-5 11-13 16-21 24-10 7-21 10-31 13-11 0-21-3-31-8-11-8-18-16-26-26-11-10-16-21-18-34 0-13 0-23 5-34 2-7 8-15 18-23s23-13 34-13c10 3 20 5 28 16l-15 18c-6-5-11-8-16-8-8 0-13 3-18 5-8 8-13 16-13 26 0 8 5 21 13 31 10 13 18 21 28 24 11 2 19 0 26-6 6-2 8-7 11-12 2-3 5-8 5-13l-10-13zm39-52c-8-10-13-20-18-28-3-8-3-16-3-21 0-8 0-16 3-21 5-8 10-15 15-21 13-10 29-15 44-12 16 2 31 10 47 28 13 16 21 31 21 47 0 18-8 31-21 41-13 13-26 18-42 16-18-3-31-13-46-29zm18-15c10 10 21 18 31 18 8 2 18 0 23-5 8-8 13-16 11-26 0-11-5-21-16-31-10-13-18-19-28-21-11-3-18 0-26 8-8 5-11 13-11 23s6 21 16 34zm124-24-93-93 34-39c8-8 15-13 21-15 7-3 12-3 20-3 5 3 13 5 18 13 8 5 11 13 13 21 0 10-2 18-7 26h15c5 0 13 2 26 5l29 8-21 20-31-7c-13-3-21-6-24-6-5 0-7 0-10 3-3 0-5 3-8 5l-5 5 42 39zm-36-72 10-13 16-16c0-2 0-8 0-10-3-3-3-5-5-8-5-3-8-5-11-5-2 0-7 0-10 2-2 0-5 6-13 13l-13 13zm187-96-16 21-28-13-31 36 15 28-15 19-73-122 16-19zm-68 0-49-21 29 47z" fill="#332c2b"/><path d="m3635 12914c1316 0 2382-145 2382-324s-1066-324-2382-324c-1315 0-2381 145-2381 324s1066 324 2381 324z" fill-opacity=".101961"/><g fill="#424150"><path d="m3563 12234c662 0 1198-536 1198-1198s-536-1198-1198-1198-1199 536-1199 1198 537 1198 1199 1198z"/><path d="m3381 11977h-364v652h364z"/><path d="m4109 11977h-364v652h364z"/><path d="m3320 12750c168 0 303-51 303-114 0-62-135-113-303-113-167 0-303 51-303 113 0 63 136 114 303 114z"/><path d="m4048 12735c168 0 304-51 304-114s-136-113-304-113c-167 0-303 50-303 113s136 114 303 114z"/></g><path d="m3593 11142c226 0 410-183 410-409 0-227-184-410-410-410s-409 183-409 410c0 226 183 409 409 409z" fill="#fff"/><path d="m3593 10869c76 0 137-61 137-136 0-76-61-137-137-137-75 0-136 61-136 137 0 75 61 136 136 136z" fill="#495057"/><path d="m2400 9922c-97-434 213-872 691-978 479-107 945 157 1041 591 97 433-220 593-698 700s-937 120-1034-313z" fill="#ffc107"/><path d="m4687 10797c304-130 518-313 477-409-41-95-321-67-625 63s-518 313-477 409c41 95 321 67 625-63z" fill="#424150"/><path d="m2442 11601c304-130 517-313 477-409-41-95-321-67-625 63-305 130-518 313-477 409 41 95 320 67 625-63z" fill="#424150"/><path d="m2971 11385c0 117 302 349 637 349s653-217 653-334-318-91-653-91-637-41-637 76z" fill="#fff"/></svg>