<?xml version="1.0" encoding="UTF-8"?>
<!DOCTYPE svg PUBLIC "-//W3C//DTD SVG 1.1//EN" "http://www.w3.org/Graphics/SVG/1.1/DTD/svg11.dtd">
<!-- Creator: CorelDRAW X8 -->
<svg xmlns="http://www.w3.org/2000/svg" xml:space="preserve" width="4.743mm" height="4.642mm" version="1.1" style="shape-rendering:geometricPrecision; text-rendering:geometricPrecision; image-rendering:optimizeQuality; fill-rule:evenodd; clip-rule:evenodd"
viewBox="0 0 474 464"
 xmlns:xlink="http://www.w3.org/1999/xlink">
 <defs>
  <style type="text/css">
   <![CDATA[
    .fil0 {fill:#575757}
   ]]>
  </style>
 </defs>
 <g id="Layer_x0020_1">
  <metadata id="CorelCorpID_0Corel-Layer"/>
  <path class="fil0" d="M69 299l148 0 0 -3 -148 0c-20,0 -35,-5 -47,-15 -11,-11 -17,-27 -16,-49 0,-11 10,-19 21,-19 10,1 19,10 18,21 0,9 1,15 4,18 4,3 10,4 20,4 0,0 311,-2 337,0 6,1 11,0 14,-3 3,-4 6,-12 6,-24 0,-11 9,-19 20,-19 11,0 19,9 19,20 0,22 -6,38 -16,49 -11,12 -26,18 -44,17l-148 0 0 3 0 84c0,11 -9,20 -20,20 -11,0 -20,-9 -20,-20l0 -84 -148 0zm398 -144c8,7 10,20 3,28 -7,9 -19,10 -28,3l-48 -38c-5,-4 -9,-10 -9,-16l0 -92 -17 0 0 46c0,11 -9,20 -20,20 -5,0 -10,-2 -14,-5l-59 -48c-11,-9 -25,-13 -38,-13 -14,0 -27,4 -38,13l-167 134c-8,6 -21,5 -28,-3 -6,-9 -5,-21 3,-28l167 -134c19,-15 41,-22 63,-22 22,0 44,7 62,22l29 23 0 -15c0,-9 3,-16 9,-21 5,-6 12,-9 21,-9l38 0c8,0 15,3 20,9 6,5 9,12 9,21l0 92 42 33zm-23 147c11,0 19,10 18,21l-4 56c-3,48 -44,85 -92,85l-258 0c-48,0 -88,-37 -92,-85l-4 -56c-1,-11 7,-21 18,-21 11,-1 21,7 22,18l4 56c2,27 25,48 52,48l258 0c27,0 50,-21 52,-48l4 -56c1,-11 11,-19 22,-18z"/>
 </g>
</svg>
