<svg width="16" height="16" viewBox="0 0 16 16" fill="none" xmlns="http://www.w3.org/2000/svg">
<path fill-rule="evenodd" clip-rule="evenodd" d="M14.977 9.89652C15.2979 9.92061 15.538 10.2011 15.5139 10.5221L15.3663 12.4718C15.2443 14.0804 13.8867 15.3401 12.2742 15.3401H3.25988C1.6474 15.3401 0.289808 14.0804 0.167803 12.4718L0.0201545 10.5221C-0.00393551 10.2011 0.236965 9.92061 0.557907 9.89652C0.880402 9.88486 1.1586 10.1126 1.18347 10.4343L1.33034 12.3832C1.4065 13.3872 2.25354 14.1744 3.25988 14.1744H12.2742C13.2806 14.1744 14.1284 13.3872 14.2038 12.3832L14.3514 10.4343C14.3763 10.1126 14.6615 9.88408 14.977 9.89652ZM8.76966 9.15527e-05C9.93759 9.15527e-05 10.9052 0.87531 11.0509 2.00425L12.5814 2.00493C14.2102 2.00493 15.5344 3.33299 15.5344 4.96645V7.63889C15.5344 7.84638 15.424 8.03754 15.2461 8.14167C13.328 9.26497 10.8981 9.92015 8.34975 10.0075L8.35003 11.4053C8.35003 11.727 8.08892 11.9881 7.7672 11.9881C7.44548 11.9881 7.18438 11.727 7.18438 11.4053L7.18387 10.0077C4.63805 9.92113 2.20804 9.26581 0.288487 8.14167C0.109754 8.03754 0.000183105 7.84638 0.000183105 7.63889V4.95868C0.000183105 3.32988 1.32824 2.00493 2.96093 2.00493L4.4835 2.00425C4.62924 0.87531 5.59682 9.15527e-05 6.76475 9.15527e-05H8.76966ZM12.5814 3.17057H2.96093C1.9709 3.17057 1.16583 3.97254 1.16583 4.95868V7.2993C3.01044 8.30157 5.33592 8.85088 7.7564 8.85194L7.7672 8.85093L7.77583 8.85124L8.14585 8.84739C10.435 8.79285 12.6188 8.24973 14.3687 7.2993V4.96645C14.3687 3.97565 13.5675 3.17057 12.5814 3.17057ZM8.76966 1.16574H6.76475C6.24149 1.16574 5.79979 1.52186 5.66931 2.00445H9.8651C9.73461 1.52186 9.29292 1.16574 8.76966 1.16574Z" fill="black"/>
</svg>
